%TF.GenerationSoftware,KiCad,Pcbnew,8.0.0*%
%TF.CreationDate,2024-06-03T00:37:32+08:00*%
%TF.ProjectId,CattusGPSDOv1,43617474-7573-4475-9053-444f76312e6b,rev?*%
%TF.SameCoordinates,Original*%
%TF.FileFunction,Copper,L2,Inr*%
%TF.FilePolarity,Positive*%
%FSLAX46Y46*%
G04 Gerber Fmt 4.6, Leading zero omitted, Abs format (unit mm)*
G04 Created by KiCad (PCBNEW 8.0.0) date 2024-06-03 00:37:32*
%MOMM*%
%LPD*%
G01*
G04 APERTURE LIST*
%TA.AperFunction,ComponentPad*%
%ADD10R,1.700000X1.700000*%
%TD*%
%TA.AperFunction,ComponentPad*%
%ADD11O,1.700000X1.700000*%
%TD*%
%TA.AperFunction,ComponentPad*%
%ADD12R,1.600000X1.600000*%
%TD*%
%TA.AperFunction,ComponentPad*%
%ADD13C,1.600000*%
%TD*%
%TA.AperFunction,ComponentPad*%
%ADD14C,4.000000*%
%TD*%
%TA.AperFunction,ComponentPad*%
%ADD15C,2.050000*%
%TD*%
%TA.AperFunction,ComponentPad*%
%ADD16C,2.250000*%
%TD*%
%TA.AperFunction,ComponentPad*%
%ADD17C,0.800000*%
%TD*%
%TA.AperFunction,ComponentPad*%
%ADD18C,6.400000*%
%TD*%
%TA.AperFunction,ComponentPad*%
%ADD19C,1.700000*%
%TD*%
%TA.AperFunction,ComponentPad*%
%ADD20R,1.000000X1.000000*%
%TD*%
%TA.AperFunction,ComponentPad*%
%ADD21O,1.000000X1.000000*%
%TD*%
%TA.AperFunction,ViaPad*%
%ADD22C,0.600000*%
%TD*%
G04 APERTURE END LIST*
D10*
%TO.N,/GNSS_RX*%
%TO.C,J5*%
X139885000Y-87525000D03*
D11*
%TO.N,/GNSS_TX*%
X142425000Y-87525000D03*
%TO.N,/VCP_TRX*%
X139885000Y-90065000D03*
%TO.N,/VCP_TTX*%
X142425000Y-90065000D03*
%TO.N,/CONFIG_RX*%
X139885000Y-92605000D03*
%TO.N,/CONFIG_TX*%
X142425000Y-92605000D03*
%TD*%
D12*
%TO.N,Net-(J6-VBUS)*%
%TO.C,J6*%
X168312500Y-83370000D03*
D13*
%TO.N,/UD_N*%
X168312500Y-85870000D03*
%TO.N,/UD_P*%
X170312500Y-85870000D03*
%TO.N,GND*%
X170312500Y-83370000D03*
D14*
X173172500Y-78620000D03*
X173172500Y-90620000D03*
%TD*%
D15*
%TO.N,Net-(J1-In)*%
%TO.C,J1*%
X118920000Y-116680000D03*
D16*
%TO.N,GND*%
X116380000Y-114140000D03*
X116380000Y-119220000D03*
X121460000Y-114140000D03*
X121460000Y-119220000D03*
%TD*%
D17*
%TO.N,GND*%
%TO.C,H2*%
X178360000Y-71840000D03*
X179062944Y-70142944D03*
X179062944Y-73537056D03*
X180760000Y-69440000D03*
D18*
X180760000Y-71840000D03*
D17*
X180760000Y-74240000D03*
X182457056Y-70142944D03*
X182457056Y-73537056D03*
X183160000Y-71840000D03*
%TD*%
D15*
%TO.N,Net-(D7-A2)*%
%TO.C,J2*%
X118810000Y-93830000D03*
D16*
%TO.N,GND*%
X116270000Y-91290000D03*
X116270000Y-96370000D03*
X121350000Y-91290000D03*
X121350000Y-96370000D03*
%TD*%
D17*
%TO.N,GND*%
%TO.C,H4*%
X178352944Y-124942944D03*
X179055888Y-123245888D03*
X179055888Y-126640000D03*
X180752944Y-122542944D03*
D18*
X180752944Y-124942944D03*
D17*
X180752944Y-127342944D03*
X182450000Y-123245888D03*
X182450000Y-126640000D03*
X183152944Y-124942944D03*
%TD*%
D10*
%TO.N,unconnected-(U1-Uref-Pad1)*%
%TO.C,U1*%
X153630000Y-102630000D03*
D19*
%TO.N,+5V*%
X153630000Y-121680000D03*
%TO.N,Net-(U1-RF)*%
X172680000Y-121680000D03*
%TO.N,GND*%
X172680000Y-112155000D03*
%TO.N,/OCXO_VC*%
X172680000Y-102630000D03*
%TD*%
D17*
%TO.N,GND*%
%TO.C,H1*%
X115272944Y-71842944D03*
X115975888Y-70145888D03*
X115975888Y-73540000D03*
X117672944Y-69442944D03*
D18*
X117672944Y-71842944D03*
D17*
X117672944Y-74242944D03*
X119370000Y-70145888D03*
X119370000Y-73540000D03*
X120072944Y-71842944D03*
%TD*%
D10*
%TO.N,/EEPROM_SDA*%
%TO.C,J7*%
X148440000Y-77770000D03*
D11*
%TO.N,/EEPROM_SCL*%
X150980000Y-77770000D03*
%TO.N,/EEPROM_WC*%
X153520000Y-77770000D03*
%TD*%
D17*
%TO.N,GND*%
%TO.C,H3*%
X115272944Y-124932944D03*
X115975888Y-123235888D03*
X115975888Y-126630000D03*
X117672944Y-122532944D03*
D18*
X117672944Y-124932944D03*
D17*
X117672944Y-127332944D03*
X119370000Y-123235888D03*
X119370000Y-126630000D03*
X120072944Y-124932944D03*
%TD*%
D10*
%TO.N,Net-(J4-Pin_1)*%
%TO.C,J4*%
X129530000Y-113435000D03*
D11*
%TO.N,GND*%
X129530000Y-115975000D03*
%TD*%
D20*
%TO.N,unconnected-(J3-NC-Pad1)*%
%TO.C,J3*%
X150380000Y-71230000D03*
D21*
%TO.N,unconnected-(J3-NC-Pad2)*%
X150380000Y-72500000D03*
%TO.N,+3V3*%
X149110000Y-71230000D03*
%TO.N,/DEBUG_SWDIO*%
X149110000Y-72500000D03*
%TO.N,GND*%
X147840000Y-71230000D03*
%TO.N,/DEBUG_SWCLK*%
X147840000Y-72500000D03*
%TO.N,GND*%
X146570000Y-71230000D03*
%TO.N,unconnected-(J3-JTDO{slash}SWO-Pad8)*%
X146570000Y-72500000D03*
%TO.N,unconnected-(J3-JRCLK{slash}NC-Pad9)*%
X145300000Y-71230000D03*
%TO.N,unconnected-(J3-JTDI{slash}NC-Pad10)*%
X145300000Y-72500000D03*
%TO.N,GND*%
X144030000Y-71230000D03*
%TO.N,/MCU_RESET*%
X144030000Y-72500000D03*
%TO.N,/VCP_TRX*%
X142760000Y-71230000D03*
%TO.N,/VCP_TTX*%
X142760000Y-72500000D03*
%TD*%
D22*
%TO.N,GND*%
X131300000Y-97900000D03*
X167850000Y-111190000D03*
X169260000Y-121790000D03*
X143670000Y-115370000D03*
X122190000Y-104200000D03*
X144640000Y-74140000D03*
X153770000Y-90300000D03*
X131100000Y-78360000D03*
X146570000Y-94520000D03*
X134760000Y-78970000D03*
X136860000Y-78510000D03*
X162230000Y-87710000D03*
X168390000Y-77290000D03*
X147870000Y-107850000D03*
X166030000Y-106690000D03*
X143692050Y-114492050D03*
X126360000Y-114330000D03*
X143690000Y-109570000D03*
X170660000Y-96530000D03*
X124650000Y-111670000D03*
X148970000Y-116160000D03*
X172220000Y-106690000D03*
X152130000Y-83280000D03*
X153620000Y-86410000D03*
X122020000Y-88570000D03*
X136050000Y-85990000D03*
X131450000Y-86650000D03*
X147000000Y-104810000D03*
X143700000Y-103910000D03*
X165760000Y-118060000D03*
X129450000Y-92890000D03*
X177710000Y-76190000D03*
X155520000Y-110600000D03*
X161210000Y-113150000D03*
X124330000Y-99490000D03*
X128250000Y-89200000D03*
X126450000Y-91990000D03*
X155610000Y-105820000D03*
X133240000Y-110350000D03*
X134980000Y-90920000D03*
X160930000Y-106550000D03*
X176210000Y-84110000D03*
X154730000Y-71790000D03*
X121540000Y-75180000D03*
X138780000Y-123860000D03*
X140940000Y-102480000D03*
X131770000Y-119390000D03*
X116020000Y-111720000D03*
X134560000Y-117310000D03*
X133050000Y-105900000D03*
X161480000Y-123340000D03*
X124960000Y-76580000D03*
X150400000Y-75410000D03*
X174444343Y-117741680D03*
X121640000Y-111680000D03*
X152120000Y-81980000D03*
X163470000Y-100300000D03*
X138420000Y-74820000D03*
X152130000Y-84540000D03*
X153110000Y-75410000D03*
X140710000Y-111630000D03*
X130900000Y-107750000D03*
X160840000Y-100030000D03*
X131350000Y-74380000D03*
X138510000Y-120470000D03*
X134870000Y-109269412D03*
X118950000Y-100950000D03*
X140780000Y-81860000D03*
X179570000Y-114350000D03*
X134540000Y-115570000D03*
X179260000Y-87570000D03*
X123620000Y-113460000D03*
X142610000Y-74580000D03*
X120230000Y-104200000D03*
X134535000Y-113890000D03*
X148730000Y-114640000D03*
X139960000Y-109430000D03*
X128250000Y-82260000D03*
X133410000Y-71260000D03*
X152330000Y-71770000D03*
X143080000Y-97945000D03*
X131050000Y-104120000D03*
X175260000Y-95620000D03*
X155520000Y-118150000D03*
X118840000Y-111660000D03*
X179760000Y-82200000D03*
X155380000Y-123560000D03*
X152140000Y-80720000D03*
X126920000Y-73990000D03*
X164200000Y-77010000D03*
X140740000Y-78290000D03*
X121300000Y-81550000D03*
X173300000Y-86380000D03*
X165480000Y-92190000D03*
X161430000Y-118560000D03*
X143170000Y-80020000D03*
X126130000Y-96450000D03*
%TO.N,+5V*%
X156120000Y-76380000D03*
X156160000Y-81650000D03*
X156160000Y-84040000D03*
X135770000Y-95170000D03*
X156120000Y-78960000D03*
X145600000Y-103590000D03*
X137260000Y-118570000D03*
X156180000Y-73990000D03*
X143060000Y-99495000D03*
X137289365Y-94927894D03*
%TO.N,+3V3*%
X160320000Y-96080000D03*
X178300000Y-120340000D03*
X135755000Y-82645821D03*
X150030000Y-84230735D03*
X140840000Y-80620000D03*
X134890000Y-102570000D03*
X134585000Y-112250000D03*
X161990000Y-74007500D03*
X160380000Y-93660000D03*
X153620000Y-87980000D03*
X161990000Y-72980000D03*
X160690000Y-72985000D03*
X161990000Y-71952500D03*
X160690000Y-75040000D03*
X160690000Y-90260000D03*
X160380000Y-92310000D03*
X137340000Y-96600000D03*
X160690000Y-70930000D03*
X161990000Y-75035000D03*
X130380000Y-97050000D03*
X160690000Y-86440000D03*
X160690000Y-71957500D03*
X179380000Y-103140000D03*
X179520000Y-112740000D03*
X160220000Y-94910000D03*
X133960000Y-94550000D03*
X138790000Y-96620000D03*
X161990000Y-70925000D03*
X138300000Y-109520000D03*
X160690000Y-74012500D03*
X134702500Y-103672500D03*
%TO.N,/GNSS_TX*%
X140620000Y-96890000D03*
X138170000Y-91590000D03*
%TO.N,/GNSS_RX*%
X139395000Y-106010000D03*
%TO.N,Net-(Q1-D)*%
X120240000Y-107950000D03*
X117960000Y-109000000D03*
%TO.N,Net-(Q3-G)*%
X153660000Y-91890000D03*
X161705000Y-86925000D03*
%TO.N,Net-(U3-TXD)*%
X140600000Y-100670000D03*
X140190735Y-106092521D03*
%TO.N,/MCU_RESET*%
X140707571Y-82656717D03*
%TO.N,/EEPROM_SDA*%
X151320000Y-82120000D03*
X161870000Y-96250000D03*
%TO.N,/EEPROM_WC*%
X150020000Y-83220000D03*
%TO.N,/EEPROM_SCL*%
X162000000Y-97750000D03*
X150000000Y-82050000D03*
%TO.N,Net-(D5-K)*%
X136580000Y-73680000D03*
X177650000Y-97860000D03*
%TO.N,Net-(D6-K)*%
X140370000Y-73660000D03*
X177880000Y-106430000D03*
%TO.N,/ADF_MISO*%
X143229446Y-83905139D03*
X140505350Y-114978825D03*
%TO.N,/5V_SENSE*%
X140800000Y-83850000D03*
X136370000Y-90980000D03*
%TO.N,/3V3_SENSE*%
X133870000Y-90770000D03*
X137740000Y-83390000D03*
%TO.N,/ADF_SCK*%
X141219507Y-112246771D03*
X143320000Y-84700000D03*
%TO.N,/ADF_LE*%
X140527216Y-114179627D03*
X143480000Y-82230000D03*
%TO.N,/ADF_MOSI*%
X141400000Y-113060000D03*
X143236594Y-83050063D03*
%TD*%
%TA.AperFunction,Conductor*%
%TO.N,GND*%
G36*
X116452532Y-125975274D02*
G01*
X116630614Y-126153356D01*
X116732244Y-126227195D01*
X115237592Y-127721847D01*
X115239540Y-127759012D01*
X115223390Y-127826989D01*
X115173053Y-127875445D01*
X115115710Y-127889500D01*
X114814500Y-127889500D01*
X114747461Y-127869815D01*
X114701706Y-127817011D01*
X114690500Y-127765500D01*
X114690500Y-127479458D01*
X114710185Y-127412419D01*
X114762989Y-127366664D01*
X114832147Y-127356720D01*
X114854049Y-127366722D01*
X114884040Y-127368294D01*
X116378692Y-125873642D01*
X116452532Y-125975274D01*
G37*
%TD.AperFunction*%
%TA.AperFunction,Conductor*%
G36*
X178269436Y-68910185D02*
G01*
X178315191Y-68962989D01*
X178326227Y-69020991D01*
X178324648Y-69051096D01*
X179819301Y-70545748D01*
X179717670Y-70619588D01*
X179539588Y-70797670D01*
X179465748Y-70899300D01*
X177971096Y-69404648D01*
X177971095Y-69404648D01*
X177762531Y-69662206D01*
X177551310Y-69987456D01*
X177375244Y-70333005D01*
X177236262Y-70695063D01*
X177135887Y-71069669D01*
X177135886Y-71069676D01*
X177075219Y-71452712D01*
X177054922Y-71839999D01*
X177054922Y-71840000D01*
X177075219Y-72227287D01*
X177135886Y-72610323D01*
X177135887Y-72610330D01*
X177236262Y-72984936D01*
X177375244Y-73346994D01*
X177551310Y-73692543D01*
X177762531Y-74017793D01*
X177971095Y-74275350D01*
X177971096Y-74275350D01*
X179465748Y-72780698D01*
X179539588Y-72882330D01*
X179717670Y-73060412D01*
X179819300Y-73134251D01*
X178324648Y-74628903D01*
X178324649Y-74628904D01*
X178582206Y-74837468D01*
X178907456Y-75048689D01*
X179253005Y-75224755D01*
X179615063Y-75363737D01*
X179989669Y-75464112D01*
X179989676Y-75464113D01*
X180372712Y-75524780D01*
X180759999Y-75545078D01*
X180760001Y-75545078D01*
X181147287Y-75524780D01*
X181530323Y-75464113D01*
X181530330Y-75464112D01*
X181904936Y-75363737D01*
X182266994Y-75224755D01*
X182612543Y-75048689D01*
X182937783Y-74837476D01*
X182937785Y-74837475D01*
X183195349Y-74628902D01*
X181700698Y-73134251D01*
X181802330Y-73060412D01*
X181980412Y-72882330D01*
X182054251Y-72780698D01*
X183548902Y-74275349D01*
X183579011Y-74273772D01*
X183646988Y-74289921D01*
X183695444Y-74340258D01*
X183709500Y-74397602D01*
X183709500Y-122385710D01*
X183689815Y-122452749D01*
X183637011Y-122498504D01*
X183579012Y-122509540D01*
X183541847Y-122507592D01*
X182047195Y-124002244D01*
X181973356Y-123900614D01*
X181795274Y-123722532D01*
X181693642Y-123648692D01*
X183188294Y-122154040D01*
X183188294Y-122154039D01*
X182930737Y-121945475D01*
X182605487Y-121734254D01*
X182259938Y-121558188D01*
X181897880Y-121419206D01*
X181523274Y-121318831D01*
X181523267Y-121318830D01*
X181140231Y-121258163D01*
X180752945Y-121237866D01*
X180752943Y-121237866D01*
X180365656Y-121258163D01*
X179982620Y-121318830D01*
X179982613Y-121318831D01*
X179608007Y-121419206D01*
X179245949Y-121558188D01*
X178900400Y-121734254D01*
X178575150Y-121945475D01*
X178317592Y-122154039D01*
X178317592Y-122154040D01*
X179812245Y-123648692D01*
X179710614Y-123722532D01*
X179532532Y-123900614D01*
X179458692Y-124002244D01*
X177964040Y-122507592D01*
X177964039Y-122507592D01*
X177755475Y-122765150D01*
X177544254Y-123090400D01*
X177368188Y-123435949D01*
X177229206Y-123798007D01*
X177128831Y-124172613D01*
X177128830Y-124172620D01*
X177068163Y-124555656D01*
X177047866Y-124942943D01*
X177047866Y-124942944D01*
X177068163Y-125330231D01*
X177128830Y-125713267D01*
X177128831Y-125713274D01*
X177229206Y-126087880D01*
X177368188Y-126449938D01*
X177544254Y-126795487D01*
X177755475Y-127120737D01*
X177964039Y-127378294D01*
X177964040Y-127378294D01*
X179458692Y-125883642D01*
X179532532Y-125985274D01*
X179710614Y-126163356D01*
X179812244Y-126237195D01*
X178317592Y-127731847D01*
X178319016Y-127759012D01*
X178302866Y-127826989D01*
X178252529Y-127875445D01*
X178195186Y-127889500D01*
X120230177Y-127889500D01*
X120163138Y-127869815D01*
X120117383Y-127817011D01*
X120106347Y-127759012D01*
X120108294Y-127721847D01*
X118613642Y-126227195D01*
X118715274Y-126153356D01*
X118893356Y-125975274D01*
X118967195Y-125873642D01*
X120461846Y-127368293D01*
X120670419Y-127110729D01*
X120670420Y-127110727D01*
X120881633Y-126785487D01*
X121057699Y-126439938D01*
X121196681Y-126077880D01*
X121297056Y-125703274D01*
X121297057Y-125703267D01*
X121357724Y-125320231D01*
X121378022Y-124932944D01*
X121378022Y-124932943D01*
X121357724Y-124545656D01*
X121297057Y-124162620D01*
X121297056Y-124162613D01*
X121196681Y-123788007D01*
X121057699Y-123425949D01*
X120881633Y-123080400D01*
X120670412Y-122755150D01*
X120461848Y-122497593D01*
X120461847Y-122497592D01*
X118967195Y-123992244D01*
X118893356Y-123890614D01*
X118715274Y-123712532D01*
X118613642Y-123638692D01*
X120108294Y-122144040D01*
X120108294Y-122144039D01*
X119850737Y-121935475D01*
X119525487Y-121724254D01*
X119438634Y-121680000D01*
X152274341Y-121680000D01*
X152294936Y-121915403D01*
X152294938Y-121915413D01*
X152356094Y-122143655D01*
X152356096Y-122143659D01*
X152356097Y-122143663D01*
X152360936Y-122154040D01*
X152455965Y-122357830D01*
X152455967Y-122357834D01*
X152491199Y-122408150D01*
X152591505Y-122551401D01*
X152758599Y-122718495D01*
X152810948Y-122755150D01*
X152952165Y-122854032D01*
X152952167Y-122854033D01*
X152952170Y-122854035D01*
X153166337Y-122953903D01*
X153394592Y-123015063D01*
X153582918Y-123031539D01*
X153629999Y-123035659D01*
X153630000Y-123035659D01*
X153630001Y-123035659D01*
X153669234Y-123032226D01*
X153865408Y-123015063D01*
X154093663Y-122953903D01*
X154307830Y-122854035D01*
X154501401Y-122718495D01*
X154668495Y-122551401D01*
X154804035Y-122357830D01*
X154903903Y-122143663D01*
X154965063Y-121915408D01*
X154985659Y-121680000D01*
X171324341Y-121680000D01*
X171344936Y-121915403D01*
X171344938Y-121915413D01*
X171406094Y-122143655D01*
X171406096Y-122143659D01*
X171406097Y-122143663D01*
X171410936Y-122154040D01*
X171505965Y-122357830D01*
X171505967Y-122357834D01*
X171541199Y-122408150D01*
X171641505Y-122551401D01*
X171808599Y-122718495D01*
X171860948Y-122755150D01*
X172002165Y-122854032D01*
X172002167Y-122854033D01*
X172002170Y-122854035D01*
X172216337Y-122953903D01*
X172444592Y-123015063D01*
X172632918Y-123031539D01*
X172679999Y-123035659D01*
X172680000Y-123035659D01*
X172680001Y-123035659D01*
X172719234Y-123032226D01*
X172915408Y-123015063D01*
X173143663Y-122953903D01*
X173357830Y-122854035D01*
X173551401Y-122718495D01*
X173718495Y-122551401D01*
X173854035Y-122357830D01*
X173953903Y-122143663D01*
X174015063Y-121915408D01*
X174035659Y-121680000D01*
X174015063Y-121444592D01*
X173953903Y-121216337D01*
X173854035Y-121002171D01*
X173831380Y-120969815D01*
X173718494Y-120808597D01*
X173551402Y-120641506D01*
X173551395Y-120641501D01*
X173357834Y-120505967D01*
X173357830Y-120505965D01*
X173357828Y-120505964D01*
X173143663Y-120406097D01*
X173143659Y-120406096D01*
X173143655Y-120406094D01*
X172915413Y-120344938D01*
X172915403Y-120344936D01*
X172859019Y-120340003D01*
X177494435Y-120340003D01*
X177514630Y-120519249D01*
X177514631Y-120519254D01*
X177574211Y-120689523D01*
X177624934Y-120770247D01*
X177670184Y-120842262D01*
X177797738Y-120969816D01*
X177950478Y-121065789D01*
X178120745Y-121125368D01*
X178120750Y-121125369D01*
X178299996Y-121145565D01*
X178300000Y-121145565D01*
X178300004Y-121145565D01*
X178479249Y-121125369D01*
X178479252Y-121125368D01*
X178479255Y-121125368D01*
X178649522Y-121065789D01*
X178802262Y-120969816D01*
X178929816Y-120842262D01*
X179025789Y-120689522D01*
X179085368Y-120519255D01*
X179085369Y-120519249D01*
X179105565Y-120340003D01*
X179105565Y-120339996D01*
X179085369Y-120160750D01*
X179085368Y-120160745D01*
X179025788Y-119990476D01*
X178961504Y-119888169D01*
X178929816Y-119837738D01*
X178802262Y-119710184D01*
X178649523Y-119614211D01*
X178479254Y-119554631D01*
X178479249Y-119554630D01*
X178300004Y-119534435D01*
X178299996Y-119534435D01*
X178120750Y-119554630D01*
X178120745Y-119554631D01*
X177950476Y-119614211D01*
X177797737Y-119710184D01*
X177670184Y-119837737D01*
X177574211Y-119990476D01*
X177514631Y-120160745D01*
X177514630Y-120160750D01*
X177494435Y-120339996D01*
X177494435Y-120340003D01*
X172859019Y-120340003D01*
X172680001Y-120324341D01*
X172679999Y-120324341D01*
X172444596Y-120344936D01*
X172444586Y-120344938D01*
X172216344Y-120406094D01*
X172216335Y-120406098D01*
X172002171Y-120505964D01*
X172002169Y-120505965D01*
X171808597Y-120641505D01*
X171641505Y-120808597D01*
X171505965Y-121002169D01*
X171505964Y-121002171D01*
X171406098Y-121216335D01*
X171406094Y-121216344D01*
X171344938Y-121444586D01*
X171344936Y-121444596D01*
X171324341Y-121679999D01*
X171324341Y-121680000D01*
X154985659Y-121680000D01*
X154965063Y-121444592D01*
X154903903Y-121216337D01*
X154804035Y-121002171D01*
X154781380Y-120969815D01*
X154668494Y-120808597D01*
X154501402Y-120641506D01*
X154501395Y-120641501D01*
X154307834Y-120505967D01*
X154307830Y-120505965D01*
X154307828Y-120505964D01*
X154093663Y-120406097D01*
X154093659Y-120406096D01*
X154093655Y-120406094D01*
X153865413Y-120344938D01*
X153865403Y-120344936D01*
X153630001Y-120324341D01*
X153629999Y-120324341D01*
X153394596Y-120344936D01*
X153394586Y-120344938D01*
X153166344Y-120406094D01*
X153166335Y-120406098D01*
X152952171Y-120505964D01*
X152952169Y-120505965D01*
X152758597Y-120641505D01*
X152591505Y-120808597D01*
X152455965Y-121002169D01*
X152455964Y-121002171D01*
X152356098Y-121216335D01*
X152356094Y-121216344D01*
X152294938Y-121444586D01*
X152294936Y-121444596D01*
X152274341Y-121679999D01*
X152274341Y-121680000D01*
X119438634Y-121680000D01*
X119179938Y-121548188D01*
X118817880Y-121409206D01*
X118443274Y-121308831D01*
X118443267Y-121308830D01*
X118060231Y-121248163D01*
X117672945Y-121227866D01*
X117672943Y-121227866D01*
X117285656Y-121248163D01*
X116902620Y-121308830D01*
X116902613Y-121308831D01*
X116528007Y-121409206D01*
X116165949Y-121548188D01*
X115820400Y-121724254D01*
X115495150Y-121935475D01*
X115237592Y-122144039D01*
X115237592Y-122144040D01*
X116732245Y-123638692D01*
X116630614Y-123712532D01*
X116452532Y-123890614D01*
X116378692Y-123992244D01*
X114884040Y-122497592D01*
X114861172Y-122498790D01*
X114853375Y-122504177D01*
X114783544Y-122506502D01*
X114723541Y-122470704D01*
X114692417Y-122408150D01*
X114690500Y-122386428D01*
X114690500Y-120010907D01*
X114710185Y-119943868D01*
X114762989Y-119898113D01*
X114832147Y-119888169D01*
X114895703Y-119917194D01*
X114923974Y-119956410D01*
X114925423Y-119955672D01*
X114927636Y-119960015D01*
X115061277Y-120178098D01*
X115061284Y-120178107D01*
X115064533Y-120181912D01*
X115625884Y-119620560D01*
X115626740Y-119622626D01*
X115719762Y-119761844D01*
X115838156Y-119880238D01*
X115977374Y-119973260D01*
X115979437Y-119974114D01*
X115418087Y-120535465D01*
X115421897Y-120538719D01*
X115639984Y-120672363D01*
X115639987Y-120672365D01*
X115876297Y-120770247D01*
X116125011Y-120829957D01*
X116125010Y-120829957D01*
X116380000Y-120850024D01*
X116634989Y-120829957D01*
X116883702Y-120770247D01*
X117120012Y-120672365D01*
X117120015Y-120672363D01*
X117338095Y-120538724D01*
X117338110Y-120538713D01*
X117341911Y-120535466D01*
X117341911Y-120535464D01*
X116780562Y-119974114D01*
X116782626Y-119973260D01*
X116921844Y-119880238D01*
X117040238Y-119761844D01*
X117133260Y-119622626D01*
X117134114Y-119620561D01*
X117695464Y-120181911D01*
X117695466Y-120181911D01*
X117698713Y-120178110D01*
X117698724Y-120178095D01*
X117832363Y-119960015D01*
X117832365Y-119960012D01*
X117930247Y-119723702D01*
X117989957Y-119474989D01*
X118010024Y-119220000D01*
X119829975Y-119220000D01*
X119850042Y-119474989D01*
X119909752Y-119723702D01*
X120007634Y-119960012D01*
X120007636Y-119960015D01*
X120141277Y-120178098D01*
X120141284Y-120178107D01*
X120144533Y-120181912D01*
X120705884Y-119620560D01*
X120706740Y-119622626D01*
X120799762Y-119761844D01*
X120918156Y-119880238D01*
X121057374Y-119973260D01*
X121059437Y-119974114D01*
X120498087Y-120535465D01*
X120501897Y-120538719D01*
X120719984Y-120672363D01*
X120719987Y-120672365D01*
X120956297Y-120770247D01*
X121205011Y-120829957D01*
X121205010Y-120829957D01*
X121460000Y-120850024D01*
X121714989Y-120829957D01*
X121963702Y-120770247D01*
X122200012Y-120672365D01*
X122200015Y-120672363D01*
X122418095Y-120538724D01*
X122418110Y-120538713D01*
X122421911Y-120535466D01*
X122421911Y-120535464D01*
X121860562Y-119974114D01*
X121862626Y-119973260D01*
X122001844Y-119880238D01*
X122120238Y-119761844D01*
X122213260Y-119622626D01*
X122214114Y-119620561D01*
X122775464Y-120181911D01*
X122775466Y-120181911D01*
X122778713Y-120178110D01*
X122778724Y-120178095D01*
X122912363Y-119960015D01*
X122912365Y-119960012D01*
X123010247Y-119723702D01*
X123069957Y-119474989D01*
X123090024Y-119220000D01*
X123069957Y-118965010D01*
X123010247Y-118716297D01*
X122949651Y-118570003D01*
X136454435Y-118570003D01*
X136474630Y-118749249D01*
X136474631Y-118749254D01*
X136534211Y-118919523D01*
X136562793Y-118965010D01*
X136630184Y-119072262D01*
X136757738Y-119199816D01*
X136910478Y-119295789D01*
X137080745Y-119355368D01*
X137080750Y-119355369D01*
X137259996Y-119375565D01*
X137260000Y-119375565D01*
X137260004Y-119375565D01*
X137439249Y-119355369D01*
X137439252Y-119355368D01*
X137439255Y-119355368D01*
X137609522Y-119295789D01*
X137762262Y-119199816D01*
X137889816Y-119072262D01*
X137985789Y-118919522D01*
X138045368Y-118749255D01*
X138045369Y-118749249D01*
X138065565Y-118570003D01*
X138065565Y-118569996D01*
X138045369Y-118390750D01*
X138045368Y-118390745D01*
X137998949Y-118258087D01*
X137985789Y-118220478D01*
X137889816Y-118067738D01*
X137762262Y-117940184D01*
X137609523Y-117844211D01*
X137439254Y-117784631D01*
X137439249Y-117784630D01*
X137260004Y-117764435D01*
X137259996Y-117764435D01*
X137080750Y-117784630D01*
X137080745Y-117784631D01*
X136910476Y-117844211D01*
X136757737Y-117940184D01*
X136630184Y-118067737D01*
X136534211Y-118220476D01*
X136474631Y-118390745D01*
X136474630Y-118390750D01*
X136454435Y-118569996D01*
X136454435Y-118570003D01*
X122949651Y-118570003D01*
X122912365Y-118479987D01*
X122912363Y-118479984D01*
X122778719Y-118261897D01*
X122775465Y-118258087D01*
X122214114Y-118819437D01*
X122213260Y-118817374D01*
X122120238Y-118678156D01*
X122001844Y-118559762D01*
X121862626Y-118466740D01*
X121860561Y-118465884D01*
X122421912Y-117904533D01*
X122418107Y-117901284D01*
X122418098Y-117901277D01*
X122200015Y-117767636D01*
X122200012Y-117767634D01*
X121963702Y-117669752D01*
X121714988Y-117610042D01*
X121714989Y-117610042D01*
X121460000Y-117589975D01*
X121205010Y-117610042D01*
X120956297Y-117669752D01*
X120719987Y-117767634D01*
X120719984Y-117767636D01*
X120501893Y-117901282D01*
X120498086Y-117904532D01*
X121059438Y-118465884D01*
X121057374Y-118466740D01*
X120918156Y-118559762D01*
X120799762Y-118678156D01*
X120706740Y-118817374D01*
X120705884Y-118819438D01*
X120144532Y-118258086D01*
X120141282Y-118261893D01*
X120007636Y-118479984D01*
X120007634Y-118479987D01*
X119909752Y-118716297D01*
X119850042Y-118965010D01*
X119829975Y-119220000D01*
X118010024Y-119220000D01*
X117989957Y-118965010D01*
X117930247Y-118716297D01*
X117832365Y-118479987D01*
X117832363Y-118479984D01*
X117698719Y-118261897D01*
X117695465Y-118258087D01*
X117134114Y-118819437D01*
X117133260Y-118817374D01*
X117040238Y-118678156D01*
X116921844Y-118559762D01*
X116782626Y-118466740D01*
X116780561Y-118465884D01*
X117341912Y-117904533D01*
X117338107Y-117901284D01*
X117338098Y-117901277D01*
X117120015Y-117767636D01*
X117120012Y-117767634D01*
X116883702Y-117669752D01*
X116634988Y-117610042D01*
X116634989Y-117610042D01*
X116380000Y-117589975D01*
X116125010Y-117610042D01*
X115876297Y-117669752D01*
X115639987Y-117767634D01*
X115639984Y-117767636D01*
X115421893Y-117901282D01*
X115418086Y-117904532D01*
X115979438Y-118465884D01*
X115977374Y-118466740D01*
X115838156Y-118559762D01*
X115719762Y-118678156D01*
X115626740Y-118817374D01*
X115625884Y-118819438D01*
X115064532Y-118258086D01*
X115061282Y-118261893D01*
X114927636Y-118479984D01*
X114925423Y-118484328D01*
X114923557Y-118483377D01*
X114885211Y-118530954D01*
X114818915Y-118553013D01*
X114751217Y-118535728D01*
X114703611Y-118484587D01*
X114690500Y-118429092D01*
X114690500Y-116680000D01*
X117389783Y-116680000D01*
X117408623Y-116919382D01*
X117464674Y-117152853D01*
X117464678Y-117152865D01*
X117556565Y-117374702D01*
X117682026Y-117579436D01*
X117682028Y-117579439D01*
X117837973Y-117762027D01*
X118020561Y-117917972D01*
X118020563Y-117917973D01*
X118225297Y-118043434D01*
X118283973Y-118067738D01*
X118447137Y-118135323D01*
X118680621Y-118191377D01*
X118920000Y-118210217D01*
X119159379Y-118191377D01*
X119392863Y-118135323D01*
X119614704Y-118043433D01*
X119819439Y-117917972D01*
X120002027Y-117762027D01*
X120157972Y-117579439D01*
X120283433Y-117374704D01*
X120375323Y-117152863D01*
X120431377Y-116919379D01*
X120450217Y-116680000D01*
X120431377Y-116440621D01*
X120375323Y-116207137D01*
X120323508Y-116082047D01*
X120283434Y-115985297D01*
X120157973Y-115780563D01*
X120157972Y-115780561D01*
X120002027Y-115597973D01*
X119819439Y-115442028D01*
X119819436Y-115442026D01*
X119614702Y-115316565D01*
X119392865Y-115224678D01*
X119392867Y-115224678D01*
X119392863Y-115224677D01*
X119392859Y-115224676D01*
X119392853Y-115224674D01*
X119159382Y-115168623D01*
X118920000Y-115149783D01*
X118680617Y-115168623D01*
X118447146Y-115224674D01*
X118447134Y-115224678D01*
X118225297Y-115316565D01*
X118020563Y-115442026D01*
X117837973Y-115597973D01*
X117682026Y-115780563D01*
X117556565Y-115985297D01*
X117464678Y-116207134D01*
X117464674Y-116207146D01*
X117408623Y-116440617D01*
X117389783Y-116680000D01*
X114690500Y-116680000D01*
X114690500Y-114930907D01*
X114710185Y-114863868D01*
X114762989Y-114818113D01*
X114832147Y-114808169D01*
X114895703Y-114837194D01*
X114923974Y-114876410D01*
X114925423Y-114875672D01*
X114927636Y-114880015D01*
X115061277Y-115098098D01*
X115061284Y-115098107D01*
X115064533Y-115101912D01*
X115625884Y-114540560D01*
X115626740Y-114542626D01*
X115719762Y-114681844D01*
X115838156Y-114800238D01*
X115977374Y-114893260D01*
X115979437Y-114894114D01*
X115418087Y-115455465D01*
X115421897Y-115458719D01*
X115639984Y-115592363D01*
X115639987Y-115592365D01*
X115876297Y-115690247D01*
X116125011Y-115749957D01*
X116125010Y-115749957D01*
X116380000Y-115770024D01*
X116634989Y-115749957D01*
X116883702Y-115690247D01*
X117120012Y-115592365D01*
X117120015Y-115592363D01*
X117338095Y-115458724D01*
X117338110Y-115458713D01*
X117341911Y-115455466D01*
X117341911Y-115455464D01*
X116780562Y-114894114D01*
X116782626Y-114893260D01*
X116921844Y-114800238D01*
X117040238Y-114681844D01*
X117133260Y-114542626D01*
X117134114Y-114540561D01*
X117695464Y-115101911D01*
X117695466Y-115101911D01*
X117698713Y-115098110D01*
X117698724Y-115098095D01*
X117832363Y-114880015D01*
X117832365Y-114880012D01*
X117930247Y-114643702D01*
X117989957Y-114394989D01*
X118010024Y-114140000D01*
X119829975Y-114140000D01*
X119850042Y-114394989D01*
X119909752Y-114643702D01*
X120007634Y-114880012D01*
X120007636Y-114880015D01*
X120141277Y-115098098D01*
X120141284Y-115098107D01*
X120144533Y-115101912D01*
X120705884Y-114540560D01*
X120706740Y-114542626D01*
X120799762Y-114681844D01*
X120918156Y-114800238D01*
X121057374Y-114893260D01*
X121059437Y-114894114D01*
X120498087Y-115455465D01*
X120501897Y-115458719D01*
X120719984Y-115592363D01*
X120719987Y-115592365D01*
X120956297Y-115690247D01*
X121205011Y-115749957D01*
X121205010Y-115749957D01*
X121460000Y-115770024D01*
X121714989Y-115749957D01*
X121963702Y-115690247D01*
X122200012Y-115592365D01*
X122200015Y-115592363D01*
X122418095Y-115458724D01*
X122418110Y-115458713D01*
X122421911Y-115455466D01*
X122421911Y-115455464D01*
X121860562Y-114894114D01*
X121862626Y-114893260D01*
X122001844Y-114800238D01*
X122120238Y-114681844D01*
X122213260Y-114542626D01*
X122214114Y-114540561D01*
X122775464Y-115101911D01*
X122775466Y-115101911D01*
X122778713Y-115098110D01*
X122778724Y-115098095D01*
X122912363Y-114880015D01*
X122912365Y-114880012D01*
X123010247Y-114643702D01*
X123069957Y-114394989D01*
X123074846Y-114332870D01*
X128179500Y-114332870D01*
X128179501Y-114332876D01*
X128185908Y-114392483D01*
X128236202Y-114527328D01*
X128236206Y-114527335D01*
X128322452Y-114642544D01*
X128322455Y-114642547D01*
X128437664Y-114728793D01*
X128437671Y-114728797D01*
X128437674Y-114728798D01*
X128569598Y-114778002D01*
X128625531Y-114819873D01*
X128649949Y-114885337D01*
X128635098Y-114953610D01*
X128613947Y-114981865D01*
X128491886Y-115103926D01*
X128356400Y-115297420D01*
X128356399Y-115297422D01*
X128256570Y-115511507D01*
X128256567Y-115511513D01*
X128199364Y-115724999D01*
X128199364Y-115725000D01*
X129096988Y-115725000D01*
X129064075Y-115782007D01*
X129030000Y-115909174D01*
X129030000Y-116040826D01*
X129064075Y-116167993D01*
X129096988Y-116225000D01*
X128199364Y-116225000D01*
X128256567Y-116438486D01*
X128256570Y-116438492D01*
X128356399Y-116652578D01*
X128491894Y-116846082D01*
X128658917Y-117013105D01*
X128852421Y-117148600D01*
X129066507Y-117248429D01*
X129066516Y-117248433D01*
X129280000Y-117305634D01*
X129280000Y-116408012D01*
X129337007Y-116440925D01*
X129464174Y-116475000D01*
X129595826Y-116475000D01*
X129722993Y-116440925D01*
X129780000Y-116408012D01*
X129780000Y-117305633D01*
X129993483Y-117248433D01*
X129993492Y-117248429D01*
X130207578Y-117148600D01*
X130401082Y-117013105D01*
X130568105Y-116846082D01*
X130703600Y-116652578D01*
X130803429Y-116438492D01*
X130803432Y-116438486D01*
X130860636Y-116225000D01*
X129963012Y-116225000D01*
X129995925Y-116167993D01*
X130030000Y-116040826D01*
X130030000Y-115909174D01*
X129995925Y-115782007D01*
X129963012Y-115725000D01*
X130860636Y-115725000D01*
X130860635Y-115724999D01*
X130803432Y-115511513D01*
X130803429Y-115511507D01*
X130703600Y-115297422D01*
X130703599Y-115297420D01*
X130568113Y-115103926D01*
X130568108Y-115103920D01*
X130446053Y-114981865D01*
X130444395Y-114978828D01*
X139699785Y-114978828D01*
X139719980Y-115158074D01*
X139719981Y-115158079D01*
X139779561Y-115328348D01*
X139859434Y-115455464D01*
X139875534Y-115481087D01*
X140003088Y-115608641D01*
X140155828Y-115704614D01*
X140214088Y-115725000D01*
X140326095Y-115764193D01*
X140326100Y-115764194D01*
X140505346Y-115784390D01*
X140505350Y-115784390D01*
X140505354Y-115784390D01*
X140684599Y-115764194D01*
X140684602Y-115764193D01*
X140684605Y-115764193D01*
X140854872Y-115704614D01*
X141007612Y-115608641D01*
X141135166Y-115481087D01*
X141231139Y-115328347D01*
X141290718Y-115158080D01*
X141296820Y-115103926D01*
X141310915Y-114978828D01*
X141310915Y-114978821D01*
X141290719Y-114799575D01*
X141290716Y-114799562D01*
X141236173Y-114643689D01*
X141232611Y-114573910D01*
X141248222Y-114536760D01*
X141253005Y-114529149D01*
X141312584Y-114358882D01*
X141312585Y-114358876D01*
X141332781Y-114179630D01*
X141332781Y-114179623D01*
X141312565Y-114000200D01*
X141324619Y-113931379D01*
X141371969Y-113879999D01*
X141421900Y-113863097D01*
X141491990Y-113855200D01*
X141579249Y-113845369D01*
X141579252Y-113845368D01*
X141579255Y-113845368D01*
X141749522Y-113785789D01*
X141902262Y-113689816D01*
X142029816Y-113562262D01*
X142125789Y-113409522D01*
X142185368Y-113239255D01*
X142205565Y-113060000D01*
X142205065Y-113055565D01*
X142185369Y-112880750D01*
X142185368Y-112880745D01*
X142168514Y-112832578D01*
X142125789Y-112710478D01*
X142111436Y-112687636D01*
X142056071Y-112599523D01*
X142029816Y-112557738D01*
X142029815Y-112557737D01*
X142025475Y-112552295D01*
X142027211Y-112550910D01*
X141998807Y-112498891D01*
X142002931Y-112431579D01*
X142004875Y-112426026D01*
X142008880Y-112390478D01*
X142025072Y-112246774D01*
X142025072Y-112246767D01*
X142014733Y-112155001D01*
X171324843Y-112155001D01*
X171345430Y-112390315D01*
X171345432Y-112390326D01*
X171406566Y-112618483D01*
X171406570Y-112618492D01*
X171506400Y-112832579D01*
X171506402Y-112832583D01*
X171565072Y-112916373D01*
X171565073Y-112916373D01*
X172197037Y-112284409D01*
X172214075Y-112347993D01*
X172279901Y-112462007D01*
X172372993Y-112555099D01*
X172487007Y-112620925D01*
X172550590Y-112637962D01*
X171918625Y-113269925D01*
X172002421Y-113328599D01*
X172216507Y-113428429D01*
X172216516Y-113428433D01*
X172444673Y-113489567D01*
X172444684Y-113489569D01*
X172679998Y-113510157D01*
X172680002Y-113510157D01*
X172915315Y-113489569D01*
X172915326Y-113489567D01*
X173143483Y-113428433D01*
X173143492Y-113428429D01*
X173357578Y-113328600D01*
X173357582Y-113328598D01*
X173441373Y-113269926D01*
X173441373Y-113269925D01*
X172809409Y-112637962D01*
X172872993Y-112620925D01*
X172987007Y-112555099D01*
X173080099Y-112462007D01*
X173145925Y-112347993D01*
X173162962Y-112284409D01*
X173794925Y-112916373D01*
X173794926Y-112916373D01*
X173853598Y-112832582D01*
X173853600Y-112832578D01*
X173896768Y-112740003D01*
X178714435Y-112740003D01*
X178734630Y-112919249D01*
X178734631Y-112919254D01*
X178794211Y-113089523D01*
X178852254Y-113181897D01*
X178890184Y-113242262D01*
X179017738Y-113369816D01*
X179170478Y-113465789D01*
X179340745Y-113525368D01*
X179340750Y-113525369D01*
X179519996Y-113545565D01*
X179520000Y-113545565D01*
X179520004Y-113545565D01*
X179699249Y-113525369D01*
X179699252Y-113525368D01*
X179699255Y-113525368D01*
X179869522Y-113465789D01*
X180022262Y-113369816D01*
X180149816Y-113242262D01*
X180245789Y-113089522D01*
X180305368Y-112919255D01*
X180305693Y-112916373D01*
X180325565Y-112740003D01*
X180325565Y-112739996D01*
X180305369Y-112560750D01*
X180305368Y-112560745D01*
X180301927Y-112550910D01*
X180245789Y-112390478D01*
X180245693Y-112390326D01*
X180206582Y-112328080D01*
X180149816Y-112237738D01*
X180022262Y-112110184D01*
X179991586Y-112090909D01*
X179869523Y-112014211D01*
X179699254Y-111954631D01*
X179699249Y-111954630D01*
X179520004Y-111934435D01*
X179519996Y-111934435D01*
X179340750Y-111954630D01*
X179340745Y-111954631D01*
X179170476Y-112014211D01*
X179017737Y-112110184D01*
X178890184Y-112237737D01*
X178794211Y-112390476D01*
X178734631Y-112560745D01*
X178734630Y-112560750D01*
X178714435Y-112739996D01*
X178714435Y-112740003D01*
X173896768Y-112740003D01*
X173953429Y-112618492D01*
X173953433Y-112618483D01*
X174014567Y-112390326D01*
X174014569Y-112390315D01*
X174035157Y-112155001D01*
X174035157Y-112154998D01*
X174014569Y-111919684D01*
X174014567Y-111919673D01*
X173953433Y-111691516D01*
X173953429Y-111691507D01*
X173853600Y-111477423D01*
X173853599Y-111477421D01*
X173794925Y-111393626D01*
X173794925Y-111393625D01*
X173162962Y-112025589D01*
X173145925Y-111962007D01*
X173080099Y-111847993D01*
X172987007Y-111754901D01*
X172872993Y-111689075D01*
X172809410Y-111672037D01*
X173441373Y-111040073D01*
X173441373Y-111040072D01*
X173357583Y-110981402D01*
X173357579Y-110981400D01*
X173143492Y-110881570D01*
X173143483Y-110881566D01*
X172915326Y-110820432D01*
X172915315Y-110820430D01*
X172680002Y-110799843D01*
X172679998Y-110799843D01*
X172444684Y-110820430D01*
X172444673Y-110820432D01*
X172216516Y-110881566D01*
X172216507Y-110881570D01*
X172002419Y-110981401D01*
X171918625Y-111040072D01*
X172550590Y-111672037D01*
X172487007Y-111689075D01*
X172372993Y-111754901D01*
X172279901Y-111847993D01*
X172214075Y-111962007D01*
X172197037Y-112025590D01*
X171565072Y-111393625D01*
X171506401Y-111477419D01*
X171406570Y-111691507D01*
X171406566Y-111691516D01*
X171345432Y-111919673D01*
X171345430Y-111919684D01*
X171324843Y-112154998D01*
X171324843Y-112155001D01*
X142014733Y-112155001D01*
X142004876Y-112067521D01*
X142004875Y-112067516D01*
X141945295Y-111897247D01*
X141906089Y-111834851D01*
X141849323Y-111744509D01*
X141721769Y-111616955D01*
X141569030Y-111520982D01*
X141398761Y-111461402D01*
X141398756Y-111461401D01*
X141219511Y-111441206D01*
X141219503Y-111441206D01*
X141040257Y-111461401D01*
X141040252Y-111461402D01*
X140869983Y-111520982D01*
X140717244Y-111616955D01*
X140589691Y-111744508D01*
X140493718Y-111897247D01*
X140434138Y-112067516D01*
X140434137Y-112067521D01*
X140413942Y-112246767D01*
X140413942Y-112246774D01*
X140434137Y-112426020D01*
X140434138Y-112426025D01*
X140493718Y-112596294D01*
X140589691Y-112749033D01*
X140594032Y-112754476D01*
X140592295Y-112755861D01*
X140620699Y-112807879D01*
X140616576Y-112875188D01*
X140614631Y-112880746D01*
X140594435Y-113059996D01*
X140594435Y-113060004D01*
X140614650Y-113239426D01*
X140602595Y-113308248D01*
X140555246Y-113359627D01*
X140505314Y-113376529D01*
X140347965Y-113394257D01*
X140347961Y-113394258D01*
X140177692Y-113453838D01*
X140024953Y-113549811D01*
X139897400Y-113677364D01*
X139801427Y-113830103D01*
X139741847Y-114000372D01*
X139741846Y-114000377D01*
X139721651Y-114179623D01*
X139721651Y-114179630D01*
X139741846Y-114358876D01*
X139741849Y-114358889D01*
X139796392Y-114514762D01*
X139799954Y-114584541D01*
X139784347Y-114621686D01*
X139779559Y-114629306D01*
X139719983Y-114799562D01*
X139719980Y-114799575D01*
X139699785Y-114978821D01*
X139699785Y-114978828D01*
X130444395Y-114978828D01*
X130412568Y-114920542D01*
X130417552Y-114850850D01*
X130459424Y-114794917D01*
X130490400Y-114778002D01*
X130622331Y-114728796D01*
X130737546Y-114642546D01*
X130823796Y-114527331D01*
X130874091Y-114392483D01*
X130880500Y-114332873D01*
X130880499Y-112537128D01*
X130874091Y-112477517D01*
X130868306Y-112462007D01*
X130823797Y-112342671D01*
X130823793Y-112342664D01*
X130754427Y-112250003D01*
X133779435Y-112250003D01*
X133799630Y-112429249D01*
X133799631Y-112429254D01*
X133859211Y-112599523D01*
X133928928Y-112710476D01*
X133955184Y-112752262D01*
X134082738Y-112879816D01*
X134235478Y-112975789D01*
X134405745Y-113035368D01*
X134405750Y-113035369D01*
X134584996Y-113055565D01*
X134585000Y-113055565D01*
X134585004Y-113055565D01*
X134764249Y-113035369D01*
X134764252Y-113035368D01*
X134764255Y-113035368D01*
X134934522Y-112975789D01*
X135087262Y-112879816D01*
X135214816Y-112752262D01*
X135310789Y-112599522D01*
X135370368Y-112429255D01*
X135370732Y-112426025D01*
X135390565Y-112250003D01*
X135390565Y-112249996D01*
X135370369Y-112070750D01*
X135370368Y-112070745D01*
X135329738Y-111954631D01*
X135310789Y-111900478D01*
X135214816Y-111747738D01*
X135087262Y-111620184D01*
X135082123Y-111616955D01*
X134934523Y-111524211D01*
X134764254Y-111464631D01*
X134764249Y-111464630D01*
X134585004Y-111444435D01*
X134584996Y-111444435D01*
X134405750Y-111464630D01*
X134405745Y-111464631D01*
X134235476Y-111524211D01*
X134082737Y-111620184D01*
X133955184Y-111747737D01*
X133859211Y-111900476D01*
X133799631Y-112070745D01*
X133799630Y-112070750D01*
X133779435Y-112249996D01*
X133779435Y-112250003D01*
X130754427Y-112250003D01*
X130737547Y-112227455D01*
X130737544Y-112227452D01*
X130622335Y-112141206D01*
X130622328Y-112141202D01*
X130487482Y-112090908D01*
X130487483Y-112090908D01*
X130427883Y-112084501D01*
X130427881Y-112084500D01*
X130427873Y-112084500D01*
X130427864Y-112084500D01*
X128632129Y-112084500D01*
X128632123Y-112084501D01*
X128572516Y-112090908D01*
X128437671Y-112141202D01*
X128437664Y-112141206D01*
X128322455Y-112227452D01*
X128322452Y-112227455D01*
X128236206Y-112342664D01*
X128236202Y-112342671D01*
X128185908Y-112477517D01*
X128179501Y-112537116D01*
X128179501Y-112537123D01*
X128179500Y-112537135D01*
X128179500Y-114332870D01*
X123074846Y-114332870D01*
X123090024Y-114140000D01*
X123069957Y-113885010D01*
X123010247Y-113636297D01*
X122912365Y-113399987D01*
X122912363Y-113399984D01*
X122778719Y-113181897D01*
X122775465Y-113178087D01*
X122214114Y-113739437D01*
X122213260Y-113737374D01*
X122120238Y-113598156D01*
X122001844Y-113479762D01*
X121862626Y-113386740D01*
X121860561Y-113385884D01*
X122421912Y-112824533D01*
X122418107Y-112821284D01*
X122418098Y-112821277D01*
X122200015Y-112687636D01*
X122200012Y-112687634D01*
X121963702Y-112589752D01*
X121714988Y-112530042D01*
X121714989Y-112530042D01*
X121460000Y-112509975D01*
X121205010Y-112530042D01*
X120956297Y-112589752D01*
X120719987Y-112687634D01*
X120719984Y-112687636D01*
X120501893Y-112821282D01*
X120498086Y-112824532D01*
X121059438Y-113385884D01*
X121057374Y-113386740D01*
X120918156Y-113479762D01*
X120799762Y-113598156D01*
X120706740Y-113737374D01*
X120705884Y-113739438D01*
X120144532Y-113178086D01*
X120141282Y-113181893D01*
X120007636Y-113399984D01*
X120007634Y-113399987D01*
X119909752Y-113636297D01*
X119850042Y-113885010D01*
X119829975Y-114140000D01*
X118010024Y-114140000D01*
X117989957Y-113885010D01*
X117930247Y-113636297D01*
X117832365Y-113399987D01*
X117832363Y-113399984D01*
X117698719Y-113181897D01*
X117695465Y-113178087D01*
X117134114Y-113739437D01*
X117133260Y-113737374D01*
X117040238Y-113598156D01*
X116921844Y-113479762D01*
X116782626Y-113386740D01*
X116780561Y-113385884D01*
X117341912Y-112824533D01*
X117338107Y-112821284D01*
X117338098Y-112821277D01*
X117120015Y-112687636D01*
X117120012Y-112687634D01*
X116883702Y-112589752D01*
X116634988Y-112530042D01*
X116634989Y-112530042D01*
X116380000Y-112509975D01*
X116125010Y-112530042D01*
X115876297Y-112589752D01*
X115639987Y-112687634D01*
X115639984Y-112687636D01*
X115421893Y-112821282D01*
X115418086Y-112824532D01*
X115979438Y-113385884D01*
X115977374Y-113386740D01*
X115838156Y-113479762D01*
X115719762Y-113598156D01*
X115626740Y-113737374D01*
X115625884Y-113739438D01*
X115064532Y-113178086D01*
X115061282Y-113181893D01*
X114927636Y-113399984D01*
X114925423Y-113404328D01*
X114923557Y-113403377D01*
X114885211Y-113450954D01*
X114818915Y-113473013D01*
X114751217Y-113455728D01*
X114703611Y-113404587D01*
X114690500Y-113349092D01*
X114690500Y-109000003D01*
X117154435Y-109000003D01*
X117174630Y-109179249D01*
X117174631Y-109179254D01*
X117234211Y-109349523D01*
X117330184Y-109502262D01*
X117457738Y-109629816D01*
X117610478Y-109725789D01*
X117780745Y-109785368D01*
X117780750Y-109785369D01*
X117959996Y-109805565D01*
X117960000Y-109805565D01*
X117960004Y-109805565D01*
X118139249Y-109785369D01*
X118139252Y-109785368D01*
X118139255Y-109785368D01*
X118309522Y-109725789D01*
X118462262Y-109629816D01*
X118572075Y-109520003D01*
X137494435Y-109520003D01*
X137514630Y-109699249D01*
X137514631Y-109699254D01*
X137574211Y-109869523D01*
X137670184Y-110022262D01*
X137797738Y-110149816D01*
X137950478Y-110245789D01*
X138120745Y-110305368D01*
X138120750Y-110305369D01*
X138299996Y-110325565D01*
X138300000Y-110325565D01*
X138300004Y-110325565D01*
X138479249Y-110305369D01*
X138479252Y-110305368D01*
X138479255Y-110305368D01*
X138649522Y-110245789D01*
X138802262Y-110149816D01*
X138929816Y-110022262D01*
X139025789Y-109869522D01*
X139085368Y-109699255D01*
X139105565Y-109520000D01*
X139103566Y-109502262D01*
X139085369Y-109340750D01*
X139085368Y-109340745D01*
X139025788Y-109170476D01*
X138929815Y-109017737D01*
X138802262Y-108890184D01*
X138649523Y-108794211D01*
X138479254Y-108734631D01*
X138479249Y-108734630D01*
X138300004Y-108714435D01*
X138299996Y-108714435D01*
X138120750Y-108734630D01*
X138120745Y-108734631D01*
X137950476Y-108794211D01*
X137797737Y-108890184D01*
X137670184Y-109017737D01*
X137574211Y-109170476D01*
X137514631Y-109340745D01*
X137514630Y-109340750D01*
X137494435Y-109519996D01*
X137494435Y-109520003D01*
X118572075Y-109520003D01*
X118589816Y-109502262D01*
X118685789Y-109349522D01*
X118745368Y-109179255D01*
X118746357Y-109170476D01*
X118765565Y-109000003D01*
X118765565Y-108999996D01*
X118745369Y-108820750D01*
X118745368Y-108820745D01*
X118736083Y-108794211D01*
X118685789Y-108650478D01*
X118589816Y-108497738D01*
X118462262Y-108370184D01*
X118309523Y-108274211D01*
X118139254Y-108214631D01*
X118139249Y-108214630D01*
X117960004Y-108194435D01*
X117959996Y-108194435D01*
X117780750Y-108214630D01*
X117780745Y-108214631D01*
X117610476Y-108274211D01*
X117457737Y-108370184D01*
X117330184Y-108497737D01*
X117234211Y-108650476D01*
X117174631Y-108820745D01*
X117174630Y-108820750D01*
X117154435Y-108999996D01*
X117154435Y-109000003D01*
X114690500Y-109000003D01*
X114690500Y-107950003D01*
X119434435Y-107950003D01*
X119454630Y-108129249D01*
X119454631Y-108129254D01*
X119514211Y-108299523D01*
X119558611Y-108370184D01*
X119610184Y-108452262D01*
X119737738Y-108579816D01*
X119828080Y-108636582D01*
X119850192Y-108650476D01*
X119890478Y-108675789D01*
X120000922Y-108714435D01*
X120060745Y-108735368D01*
X120060750Y-108735369D01*
X120239996Y-108755565D01*
X120240000Y-108755565D01*
X120240004Y-108755565D01*
X120419249Y-108735369D01*
X120419252Y-108735368D01*
X120419255Y-108735368D01*
X120589522Y-108675789D01*
X120742262Y-108579816D01*
X120869816Y-108452262D01*
X120965789Y-108299522D01*
X121025368Y-108129255D01*
X121045565Y-107950000D01*
X121025368Y-107770745D01*
X120965789Y-107600478D01*
X120869816Y-107447738D01*
X120742262Y-107320184D01*
X120589523Y-107224211D01*
X120419254Y-107164631D01*
X120419249Y-107164630D01*
X120240004Y-107144435D01*
X120239996Y-107144435D01*
X120060750Y-107164630D01*
X120060745Y-107164631D01*
X119890476Y-107224211D01*
X119737737Y-107320184D01*
X119610184Y-107447737D01*
X119514211Y-107600476D01*
X119454631Y-107770745D01*
X119454630Y-107770750D01*
X119434435Y-107949996D01*
X119434435Y-107950003D01*
X114690500Y-107950003D01*
X114690500Y-106010003D01*
X138589435Y-106010003D01*
X138609630Y-106189249D01*
X138609631Y-106189254D01*
X138669211Y-106359523D01*
X138713495Y-106430000D01*
X138765184Y-106512262D01*
X138892738Y-106639816D01*
X138983080Y-106696582D01*
X139024067Y-106722336D01*
X139045478Y-106735789D01*
X139158520Y-106775344D01*
X139215745Y-106795368D01*
X139215750Y-106795369D01*
X139394996Y-106815565D01*
X139395000Y-106815565D01*
X139395004Y-106815565D01*
X139574249Y-106795369D01*
X139574250Y-106795368D01*
X139574255Y-106795368D01*
X139665908Y-106763296D01*
X139735684Y-106759734D01*
X139772833Y-106775344D01*
X139804702Y-106795369D01*
X139841213Y-106818310D01*
X140011480Y-106877889D01*
X140011485Y-106877890D01*
X140190731Y-106898086D01*
X140190735Y-106898086D01*
X140190739Y-106898086D01*
X140369984Y-106877890D01*
X140369987Y-106877889D01*
X140369990Y-106877889D01*
X140540257Y-106818310D01*
X140692997Y-106722337D01*
X140820551Y-106594783D01*
X140916524Y-106442043D01*
X140920737Y-106430003D01*
X177074435Y-106430003D01*
X177094630Y-106609249D01*
X177094631Y-106609254D01*
X177154211Y-106779523D01*
X177178583Y-106818310D01*
X177250184Y-106932262D01*
X177377738Y-107059816D01*
X177530478Y-107155789D01*
X177700745Y-107215368D01*
X177700750Y-107215369D01*
X177879996Y-107235565D01*
X177880000Y-107235565D01*
X177880004Y-107235565D01*
X178059249Y-107215369D01*
X178059252Y-107215368D01*
X178059255Y-107215368D01*
X178229522Y-107155789D01*
X178382262Y-107059816D01*
X178509816Y-106932262D01*
X178605789Y-106779522D01*
X178665368Y-106609255D01*
X178666999Y-106594783D01*
X178685565Y-106430003D01*
X178685565Y-106429996D01*
X178665369Y-106250750D01*
X178665368Y-106250745D01*
X178610003Y-106092521D01*
X178605789Y-106080478D01*
X178509816Y-105927738D01*
X178382262Y-105800184D01*
X178291250Y-105742997D01*
X178229523Y-105704211D01*
X178059254Y-105644631D01*
X178059249Y-105644630D01*
X177880004Y-105624435D01*
X177879996Y-105624435D01*
X177700750Y-105644630D01*
X177700745Y-105644631D01*
X177530476Y-105704211D01*
X177377737Y-105800184D01*
X177250184Y-105927737D01*
X177154211Y-106080476D01*
X177094631Y-106250745D01*
X177094630Y-106250750D01*
X177074435Y-106429996D01*
X177074435Y-106430003D01*
X140920737Y-106430003D01*
X140976103Y-106271776D01*
X140985401Y-106189254D01*
X140996300Y-106092524D01*
X140996300Y-106092517D01*
X140976104Y-105913271D01*
X140976103Y-105913266D01*
X140916523Y-105742997D01*
X140877317Y-105680601D01*
X140820551Y-105590259D01*
X140692997Y-105462705D01*
X140540258Y-105366732D01*
X140369989Y-105307152D01*
X140369984Y-105307151D01*
X140190739Y-105286956D01*
X140190731Y-105286956D01*
X140011481Y-105307152D01*
X140011480Y-105307152D01*
X139919824Y-105339223D01*
X139850045Y-105342784D01*
X139812899Y-105327175D01*
X139744523Y-105284211D01*
X139574254Y-105224631D01*
X139574249Y-105224630D01*
X139395004Y-105204435D01*
X139394996Y-105204435D01*
X139215750Y-105224630D01*
X139215745Y-105224631D01*
X139045476Y-105284211D01*
X138892737Y-105380184D01*
X138765184Y-105507737D01*
X138669211Y-105660476D01*
X138609631Y-105830745D01*
X138609630Y-105830750D01*
X138589435Y-106009996D01*
X138589435Y-106010003D01*
X114690500Y-106010003D01*
X114690500Y-103672503D01*
X133896935Y-103672503D01*
X133917130Y-103851749D01*
X133917131Y-103851754D01*
X133976711Y-104022023D01*
X134072684Y-104174762D01*
X134200238Y-104302316D01*
X134290580Y-104359082D01*
X134348642Y-104395565D01*
X134352978Y-104398289D01*
X134523245Y-104457868D01*
X134523250Y-104457869D01*
X134702496Y-104478065D01*
X134702500Y-104478065D01*
X134702504Y-104478065D01*
X134881749Y-104457869D01*
X134881752Y-104457868D01*
X134881755Y-104457868D01*
X135052022Y-104398289D01*
X135204762Y-104302316D01*
X135332316Y-104174762D01*
X135428289Y-104022022D01*
X135487868Y-103851755D01*
X135489469Y-103837546D01*
X135508065Y-103672503D01*
X135508065Y-103672496D01*
X135498770Y-103590003D01*
X144794435Y-103590003D01*
X144814630Y-103769249D01*
X144814631Y-103769254D01*
X144874211Y-103939523D01*
X144926049Y-104022022D01*
X144970184Y-104092262D01*
X145097738Y-104219816D01*
X145250478Y-104315789D01*
X145420745Y-104375368D01*
X145420750Y-104375369D01*
X145599996Y-104395565D01*
X145600000Y-104395565D01*
X145600004Y-104395565D01*
X145779249Y-104375369D01*
X145779252Y-104375368D01*
X145779255Y-104375368D01*
X145949522Y-104315789D01*
X146102262Y-104219816D01*
X146229816Y-104092262D01*
X146325789Y-103939522D01*
X146385368Y-103769255D01*
X146390655Y-103722331D01*
X146405565Y-103590003D01*
X146405565Y-103589996D01*
X146398565Y-103527870D01*
X152279500Y-103527870D01*
X152279501Y-103527876D01*
X152285908Y-103587483D01*
X152336202Y-103722328D01*
X152336206Y-103722335D01*
X152422452Y-103837544D01*
X152422455Y-103837547D01*
X152537664Y-103923793D01*
X152537671Y-103923797D01*
X152672517Y-103974091D01*
X152672516Y-103974091D01*
X152679444Y-103974835D01*
X152732127Y-103980500D01*
X154527872Y-103980499D01*
X154587483Y-103974091D01*
X154722331Y-103923796D01*
X154837546Y-103837546D01*
X154923796Y-103722331D01*
X154974091Y-103587483D01*
X154980500Y-103527873D01*
X154980499Y-102630000D01*
X171324341Y-102630000D01*
X171344936Y-102865403D01*
X171344938Y-102865413D01*
X171406094Y-103093655D01*
X171406096Y-103093659D01*
X171406097Y-103093663D01*
X171474557Y-103240476D01*
X171505965Y-103307830D01*
X171505967Y-103307834D01*
X171578027Y-103410745D01*
X171641505Y-103501401D01*
X171808599Y-103668495D01*
X171905384Y-103736265D01*
X172002165Y-103804032D01*
X172002167Y-103804033D01*
X172002170Y-103804035D01*
X172216337Y-103903903D01*
X172444592Y-103965063D01*
X172621034Y-103980500D01*
X172679999Y-103985659D01*
X172680000Y-103985659D01*
X172680001Y-103985659D01*
X172738966Y-103980500D01*
X172915408Y-103965063D01*
X173143663Y-103903903D01*
X173357830Y-103804035D01*
X173551401Y-103668495D01*
X173718495Y-103501401D01*
X173854035Y-103307830D01*
X173932294Y-103140003D01*
X178574435Y-103140003D01*
X178594630Y-103319249D01*
X178594631Y-103319254D01*
X178654211Y-103489523D01*
X178717347Y-103590003D01*
X178750184Y-103642262D01*
X178877738Y-103769816D01*
X178932196Y-103804034D01*
X178985529Y-103837546D01*
X179030478Y-103865789D01*
X179196255Y-103923797D01*
X179200745Y-103925368D01*
X179200750Y-103925369D01*
X179379996Y-103945565D01*
X179380000Y-103945565D01*
X179380004Y-103945565D01*
X179559249Y-103925369D01*
X179559252Y-103925368D01*
X179559255Y-103925368D01*
X179729522Y-103865789D01*
X179882262Y-103769816D01*
X180009816Y-103642262D01*
X180105789Y-103489522D01*
X180165368Y-103319255D01*
X180165369Y-103319249D01*
X180185565Y-103140003D01*
X180185565Y-103139996D01*
X180165369Y-102960750D01*
X180165368Y-102960745D01*
X180131589Y-102864211D01*
X180105789Y-102790478D01*
X180009816Y-102637738D01*
X179882262Y-102510184D01*
X179729523Y-102414211D01*
X179559254Y-102354631D01*
X179559249Y-102354630D01*
X179380004Y-102334435D01*
X179379996Y-102334435D01*
X179200750Y-102354630D01*
X179200745Y-102354631D01*
X179030476Y-102414211D01*
X178877737Y-102510184D01*
X178750184Y-102637737D01*
X178654211Y-102790476D01*
X178594631Y-102960745D01*
X178594630Y-102960750D01*
X178574435Y-103139996D01*
X178574435Y-103140003D01*
X173932294Y-103140003D01*
X173953903Y-103093663D01*
X174015063Y-102865408D01*
X174035659Y-102630000D01*
X174015063Y-102394592D01*
X173953903Y-102166337D01*
X173854035Y-101952171D01*
X173736724Y-101784632D01*
X173718494Y-101758597D01*
X173551402Y-101591506D01*
X173551395Y-101591501D01*
X173357834Y-101455967D01*
X173357830Y-101455965D01*
X173356550Y-101455368D01*
X173143663Y-101356097D01*
X173143659Y-101356096D01*
X173143655Y-101356094D01*
X172915413Y-101294938D01*
X172915403Y-101294936D01*
X172680001Y-101274341D01*
X172679999Y-101274341D01*
X172444596Y-101294936D01*
X172444586Y-101294938D01*
X172216344Y-101356094D01*
X172216335Y-101356098D01*
X172002171Y-101455964D01*
X172002169Y-101455965D01*
X171808597Y-101591505D01*
X171641505Y-101758597D01*
X171505965Y-101952169D01*
X171505964Y-101952171D01*
X171406098Y-102166335D01*
X171406094Y-102166344D01*
X171344938Y-102394586D01*
X171344936Y-102394596D01*
X171324341Y-102629999D01*
X171324341Y-102630000D01*
X154980499Y-102630000D01*
X154980499Y-101732128D01*
X154974091Y-101672517D01*
X154923796Y-101537669D01*
X154923795Y-101537668D01*
X154923793Y-101537664D01*
X154837547Y-101422455D01*
X154837544Y-101422452D01*
X154722335Y-101336206D01*
X154722328Y-101336202D01*
X154587482Y-101285908D01*
X154587483Y-101285908D01*
X154527883Y-101279501D01*
X154527881Y-101279500D01*
X154527873Y-101279500D01*
X154527864Y-101279500D01*
X152732129Y-101279500D01*
X152732123Y-101279501D01*
X152672516Y-101285908D01*
X152537671Y-101336202D01*
X152537664Y-101336206D01*
X152422455Y-101422452D01*
X152422452Y-101422455D01*
X152336206Y-101537664D01*
X152336202Y-101537671D01*
X152285908Y-101672517D01*
X152279501Y-101732116D01*
X152279501Y-101732123D01*
X152279500Y-101732135D01*
X152279500Y-103527870D01*
X146398565Y-103527870D01*
X146385369Y-103410750D01*
X146385368Y-103410745D01*
X146325788Y-103240476D01*
X146262652Y-103139996D01*
X146229816Y-103087738D01*
X146102262Y-102960184D01*
X146059879Y-102933553D01*
X145949523Y-102864211D01*
X145779254Y-102804631D01*
X145779249Y-102804630D01*
X145600004Y-102784435D01*
X145599996Y-102784435D01*
X145420750Y-102804630D01*
X145420745Y-102804631D01*
X145250476Y-102864211D01*
X145097737Y-102960184D01*
X144970184Y-103087737D01*
X144874211Y-103240476D01*
X144814631Y-103410745D01*
X144814630Y-103410750D01*
X144794435Y-103589996D01*
X144794435Y-103590003D01*
X135498770Y-103590003D01*
X135487869Y-103493250D01*
X135487868Y-103493245D01*
X135428289Y-103322978D01*
X135419473Y-103308948D01*
X135400472Y-103241711D01*
X135420839Y-103174876D01*
X135436785Y-103155293D01*
X135452082Y-103139996D01*
X135519816Y-103072262D01*
X135615789Y-102919522D01*
X135675368Y-102749255D01*
X135695565Y-102570000D01*
X135688825Y-102510184D01*
X135675369Y-102390750D01*
X135675368Y-102390745D01*
X135615789Y-102220478D01*
X135519816Y-102067738D01*
X135392262Y-101940184D01*
X135239523Y-101844211D01*
X135069254Y-101784631D01*
X135069249Y-101784630D01*
X134890004Y-101764435D01*
X134889996Y-101764435D01*
X134710750Y-101784630D01*
X134710745Y-101784631D01*
X134540476Y-101844211D01*
X134387737Y-101940184D01*
X134260184Y-102067737D01*
X134164211Y-102220476D01*
X134104631Y-102390745D01*
X134104630Y-102390750D01*
X134084435Y-102569996D01*
X134084435Y-102570003D01*
X134104630Y-102749249D01*
X134104631Y-102749254D01*
X134164211Y-102919523D01*
X134173027Y-102933553D01*
X134192027Y-103000790D01*
X134171659Y-103067625D01*
X134155715Y-103087205D01*
X134072685Y-103170236D01*
X134072684Y-103170237D01*
X133976711Y-103322976D01*
X133917131Y-103493245D01*
X133917130Y-103493250D01*
X133896935Y-103672496D01*
X133896935Y-103672503D01*
X114690500Y-103672503D01*
X114690500Y-100670003D01*
X139794435Y-100670003D01*
X139814630Y-100849249D01*
X139814631Y-100849254D01*
X139874211Y-101019523D01*
X139970184Y-101172262D01*
X140097738Y-101299816D01*
X140250478Y-101395789D01*
X140420745Y-101455368D01*
X140420750Y-101455369D01*
X140599996Y-101475565D01*
X140600000Y-101475565D01*
X140600004Y-101475565D01*
X140779249Y-101455369D01*
X140779252Y-101455368D01*
X140779255Y-101455368D01*
X140949522Y-101395789D01*
X141102262Y-101299816D01*
X141229816Y-101172262D01*
X141325789Y-101019522D01*
X141385368Y-100849255D01*
X141405565Y-100670000D01*
X141385368Y-100490745D01*
X141325789Y-100320478D01*
X141229816Y-100167738D01*
X141102262Y-100040184D01*
X140949523Y-99944211D01*
X140779254Y-99884631D01*
X140779249Y-99884630D01*
X140600004Y-99864435D01*
X140599996Y-99864435D01*
X140420750Y-99884630D01*
X140420745Y-99884631D01*
X140250476Y-99944211D01*
X140097737Y-100040184D01*
X139970184Y-100167737D01*
X139874211Y-100320476D01*
X139814631Y-100490745D01*
X139814630Y-100490750D01*
X139794435Y-100669996D01*
X139794435Y-100670003D01*
X114690500Y-100670003D01*
X114690500Y-99495003D01*
X142254435Y-99495003D01*
X142274630Y-99674249D01*
X142274631Y-99674254D01*
X142334211Y-99844523D01*
X142396850Y-99944211D01*
X142430184Y-99997262D01*
X142557738Y-100124816D01*
X142710478Y-100220789D01*
X142880745Y-100280368D01*
X142880750Y-100280369D01*
X143059996Y-100300565D01*
X143060000Y-100300565D01*
X143060004Y-100300565D01*
X143239249Y-100280369D01*
X143239252Y-100280368D01*
X143239255Y-100280368D01*
X143409522Y-100220789D01*
X143562262Y-100124816D01*
X143689816Y-99997262D01*
X143785789Y-99844522D01*
X143845368Y-99674255D01*
X143865565Y-99495000D01*
X143845368Y-99315745D01*
X143785789Y-99145478D01*
X143689816Y-98992738D01*
X143562262Y-98865184D01*
X143409523Y-98769211D01*
X143239254Y-98709631D01*
X143239249Y-98709630D01*
X143060004Y-98689435D01*
X143059996Y-98689435D01*
X142880750Y-98709630D01*
X142880745Y-98709631D01*
X142710476Y-98769211D01*
X142557737Y-98865184D01*
X142430184Y-98992737D01*
X142334211Y-99145476D01*
X142274631Y-99315745D01*
X142274630Y-99315750D01*
X142254435Y-99494996D01*
X142254435Y-99495003D01*
X114690500Y-99495003D01*
X114690500Y-97342218D01*
X114710185Y-97275179D01*
X114762989Y-97229424D01*
X114832147Y-97219480D01*
X114895703Y-97248505D01*
X114920228Y-97277429D01*
X114951280Y-97328102D01*
X114951284Y-97328107D01*
X114954533Y-97331912D01*
X115515884Y-96770560D01*
X115516740Y-96772626D01*
X115609762Y-96911844D01*
X115728156Y-97030238D01*
X115867374Y-97123260D01*
X115869437Y-97124114D01*
X115308087Y-97685465D01*
X115311897Y-97688719D01*
X115529984Y-97822363D01*
X115529987Y-97822365D01*
X115766297Y-97920247D01*
X116015011Y-97979957D01*
X116015010Y-97979957D01*
X116270000Y-98000024D01*
X116524989Y-97979957D01*
X116773702Y-97920247D01*
X117010012Y-97822365D01*
X117010015Y-97822363D01*
X117228095Y-97688724D01*
X117228110Y-97688713D01*
X117231911Y-97685466D01*
X117231911Y-97685464D01*
X116670562Y-97124114D01*
X116672626Y-97123260D01*
X116811844Y-97030238D01*
X116930238Y-96911844D01*
X117023260Y-96772626D01*
X117024114Y-96770561D01*
X117585464Y-97331911D01*
X117585466Y-97331911D01*
X117588713Y-97328110D01*
X117588724Y-97328095D01*
X117722363Y-97110015D01*
X117722365Y-97110012D01*
X117820247Y-96873702D01*
X117879957Y-96624989D01*
X117900024Y-96370000D01*
X119719975Y-96370000D01*
X119740042Y-96624989D01*
X119799752Y-96873702D01*
X119897634Y-97110012D01*
X119897636Y-97110015D01*
X120031277Y-97328098D01*
X120031284Y-97328107D01*
X120034533Y-97331912D01*
X120595884Y-96770560D01*
X120596740Y-96772626D01*
X120689762Y-96911844D01*
X120808156Y-97030238D01*
X120947374Y-97123260D01*
X120949437Y-97124114D01*
X120388087Y-97685465D01*
X120391897Y-97688719D01*
X120609984Y-97822363D01*
X120609987Y-97822365D01*
X120846297Y-97920247D01*
X121095011Y-97979957D01*
X121095010Y-97979957D01*
X121350000Y-98000024D01*
X121604989Y-97979957D01*
X121853702Y-97920247D01*
X122090012Y-97822365D01*
X122090015Y-97822363D01*
X122308095Y-97688724D01*
X122308110Y-97688713D01*
X122311911Y-97685466D01*
X122311911Y-97685464D01*
X121750562Y-97124114D01*
X121752626Y-97123260D01*
X121891844Y-97030238D01*
X122010238Y-96911844D01*
X122103260Y-96772626D01*
X122104114Y-96770561D01*
X122665464Y-97331911D01*
X122665466Y-97331911D01*
X122668713Y-97328110D01*
X122668724Y-97328095D01*
X122802363Y-97110015D01*
X122802365Y-97110012D01*
X122827221Y-97050003D01*
X129574435Y-97050003D01*
X129594630Y-97229249D01*
X129594631Y-97229254D01*
X129654211Y-97399523D01*
X129723928Y-97510476D01*
X129750184Y-97552262D01*
X129877738Y-97679816D01*
X130030478Y-97775789D01*
X130163579Y-97822363D01*
X130200745Y-97835368D01*
X130200750Y-97835369D01*
X130379996Y-97855565D01*
X130380000Y-97855565D01*
X130380004Y-97855565D01*
X130559249Y-97835369D01*
X130559252Y-97835368D01*
X130559255Y-97835368D01*
X130729522Y-97775789D01*
X130882262Y-97679816D01*
X131009816Y-97552262D01*
X131105789Y-97399522D01*
X131165368Y-97229255D01*
X131166411Y-97220000D01*
X131185565Y-97050003D01*
X131185565Y-97049996D01*
X131165369Y-96870750D01*
X131165368Y-96870745D01*
X131163487Y-96865369D01*
X131105789Y-96700478D01*
X131009816Y-96547738D01*
X130882262Y-96420184D01*
X130763383Y-96345487D01*
X130729523Y-96324211D01*
X130559254Y-96264631D01*
X130559249Y-96264630D01*
X130380004Y-96244435D01*
X130379996Y-96244435D01*
X130200750Y-96264630D01*
X130200745Y-96264631D01*
X130030476Y-96324211D01*
X129877737Y-96420184D01*
X129750184Y-96547737D01*
X129654211Y-96700476D01*
X129594631Y-96870745D01*
X129594630Y-96870750D01*
X129574435Y-97049996D01*
X129574435Y-97050003D01*
X122827221Y-97050003D01*
X122900247Y-96873702D01*
X122959957Y-96624989D01*
X122980024Y-96370000D01*
X122959957Y-96115010D01*
X122900247Y-95866297D01*
X122802365Y-95629987D01*
X122802363Y-95629984D01*
X122668719Y-95411897D01*
X122665465Y-95408087D01*
X122104114Y-95969437D01*
X122103260Y-95967374D01*
X122010238Y-95828156D01*
X121891844Y-95709762D01*
X121752626Y-95616740D01*
X121750561Y-95615884D01*
X122311912Y-95054533D01*
X122308107Y-95051284D01*
X122308098Y-95051277D01*
X122090015Y-94917636D01*
X122090012Y-94917634D01*
X121853702Y-94819752D01*
X121604988Y-94760042D01*
X121604989Y-94760042D01*
X121350000Y-94739975D01*
X121095010Y-94760042D01*
X120846297Y-94819752D01*
X120609987Y-94917634D01*
X120609984Y-94917636D01*
X120391893Y-95051282D01*
X120388086Y-95054532D01*
X120949438Y-95615884D01*
X120947374Y-95616740D01*
X120808156Y-95709762D01*
X120689762Y-95828156D01*
X120596740Y-95967374D01*
X120595884Y-95969438D01*
X120034532Y-95408086D01*
X120031282Y-95411893D01*
X119897636Y-95629984D01*
X119897634Y-95629987D01*
X119799752Y-95866297D01*
X119740042Y-96115010D01*
X119719975Y-96370000D01*
X117900024Y-96370000D01*
X117879957Y-96115010D01*
X117820247Y-95866297D01*
X117722365Y-95629987D01*
X117722363Y-95629984D01*
X117588719Y-95411897D01*
X117585465Y-95408087D01*
X117024114Y-95969437D01*
X117023260Y-95967374D01*
X116930238Y-95828156D01*
X116811844Y-95709762D01*
X116672626Y-95616740D01*
X116670561Y-95615884D01*
X117231912Y-95054533D01*
X117228107Y-95051284D01*
X117228098Y-95051277D01*
X117010015Y-94917636D01*
X117010012Y-94917634D01*
X116773702Y-94819752D01*
X116524988Y-94760042D01*
X116524989Y-94760042D01*
X116270000Y-94739975D01*
X116015010Y-94760042D01*
X115766297Y-94819752D01*
X115529987Y-94917634D01*
X115529984Y-94917636D01*
X115311893Y-95051282D01*
X115308086Y-95054532D01*
X115869438Y-95615884D01*
X115867374Y-95616740D01*
X115728156Y-95709762D01*
X115609762Y-95828156D01*
X115516740Y-95967374D01*
X115515884Y-95969438D01*
X114954532Y-95408086D01*
X114951282Y-95411893D01*
X114920227Y-95462572D01*
X114868415Y-95509447D01*
X114799486Y-95520870D01*
X114735323Y-95493212D01*
X114696298Y-95435257D01*
X114690500Y-95397782D01*
X114690500Y-93830000D01*
X117279783Y-93830000D01*
X117298623Y-94069382D01*
X117354674Y-94302853D01*
X117354676Y-94302859D01*
X117354677Y-94302863D01*
X117366415Y-94331201D01*
X117446565Y-94524702D01*
X117571915Y-94729255D01*
X117572028Y-94729439D01*
X117727973Y-94912027D01*
X117910561Y-95067972D01*
X117985933Y-95114160D01*
X118115297Y-95193434D01*
X118212047Y-95233508D01*
X118337137Y-95285323D01*
X118570621Y-95341377D01*
X118810000Y-95360217D01*
X119049379Y-95341377D01*
X119282863Y-95285323D01*
X119504704Y-95193433D01*
X119709439Y-95067972D01*
X119892027Y-94912027D01*
X120047972Y-94729439D01*
X120157930Y-94550003D01*
X133154435Y-94550003D01*
X133174630Y-94729249D01*
X133174631Y-94729254D01*
X133234211Y-94899523D01*
X133252038Y-94927894D01*
X133330184Y-95052262D01*
X133457738Y-95179816D01*
X133610478Y-95275789D01*
X133780745Y-95335368D01*
X133780750Y-95335369D01*
X133959996Y-95355565D01*
X133960000Y-95355565D01*
X133960004Y-95355565D01*
X134139249Y-95335369D01*
X134139252Y-95335368D01*
X134139255Y-95335368D01*
X134309522Y-95275789D01*
X134462262Y-95179816D01*
X134472075Y-95170003D01*
X134964435Y-95170003D01*
X134984630Y-95349249D01*
X134984631Y-95349254D01*
X135044211Y-95519523D01*
X135107461Y-95620184D01*
X135140184Y-95672262D01*
X135267738Y-95799816D01*
X135358080Y-95856582D01*
X135417966Y-95894211D01*
X135420478Y-95895789D01*
X135590745Y-95955368D01*
X135590750Y-95955369D01*
X135769996Y-95975565D01*
X135770000Y-95975565D01*
X135770004Y-95975565D01*
X135949249Y-95955369D01*
X135949252Y-95955368D01*
X135949255Y-95955368D01*
X136119522Y-95895789D01*
X136272262Y-95799816D01*
X136399816Y-95672262D01*
X136495789Y-95519522D01*
X136496219Y-95518290D01*
X136496716Y-95517598D01*
X136498812Y-95513247D01*
X136499573Y-95513613D01*
X136536935Y-95461512D01*
X136601885Y-95435757D01*
X136670448Y-95449206D01*
X136700946Y-95471553D01*
X136787103Y-95557710D01*
X136929137Y-95646956D01*
X136939845Y-95653684D01*
X136954755Y-95658902D01*
X137011531Y-95699623D01*
X137037278Y-95764576D01*
X137023822Y-95833138D01*
X136979773Y-95880936D01*
X136837739Y-95970182D01*
X136710184Y-96097737D01*
X136614211Y-96250476D01*
X136554631Y-96420745D01*
X136554630Y-96420750D01*
X136534435Y-96599996D01*
X136534435Y-96600003D01*
X136554630Y-96779249D01*
X136554631Y-96779254D01*
X136614211Y-96949523D01*
X136692751Y-97074518D01*
X136710184Y-97102262D01*
X136837738Y-97229816D01*
X136990478Y-97325789D01*
X137081783Y-97357738D01*
X137160745Y-97385368D01*
X137160750Y-97385369D01*
X137339996Y-97405565D01*
X137340000Y-97405565D01*
X137340004Y-97405565D01*
X137519249Y-97385369D01*
X137519252Y-97385368D01*
X137519255Y-97385368D01*
X137689522Y-97325789D01*
X137842262Y-97229816D01*
X137969061Y-97103016D01*
X138030380Y-97069534D01*
X138100072Y-97074518D01*
X138156006Y-97116389D01*
X138159144Y-97120957D01*
X138160184Y-97122262D01*
X138287738Y-97249816D01*
X138328103Y-97275179D01*
X138434794Y-97342218D01*
X138440478Y-97345789D01*
X138596770Y-97400478D01*
X138610745Y-97405368D01*
X138610750Y-97405369D01*
X138789996Y-97425565D01*
X138790000Y-97425565D01*
X138790004Y-97425565D01*
X138969249Y-97405369D01*
X138969252Y-97405368D01*
X138969255Y-97405368D01*
X139139522Y-97345789D01*
X139292262Y-97249816D01*
X139419816Y-97122262D01*
X139515789Y-96969522D01*
X139575368Y-96799255D01*
X139575368Y-96799249D01*
X139576366Y-96794882D01*
X139591416Y-96767970D01*
X139804071Y-96767970D01*
X139821026Y-96814871D01*
X139820479Y-96836347D01*
X139814435Y-96889994D01*
X139814435Y-96890003D01*
X139834630Y-97069249D01*
X139834631Y-97069254D01*
X139894211Y-97239523D01*
X139958739Y-97342218D01*
X139990184Y-97392262D01*
X140117738Y-97519816D01*
X140270478Y-97615789D01*
X140440745Y-97675368D01*
X140440750Y-97675369D01*
X140619996Y-97695565D01*
X140620000Y-97695565D01*
X140620004Y-97695565D01*
X140799249Y-97675369D01*
X140799252Y-97675368D01*
X140799255Y-97675368D01*
X140969522Y-97615789D01*
X141122262Y-97519816D01*
X141249816Y-97392262D01*
X141345789Y-97239522D01*
X141405368Y-97069255D01*
X141407537Y-97050003D01*
X141425565Y-96890003D01*
X141425565Y-96889996D01*
X141405369Y-96710750D01*
X141405368Y-96710745D01*
X141375361Y-96624989D01*
X141345789Y-96540478D01*
X141249816Y-96387738D01*
X141122262Y-96260184D01*
X141097198Y-96244435D01*
X140969523Y-96164211D01*
X140799254Y-96104631D01*
X140799249Y-96104630D01*
X140620004Y-96084435D01*
X140619996Y-96084435D01*
X140440750Y-96104630D01*
X140440745Y-96104631D01*
X140270476Y-96164211D01*
X140117737Y-96260184D01*
X139990184Y-96387737D01*
X139894211Y-96540476D01*
X139834629Y-96710753D01*
X139833630Y-96715130D01*
X139804071Y-96767970D01*
X139591416Y-96767970D01*
X139605924Y-96742027D01*
X139588972Y-96695115D01*
X139589520Y-96673650D01*
X139595565Y-96620002D01*
X139595565Y-96619996D01*
X139575369Y-96440750D01*
X139575368Y-96440745D01*
X139515788Y-96270476D01*
X139419815Y-96117737D01*
X139292262Y-95990184D01*
X139139523Y-95894211D01*
X138969254Y-95834631D01*
X138969249Y-95834630D01*
X138790004Y-95814435D01*
X138789996Y-95814435D01*
X138610750Y-95834630D01*
X138610745Y-95834631D01*
X138440476Y-95894211D01*
X138287739Y-95990183D01*
X138160941Y-96116981D01*
X138099618Y-96150465D01*
X138029926Y-96145481D01*
X137973993Y-96103609D01*
X137970857Y-96099044D01*
X137969815Y-96097737D01*
X137842262Y-95970184D01*
X137689518Y-95874208D01*
X137674606Y-95868990D01*
X137617831Y-95828267D01*
X137592086Y-95763313D01*
X137605544Y-95694752D01*
X137649590Y-95646957D01*
X137791627Y-95557710D01*
X137919181Y-95430156D01*
X138015154Y-95277416D01*
X138074733Y-95107149D01*
X138076749Y-95089255D01*
X138094930Y-94927897D01*
X138094930Y-94927890D01*
X138092915Y-94910003D01*
X159414435Y-94910003D01*
X159434630Y-95089249D01*
X159434631Y-95089254D01*
X159494211Y-95259523D01*
X159590184Y-95412262D01*
X159645526Y-95467604D01*
X159679011Y-95528927D01*
X159674027Y-95598619D01*
X159662839Y-95621257D01*
X159594211Y-95730476D01*
X159534631Y-95900745D01*
X159534630Y-95900750D01*
X159514435Y-96079996D01*
X159514435Y-96080003D01*
X159534630Y-96259249D01*
X159534631Y-96259254D01*
X159594211Y-96429523D01*
X159668490Y-96547737D01*
X159690184Y-96582262D01*
X159817738Y-96709816D01*
X159908080Y-96766582D01*
X159953119Y-96794882D01*
X159970478Y-96805789D01*
X160057808Y-96836347D01*
X160140745Y-96865368D01*
X160140750Y-96865369D01*
X160319996Y-96885565D01*
X160320000Y-96885565D01*
X160320004Y-96885565D01*
X160499249Y-96865369D01*
X160499252Y-96865368D01*
X160499255Y-96865368D01*
X160669522Y-96805789D01*
X160822262Y-96709816D01*
X160949816Y-96582262D01*
X160949819Y-96582256D01*
X160952587Y-96579489D01*
X161013910Y-96546004D01*
X161083602Y-96550988D01*
X161139536Y-96592859D01*
X161145262Y-96601197D01*
X161240182Y-96752260D01*
X161240184Y-96752262D01*
X161367738Y-96879816D01*
X161463532Y-96940007D01*
X161509822Y-96992340D01*
X161520471Y-97061394D01*
X161492096Y-97125242D01*
X161485241Y-97132681D01*
X161370183Y-97247739D01*
X161274211Y-97400476D01*
X161214631Y-97570745D01*
X161214630Y-97570750D01*
X161194435Y-97749996D01*
X161194435Y-97750003D01*
X161214630Y-97929249D01*
X161214631Y-97929254D01*
X161274211Y-98099523D01*
X161343329Y-98209523D01*
X161370184Y-98252262D01*
X161497738Y-98379816D01*
X161650478Y-98475789D01*
X161820745Y-98535368D01*
X161820750Y-98535369D01*
X161999996Y-98555565D01*
X162000000Y-98555565D01*
X162000004Y-98555565D01*
X162179249Y-98535369D01*
X162179252Y-98535368D01*
X162179255Y-98535368D01*
X162349522Y-98475789D01*
X162502262Y-98379816D01*
X162629816Y-98252262D01*
X162725789Y-98099522D01*
X162785368Y-97929255D01*
X162793171Y-97860003D01*
X176844435Y-97860003D01*
X176864630Y-98039249D01*
X176864631Y-98039254D01*
X176924211Y-98209523D01*
X176951066Y-98252262D01*
X177020184Y-98362262D01*
X177147738Y-98489816D01*
X177300478Y-98585789D01*
X177470745Y-98645368D01*
X177470750Y-98645369D01*
X177649996Y-98665565D01*
X177650000Y-98665565D01*
X177650004Y-98665565D01*
X177829249Y-98645369D01*
X177829252Y-98645368D01*
X177829255Y-98645368D01*
X177999522Y-98585789D01*
X178152262Y-98489816D01*
X178279816Y-98362262D01*
X178375789Y-98209522D01*
X178435368Y-98039255D01*
X178435369Y-98039249D01*
X178455565Y-97860003D01*
X178455565Y-97859996D01*
X178435369Y-97680750D01*
X178435368Y-97680745D01*
X178433487Y-97675369D01*
X178375789Y-97510478D01*
X178279816Y-97357738D01*
X178152262Y-97230184D01*
X178135227Y-97219480D01*
X177999523Y-97134211D01*
X177829254Y-97074631D01*
X177829249Y-97074630D01*
X177650004Y-97054435D01*
X177649996Y-97054435D01*
X177470750Y-97074630D01*
X177470745Y-97074631D01*
X177300476Y-97134211D01*
X177147737Y-97230184D01*
X177020184Y-97357737D01*
X176924211Y-97510476D01*
X176864631Y-97680745D01*
X176864630Y-97680750D01*
X176844435Y-97859996D01*
X176844435Y-97860003D01*
X162793171Y-97860003D01*
X162793671Y-97855565D01*
X162805565Y-97750003D01*
X162805565Y-97749996D01*
X162785369Y-97570750D01*
X162785368Y-97570745D01*
X162725789Y-97400478D01*
X162725188Y-97399522D01*
X162647058Y-97275179D01*
X162629816Y-97247738D01*
X162502262Y-97120184D01*
X162406467Y-97059992D01*
X162360177Y-97007658D01*
X162349529Y-96938605D01*
X162377904Y-96874756D01*
X162384735Y-96867342D01*
X162499816Y-96752262D01*
X162595789Y-96599522D01*
X162655368Y-96429255D01*
X162655369Y-96429249D01*
X162675565Y-96250003D01*
X162675565Y-96249996D01*
X162655369Y-96070750D01*
X162655368Y-96070745D01*
X162595788Y-95900476D01*
X162541848Y-95814632D01*
X162499816Y-95747738D01*
X162372262Y-95620184D01*
X162337942Y-95598619D01*
X162219523Y-95524211D01*
X162049254Y-95464631D01*
X162049249Y-95464630D01*
X161870004Y-95444435D01*
X161869996Y-95444435D01*
X161690750Y-95464630D01*
X161690745Y-95464631D01*
X161520476Y-95524211D01*
X161367739Y-95620183D01*
X161237411Y-95750511D01*
X161176088Y-95783995D01*
X161106396Y-95779011D01*
X161050463Y-95737139D01*
X161044737Y-95728802D01*
X160949817Y-95577739D01*
X160894474Y-95522396D01*
X160860989Y-95461073D01*
X160865973Y-95391381D01*
X160877161Y-95368743D01*
X160934700Y-95277170D01*
X160945789Y-95259522D01*
X161005368Y-95089255D01*
X161007766Y-95067972D01*
X161025565Y-94910003D01*
X161025565Y-94909996D01*
X161005369Y-94730750D01*
X161005368Y-94730745D01*
X160945788Y-94560475D01*
X160880895Y-94457200D01*
X160869443Y-94438975D01*
X160850443Y-94371739D01*
X160870810Y-94304904D01*
X160886756Y-94285322D01*
X160906981Y-94265097D01*
X161009816Y-94162262D01*
X161105789Y-94009522D01*
X161165368Y-93839255D01*
X161172153Y-93779035D01*
X161185565Y-93660003D01*
X161185565Y-93659996D01*
X161165369Y-93480750D01*
X161165368Y-93480745D01*
X161122119Y-93357146D01*
X161105789Y-93310478D01*
X161009816Y-93157738D01*
X160924759Y-93072681D01*
X160891274Y-93011358D01*
X160896258Y-92941666D01*
X160924759Y-92897319D01*
X160935538Y-92886540D01*
X161009816Y-92812262D01*
X161105789Y-92659522D01*
X161165368Y-92489255D01*
X161165369Y-92489249D01*
X161185565Y-92310003D01*
X161185565Y-92309996D01*
X161165369Y-92130750D01*
X161165368Y-92130745D01*
X161109113Y-91969977D01*
X161105789Y-91960478D01*
X161092621Y-91939522D01*
X161024963Y-91831844D01*
X161009816Y-91807738D01*
X160882262Y-91680184D01*
X160729523Y-91584211D01*
X160559254Y-91524631D01*
X160559249Y-91524630D01*
X160380004Y-91504435D01*
X160379996Y-91504435D01*
X160200750Y-91524630D01*
X160200745Y-91524631D01*
X160030476Y-91584211D01*
X159877737Y-91680184D01*
X159750184Y-91807737D01*
X159654211Y-91960476D01*
X159594631Y-92130745D01*
X159594630Y-92130750D01*
X159574435Y-92309996D01*
X159574435Y-92310003D01*
X159594630Y-92489249D01*
X159594631Y-92489254D01*
X159654211Y-92659523D01*
X159750184Y-92812262D01*
X159835241Y-92897319D01*
X159868726Y-92958642D01*
X159863742Y-93028334D01*
X159835241Y-93072681D01*
X159750184Y-93157737D01*
X159654211Y-93310476D01*
X159594631Y-93480745D01*
X159594630Y-93480750D01*
X159574435Y-93659996D01*
X159574435Y-93660003D01*
X159594630Y-93839249D01*
X159594631Y-93839254D01*
X159654211Y-94009523D01*
X159730556Y-94131025D01*
X159749556Y-94198262D01*
X159729188Y-94265097D01*
X159713244Y-94284678D01*
X159590183Y-94407739D01*
X159494211Y-94560476D01*
X159434631Y-94730745D01*
X159434630Y-94730750D01*
X159414435Y-94909996D01*
X159414435Y-94910003D01*
X138092915Y-94910003D01*
X138074734Y-94748644D01*
X138074733Y-94748639D01*
X138067948Y-94729249D01*
X138015154Y-94578372D01*
X138003910Y-94560478D01*
X137930855Y-94444211D01*
X137919181Y-94425632D01*
X137791627Y-94298078D01*
X137739138Y-94265097D01*
X137638888Y-94202105D01*
X137468619Y-94142525D01*
X137468614Y-94142524D01*
X137289369Y-94122329D01*
X137289361Y-94122329D01*
X137110115Y-94142524D01*
X137110110Y-94142525D01*
X136939841Y-94202105D01*
X136787102Y-94298078D01*
X136659549Y-94425631D01*
X136563575Y-94578373D01*
X136563139Y-94579619D01*
X136562638Y-94580317D01*
X136560553Y-94584647D01*
X136559794Y-94584281D01*
X136522414Y-94636393D01*
X136457460Y-94662137D01*
X136388899Y-94648678D01*
X136358418Y-94626340D01*
X136272262Y-94540184D01*
X136119523Y-94444211D01*
X135949254Y-94384631D01*
X135949249Y-94384630D01*
X135770004Y-94364435D01*
X135769996Y-94364435D01*
X135590750Y-94384630D01*
X135590745Y-94384631D01*
X135420476Y-94444211D01*
X135267737Y-94540184D01*
X135140184Y-94667737D01*
X135044211Y-94820476D01*
X134984631Y-94990745D01*
X134984630Y-94990750D01*
X134964435Y-95169996D01*
X134964435Y-95170003D01*
X134472075Y-95170003D01*
X134589816Y-95052262D01*
X134685789Y-94899522D01*
X134745368Y-94729255D01*
X134745369Y-94729249D01*
X134765565Y-94550003D01*
X134765565Y-94549996D01*
X134745369Y-94370750D01*
X134745368Y-94370745D01*
X134721615Y-94302863D01*
X134685789Y-94200478D01*
X134589816Y-94047738D01*
X134462262Y-93920184D01*
X134396561Y-93878901D01*
X134309523Y-93824211D01*
X134139254Y-93764631D01*
X134139249Y-93764630D01*
X133960004Y-93744435D01*
X133959996Y-93744435D01*
X133780750Y-93764630D01*
X133780745Y-93764631D01*
X133610476Y-93824211D01*
X133457737Y-93920184D01*
X133330184Y-94047737D01*
X133234211Y-94200476D01*
X133174631Y-94370745D01*
X133174630Y-94370750D01*
X133154435Y-94549996D01*
X133154435Y-94550003D01*
X120157930Y-94550003D01*
X120173433Y-94524704D01*
X120265323Y-94302863D01*
X120321377Y-94069379D01*
X120340217Y-93830000D01*
X120321377Y-93590621D01*
X120265323Y-93357137D01*
X120182729Y-93157738D01*
X120173434Y-93135297D01*
X120047973Y-92930563D01*
X120047972Y-92930561D01*
X119892027Y-92747973D01*
X119709439Y-92592028D01*
X119709436Y-92592026D01*
X119504702Y-92466565D01*
X119311201Y-92386415D01*
X119282863Y-92374677D01*
X119282859Y-92374676D01*
X119282853Y-92374674D01*
X119049382Y-92318623D01*
X118810000Y-92299783D01*
X118570617Y-92318623D01*
X118337146Y-92374674D01*
X118337134Y-92374678D01*
X118115297Y-92466565D01*
X117910563Y-92592026D01*
X117727973Y-92747973D01*
X117572026Y-92930563D01*
X117446565Y-93135297D01*
X117354678Y-93357134D01*
X117354674Y-93357146D01*
X117298623Y-93590617D01*
X117279783Y-93830000D01*
X114690500Y-93830000D01*
X114690500Y-92262218D01*
X114710185Y-92195179D01*
X114762989Y-92149424D01*
X114832147Y-92139480D01*
X114895703Y-92168505D01*
X114920228Y-92197429D01*
X114951280Y-92248102D01*
X114951284Y-92248107D01*
X114954533Y-92251912D01*
X115515884Y-91690560D01*
X115516740Y-91692626D01*
X115609762Y-91831844D01*
X115728156Y-91950238D01*
X115867374Y-92043260D01*
X115869437Y-92044114D01*
X115308087Y-92605465D01*
X115311897Y-92608719D01*
X115529984Y-92742363D01*
X115529987Y-92742365D01*
X115766297Y-92840247D01*
X116015011Y-92899957D01*
X116015010Y-92899957D01*
X116270000Y-92920024D01*
X116524989Y-92899957D01*
X116773702Y-92840247D01*
X117010012Y-92742365D01*
X117010015Y-92742363D01*
X117228095Y-92608724D01*
X117228110Y-92608713D01*
X117231911Y-92605466D01*
X117231911Y-92605464D01*
X116670562Y-92044114D01*
X116672626Y-92043260D01*
X116811844Y-91950238D01*
X116930238Y-91831844D01*
X117023260Y-91692626D01*
X117024114Y-91690561D01*
X117585464Y-92251911D01*
X117585466Y-92251911D01*
X117588713Y-92248110D01*
X117588724Y-92248095D01*
X117722363Y-92030015D01*
X117722365Y-92030012D01*
X117820247Y-91793702D01*
X117879957Y-91544989D01*
X117900024Y-91290000D01*
X119719975Y-91290000D01*
X119740042Y-91544989D01*
X119799752Y-91793702D01*
X119897634Y-92030012D01*
X119897636Y-92030015D01*
X120031277Y-92248098D01*
X120031284Y-92248107D01*
X120034533Y-92251912D01*
X120595884Y-91690560D01*
X120596740Y-91692626D01*
X120689762Y-91831844D01*
X120808156Y-91950238D01*
X120947374Y-92043260D01*
X120949437Y-92044114D01*
X120388087Y-92605465D01*
X120391897Y-92608719D01*
X120609984Y-92742363D01*
X120609987Y-92742365D01*
X120846297Y-92840247D01*
X121095011Y-92899957D01*
X121095010Y-92899957D01*
X121350000Y-92920024D01*
X121604989Y-92899957D01*
X121853702Y-92840247D01*
X122090012Y-92742365D01*
X122090015Y-92742363D01*
X122308095Y-92608724D01*
X122308110Y-92608713D01*
X122311911Y-92605466D01*
X122311911Y-92605464D01*
X121750562Y-92044114D01*
X121752626Y-92043260D01*
X121891844Y-91950238D01*
X122010238Y-91831844D01*
X122103260Y-91692626D01*
X122104114Y-91690561D01*
X122665464Y-92251911D01*
X122665466Y-92251911D01*
X122668713Y-92248110D01*
X122668724Y-92248095D01*
X122802363Y-92030015D01*
X122802365Y-92030012D01*
X122900247Y-91793702D01*
X122959957Y-91544989D01*
X122980024Y-91290000D01*
X122959957Y-91035010D01*
X122900247Y-90786297D01*
X122893498Y-90770003D01*
X133064435Y-90770003D01*
X133084630Y-90949249D01*
X133084631Y-90949254D01*
X133144211Y-91119523D01*
X133220213Y-91240478D01*
X133240184Y-91272262D01*
X133367738Y-91399816D01*
X133520478Y-91495789D01*
X133602901Y-91524630D01*
X133690745Y-91555368D01*
X133690750Y-91555369D01*
X133869996Y-91575565D01*
X133870000Y-91575565D01*
X133870004Y-91575565D01*
X134049249Y-91555369D01*
X134049252Y-91555368D01*
X134049255Y-91555368D01*
X134219522Y-91495789D01*
X134372262Y-91399816D01*
X134499816Y-91272262D01*
X134595789Y-91119522D01*
X134644609Y-90980003D01*
X135564435Y-90980003D01*
X135584630Y-91159249D01*
X135584631Y-91159254D01*
X135644211Y-91329523D01*
X135695247Y-91410745D01*
X135740184Y-91482262D01*
X135867738Y-91609816D01*
X136020478Y-91705789D01*
X136123057Y-91741683D01*
X136190745Y-91765368D01*
X136190750Y-91765369D01*
X136369996Y-91785565D01*
X136370000Y-91785565D01*
X136370004Y-91785565D01*
X136549249Y-91765369D01*
X136549252Y-91765368D01*
X136549255Y-91765368D01*
X136719522Y-91705789D01*
X136872262Y-91609816D01*
X136892075Y-91590003D01*
X137364435Y-91590003D01*
X137384630Y-91769249D01*
X137384631Y-91769254D01*
X137444211Y-91939523D01*
X137509394Y-92043260D01*
X137540184Y-92092262D01*
X137667738Y-92219816D01*
X137735220Y-92262218D01*
X137811269Y-92310003D01*
X137820478Y-92315789D01*
X137955282Y-92362959D01*
X137990745Y-92375368D01*
X137990750Y-92375369D01*
X138169996Y-92395565D01*
X138170000Y-92395565D01*
X138170004Y-92395565D01*
X138349249Y-92375369D01*
X138349252Y-92375368D01*
X138349255Y-92375368D01*
X138349256Y-92375367D01*
X138349259Y-92375367D01*
X138374536Y-92366522D01*
X138444315Y-92362959D01*
X138504942Y-92397687D01*
X138537170Y-92459680D01*
X138539020Y-92494371D01*
X138529341Y-92604999D01*
X138529341Y-92605000D01*
X138549936Y-92840403D01*
X138549938Y-92840413D01*
X138611094Y-93068655D01*
X138611096Y-93068659D01*
X138611097Y-93068663D01*
X138691004Y-93240023D01*
X138710965Y-93282830D01*
X138710967Y-93282834D01*
X138819281Y-93437521D01*
X138846505Y-93476401D01*
X139013599Y-93643495D01*
X139037165Y-93659996D01*
X139207165Y-93779032D01*
X139207167Y-93779033D01*
X139207170Y-93779035D01*
X139421337Y-93878903D01*
X139649592Y-93940063D01*
X139837918Y-93956539D01*
X139884999Y-93960659D01*
X139885000Y-93960659D01*
X139885001Y-93960659D01*
X139924234Y-93957226D01*
X140120408Y-93940063D01*
X140348663Y-93878903D01*
X140562830Y-93779035D01*
X140756401Y-93643495D01*
X140923495Y-93476401D01*
X141053425Y-93290842D01*
X141108002Y-93247217D01*
X141177500Y-93240023D01*
X141239855Y-93271546D01*
X141256575Y-93290842D01*
X141386500Y-93476395D01*
X141386505Y-93476401D01*
X141553599Y-93643495D01*
X141577165Y-93659996D01*
X141747165Y-93779032D01*
X141747167Y-93779033D01*
X141747170Y-93779035D01*
X141961337Y-93878903D01*
X142189592Y-93940063D01*
X142377918Y-93956539D01*
X142424999Y-93960659D01*
X142425000Y-93960659D01*
X142425001Y-93960659D01*
X142464234Y-93957226D01*
X142660408Y-93940063D01*
X142888663Y-93878903D01*
X143102830Y-93779035D01*
X143296401Y-93643495D01*
X143463495Y-93476401D01*
X143599035Y-93282830D01*
X143698903Y-93068663D01*
X143760063Y-92840408D01*
X143780659Y-92605000D01*
X143760063Y-92369592D01*
X143698903Y-92141337D01*
X143599035Y-91927171D01*
X143593425Y-91919158D01*
X143573010Y-91890003D01*
X152854435Y-91890003D01*
X152874630Y-92069249D01*
X152874631Y-92069254D01*
X152934211Y-92239523D01*
X153011772Y-92362959D01*
X153030184Y-92392262D01*
X153157738Y-92519816D01*
X153219429Y-92558579D01*
X153299216Y-92608713D01*
X153310478Y-92615789D01*
X153435460Y-92659522D01*
X153480745Y-92675368D01*
X153480750Y-92675369D01*
X153659996Y-92695565D01*
X153660000Y-92695565D01*
X153660004Y-92695565D01*
X153839249Y-92675369D01*
X153839252Y-92675368D01*
X153839255Y-92675368D01*
X154009522Y-92615789D01*
X154162262Y-92519816D01*
X154289816Y-92392262D01*
X154385789Y-92239522D01*
X154445368Y-92069255D01*
X154448297Y-92043260D01*
X154465565Y-91890003D01*
X154465565Y-91889996D01*
X154445369Y-91710750D01*
X154445368Y-91710745D01*
X154434674Y-91680184D01*
X154385789Y-91540478D01*
X154289816Y-91387738D01*
X154162262Y-91260184D01*
X154128604Y-91239035D01*
X154009523Y-91164211D01*
X153839254Y-91104631D01*
X153839249Y-91104630D01*
X153660004Y-91084435D01*
X153659996Y-91084435D01*
X153480750Y-91104630D01*
X153480745Y-91104631D01*
X153310476Y-91164211D01*
X153157737Y-91260184D01*
X153030184Y-91387737D01*
X152934211Y-91540476D01*
X152874631Y-91710745D01*
X152874630Y-91710750D01*
X152854435Y-91889996D01*
X152854435Y-91890003D01*
X143573010Y-91890003D01*
X143463494Y-91733597D01*
X143296402Y-91566506D01*
X143296396Y-91566501D01*
X143110842Y-91436575D01*
X143067217Y-91381998D01*
X143060023Y-91312500D01*
X143091546Y-91250145D01*
X143110842Y-91233425D01*
X143149606Y-91206282D01*
X143296401Y-91103495D01*
X143463495Y-90936401D01*
X143599035Y-90742830D01*
X143698903Y-90528663D01*
X143760063Y-90300408D01*
X143763598Y-90260003D01*
X159884435Y-90260003D01*
X159904630Y-90439249D01*
X159904631Y-90439254D01*
X159964211Y-90609523D01*
X160051321Y-90748156D01*
X160060184Y-90762262D01*
X160187738Y-90889816D01*
X160257964Y-90933942D01*
X160331269Y-90980003D01*
X160340478Y-90985789D01*
X160481144Y-91035010D01*
X160510745Y-91045368D01*
X160510750Y-91045369D01*
X160689996Y-91065565D01*
X160690000Y-91065565D01*
X160690004Y-91065565D01*
X160869249Y-91045369D01*
X160869252Y-91045368D01*
X160869255Y-91045368D01*
X161039522Y-90985789D01*
X161192262Y-90889816D01*
X161319816Y-90762262D01*
X161409202Y-90620005D01*
X170667557Y-90620005D01*
X170687307Y-90933942D01*
X170687308Y-90933949D01*
X170746255Y-91242958D01*
X170843463Y-91542132D01*
X170843465Y-91542137D01*
X170977400Y-91826761D01*
X170977403Y-91826767D01*
X171145957Y-92092367D01*
X171145960Y-92092371D01*
X171236786Y-92202160D01*
X172200413Y-91238533D01*
X172295329Y-91369175D01*
X172423325Y-91497171D01*
X172553965Y-91592086D01*
X171587471Y-92558579D01*
X171587472Y-92558581D01*
X171830272Y-92734985D01*
X171830290Y-92734996D01*
X172105947Y-92886540D01*
X172105955Y-92886544D01*
X172398426Y-93002340D01*
X172703120Y-93080573D01*
X172703129Y-93080575D01*
X173015201Y-93119999D01*
X173015215Y-93120000D01*
X173329785Y-93120000D01*
X173329798Y-93119999D01*
X173641870Y-93080575D01*
X173641879Y-93080573D01*
X173946573Y-93002340D01*
X174239044Y-92886544D01*
X174239052Y-92886540D01*
X174514709Y-92734996D01*
X174514719Y-92734990D01*
X174757526Y-92558579D01*
X174757527Y-92558579D01*
X173791033Y-91592086D01*
X173921675Y-91497171D01*
X174049671Y-91369175D01*
X174144586Y-91238534D01*
X175108212Y-92202160D01*
X175199044Y-92092364D01*
X175367596Y-91826767D01*
X175367599Y-91826761D01*
X175501534Y-91542137D01*
X175501536Y-91542132D01*
X175598744Y-91242958D01*
X175657691Y-90933949D01*
X175657692Y-90933942D01*
X175677443Y-90620005D01*
X175677443Y-90619994D01*
X175657692Y-90306057D01*
X175657691Y-90306050D01*
X175598744Y-89997041D01*
X175501536Y-89697867D01*
X175501534Y-89697862D01*
X175367599Y-89413238D01*
X175367596Y-89413232D01*
X175199042Y-89147632D01*
X175199039Y-89147628D01*
X175108212Y-89037838D01*
X174144585Y-90001465D01*
X174049671Y-89870825D01*
X173921675Y-89742829D01*
X173791033Y-89647913D01*
X174757527Y-88681419D01*
X174757526Y-88681417D01*
X174514727Y-88505014D01*
X174514709Y-88505003D01*
X174239052Y-88353459D01*
X174239044Y-88353455D01*
X173946573Y-88237659D01*
X173641879Y-88159426D01*
X173641870Y-88159424D01*
X173329798Y-88120000D01*
X173015201Y-88120000D01*
X172703129Y-88159424D01*
X172703120Y-88159426D01*
X172398426Y-88237659D01*
X172105955Y-88353455D01*
X172105947Y-88353459D01*
X171830287Y-88505004D01*
X171830282Y-88505007D01*
X171587472Y-88681418D01*
X171587471Y-88681419D01*
X172553966Y-89647913D01*
X172423325Y-89742829D01*
X172295329Y-89870825D01*
X172200413Y-90001465D01*
X171236786Y-89037838D01*
X171236785Y-89037838D01*
X171145959Y-89147629D01*
X171145957Y-89147632D01*
X170977403Y-89413232D01*
X170977400Y-89413238D01*
X170843465Y-89697862D01*
X170843463Y-89697867D01*
X170746255Y-89997041D01*
X170687308Y-90306050D01*
X170687307Y-90306057D01*
X170667557Y-90619994D01*
X170667557Y-90620005D01*
X161409202Y-90620005D01*
X161415789Y-90609522D01*
X161475368Y-90439255D01*
X161477484Y-90420476D01*
X161495565Y-90260003D01*
X161495565Y-90259996D01*
X161475369Y-90080750D01*
X161475368Y-90080745D01*
X161446079Y-89997041D01*
X161415789Y-89910478D01*
X161319816Y-89757738D01*
X161192262Y-89630184D01*
X161039523Y-89534211D01*
X160869254Y-89474631D01*
X160869249Y-89474630D01*
X160690004Y-89454435D01*
X160689996Y-89454435D01*
X160510750Y-89474630D01*
X160510745Y-89474631D01*
X160340476Y-89534211D01*
X160187737Y-89630184D01*
X160060184Y-89757737D01*
X159964211Y-89910476D01*
X159904631Y-90080745D01*
X159904630Y-90080750D01*
X159884435Y-90259996D01*
X159884435Y-90260003D01*
X143763598Y-90260003D01*
X143780659Y-90065000D01*
X143760063Y-89829592D01*
X143698903Y-89601337D01*
X143599035Y-89387171D01*
X143593425Y-89379158D01*
X143463494Y-89193597D01*
X143296402Y-89026506D01*
X143296396Y-89026501D01*
X143110842Y-88896575D01*
X143067217Y-88841998D01*
X143060023Y-88772500D01*
X143091546Y-88710145D01*
X143110842Y-88693425D01*
X143133026Y-88677891D01*
X143296401Y-88563495D01*
X143463495Y-88396401D01*
X143599035Y-88202830D01*
X143698903Y-87988663D01*
X143701223Y-87980003D01*
X152814435Y-87980003D01*
X152834630Y-88159249D01*
X152834631Y-88159254D01*
X152894211Y-88329523D01*
X152964615Y-88441569D01*
X152990184Y-88482262D01*
X153117738Y-88609816D01*
X153270478Y-88705789D01*
X153346948Y-88732547D01*
X153440745Y-88765368D01*
X153440750Y-88765369D01*
X153619996Y-88785565D01*
X153620000Y-88785565D01*
X153620004Y-88785565D01*
X153799249Y-88765369D01*
X153799252Y-88765368D01*
X153799255Y-88765368D01*
X153969522Y-88705789D01*
X154122262Y-88609816D01*
X154249816Y-88482262D01*
X154345789Y-88329522D01*
X154405368Y-88159255D01*
X154425565Y-87980000D01*
X154405368Y-87800745D01*
X154345789Y-87630478D01*
X154249816Y-87477738D01*
X154122262Y-87350184D01*
X154025837Y-87289596D01*
X153969523Y-87254211D01*
X153799254Y-87194631D01*
X153799249Y-87194630D01*
X153620004Y-87174435D01*
X153619996Y-87174435D01*
X153440750Y-87194630D01*
X153440745Y-87194631D01*
X153270476Y-87254211D01*
X153117737Y-87350184D01*
X152990184Y-87477737D01*
X152894211Y-87630476D01*
X152834631Y-87800745D01*
X152834630Y-87800750D01*
X152814435Y-87979996D01*
X152814435Y-87980003D01*
X143701223Y-87980003D01*
X143760063Y-87760408D01*
X143780659Y-87525000D01*
X143760063Y-87289592D01*
X143698903Y-87061337D01*
X143599035Y-86847171D01*
X143543856Y-86768366D01*
X143463494Y-86653597D01*
X143296402Y-86486506D01*
X143296395Y-86486501D01*
X143229990Y-86440003D01*
X159884435Y-86440003D01*
X159904630Y-86619249D01*
X159904631Y-86619254D01*
X159964211Y-86789523D01*
X160049339Y-86925003D01*
X160060184Y-86942262D01*
X160187738Y-87069816D01*
X160340478Y-87165789D01*
X160422901Y-87194630D01*
X160510745Y-87225368D01*
X160510750Y-87225369D01*
X160689996Y-87245565D01*
X160690000Y-87245565D01*
X160690004Y-87245565D01*
X160865673Y-87225772D01*
X160934494Y-87237826D01*
X160984549Y-87283020D01*
X161075179Y-87427256D01*
X161075184Y-87427262D01*
X161202738Y-87554816D01*
X161355478Y-87650789D01*
X161525745Y-87710368D01*
X161525750Y-87710369D01*
X161704996Y-87730565D01*
X161705000Y-87730565D01*
X161705004Y-87730565D01*
X161884249Y-87710369D01*
X161884252Y-87710368D01*
X161884255Y-87710368D01*
X162054522Y-87650789D01*
X162207262Y-87554816D01*
X162334816Y-87427262D01*
X162430789Y-87274522D01*
X162490368Y-87104255D01*
X162491215Y-87096738D01*
X162510565Y-86925003D01*
X162510565Y-86924996D01*
X162490369Y-86745750D01*
X162490368Y-86745745D01*
X162452292Y-86636930D01*
X162430789Y-86575478D01*
X162334816Y-86422738D01*
X162207262Y-86295184D01*
X162137098Y-86251097D01*
X162054523Y-86199211D01*
X161884254Y-86139631D01*
X161884249Y-86139630D01*
X161705004Y-86119435D01*
X161704996Y-86119435D01*
X161529325Y-86139227D01*
X161460503Y-86127172D01*
X161410449Y-86081980D01*
X161319816Y-85937738D01*
X161252079Y-85870001D01*
X167007032Y-85870001D01*
X167026864Y-86096686D01*
X167026866Y-86096697D01*
X167085758Y-86316488D01*
X167085761Y-86316497D01*
X167181931Y-86522732D01*
X167181932Y-86522734D01*
X167312454Y-86709141D01*
X167473358Y-86870045D01*
X167473361Y-86870047D01*
X167659766Y-87000568D01*
X167866004Y-87096739D01*
X167866009Y-87096740D01*
X167866011Y-87096741D01*
X167894054Y-87104255D01*
X168085808Y-87155635D01*
X168247730Y-87169801D01*
X168312498Y-87175468D01*
X168312500Y-87175468D01*
X168312502Y-87175468D01*
X168369173Y-87170509D01*
X168539192Y-87155635D01*
X168758996Y-87096739D01*
X168965234Y-87000568D01*
X169151639Y-86870047D01*
X169224820Y-86796865D01*
X169286141Y-86763382D01*
X169355833Y-86768366D01*
X169400179Y-86796865D01*
X169450483Y-86847169D01*
X169473362Y-86870048D01*
X169551837Y-86924996D01*
X169659766Y-87000568D01*
X169866004Y-87096739D01*
X169866009Y-87096740D01*
X169866011Y-87096741D01*
X169894054Y-87104255D01*
X170085808Y-87155635D01*
X170247730Y-87169801D01*
X170312498Y-87175468D01*
X170312500Y-87175468D01*
X170312502Y-87175468D01*
X170369173Y-87170509D01*
X170539192Y-87155635D01*
X170758996Y-87096739D01*
X170965234Y-87000568D01*
X171151639Y-86870047D01*
X171312547Y-86709139D01*
X171443068Y-86522734D01*
X171539239Y-86316496D01*
X171598135Y-86096692D01*
X171617968Y-85870000D01*
X171598135Y-85643308D01*
X171539239Y-85423504D01*
X171443068Y-85217266D01*
X171325614Y-85049523D01*
X171312545Y-85030858D01*
X171151641Y-84869954D01*
X170965234Y-84739432D01*
X170965230Y-84739430D01*
X170949522Y-84732105D01*
X170897083Y-84685931D01*
X170877933Y-84618737D01*
X170898150Y-84551857D01*
X170949528Y-84507340D01*
X170964981Y-84500134D01*
X171037971Y-84449024D01*
X170421497Y-83832550D01*
X170495843Y-83812630D01*
X170604157Y-83750095D01*
X170692595Y-83661657D01*
X170755130Y-83553343D01*
X170775050Y-83478997D01*
X171391524Y-84095471D01*
X171442636Y-84022478D01*
X171538764Y-83816331D01*
X171538769Y-83816317D01*
X171597639Y-83596610D01*
X171597641Y-83596599D01*
X171617466Y-83370002D01*
X171617466Y-83369997D01*
X171597641Y-83143400D01*
X171597639Y-83143389D01*
X171538769Y-82923682D01*
X171538764Y-82923668D01*
X171442636Y-82717521D01*
X171442632Y-82717513D01*
X171391525Y-82644526D01*
X170775050Y-83261001D01*
X170755130Y-83186657D01*
X170692595Y-83078343D01*
X170604157Y-82989905D01*
X170495843Y-82927370D01*
X170421497Y-82907449D01*
X171037972Y-82290974D01*
X170964978Y-82239863D01*
X170758831Y-82143735D01*
X170758817Y-82143730D01*
X170539110Y-82084860D01*
X170539099Y-82084858D01*
X170312502Y-82065034D01*
X170312498Y-82065034D01*
X170085900Y-82084858D01*
X170085889Y-82084860D01*
X169866182Y-82143730D01*
X169866173Y-82143734D01*
X169660012Y-82239868D01*
X169660007Y-82239871D01*
X169647236Y-82248813D01*
X169581029Y-82271138D01*
X169513263Y-82254124D01*
X169476852Y-82221546D01*
X169470046Y-82212454D01*
X169470044Y-82212453D01*
X169470044Y-82212452D01*
X169354835Y-82126206D01*
X169354828Y-82126202D01*
X169219982Y-82075908D01*
X169219983Y-82075908D01*
X169160383Y-82069501D01*
X169160381Y-82069500D01*
X169160373Y-82069500D01*
X169160364Y-82069500D01*
X167464629Y-82069500D01*
X167464623Y-82069501D01*
X167405016Y-82075908D01*
X167270171Y-82126202D01*
X167270164Y-82126206D01*
X167154955Y-82212452D01*
X167154952Y-82212455D01*
X167068706Y-82327664D01*
X167068702Y-82327671D01*
X167018408Y-82462517D01*
X167012001Y-82522116D01*
X167012000Y-82522135D01*
X167012000Y-84217870D01*
X167012001Y-84217876D01*
X167018408Y-84277483D01*
X167068702Y-84412328D01*
X167068706Y-84412335D01*
X167154952Y-84527544D01*
X167154955Y-84527547D01*
X167270164Y-84613793D01*
X167270171Y-84613797D01*
X167323427Y-84633660D01*
X167405017Y-84664091D01*
X167405027Y-84664092D01*
X167410413Y-84665365D01*
X167471131Y-84699935D01*
X167503521Y-84761843D01*
X167497299Y-84831435D01*
X167469588Y-84873725D01*
X167312451Y-85030862D01*
X167181932Y-85217265D01*
X167181931Y-85217267D01*
X167085761Y-85423502D01*
X167085758Y-85423511D01*
X167026866Y-85643302D01*
X167026864Y-85643313D01*
X167007032Y-85869998D01*
X167007032Y-85870001D01*
X161252079Y-85870001D01*
X161192262Y-85810184D01*
X161039523Y-85714211D01*
X160869254Y-85654631D01*
X160869249Y-85654630D01*
X160690004Y-85634435D01*
X160689996Y-85634435D01*
X160510750Y-85654630D01*
X160510745Y-85654631D01*
X160340476Y-85714211D01*
X160187737Y-85810184D01*
X160060184Y-85937737D01*
X159964211Y-86090476D01*
X159904631Y-86260745D01*
X159904630Y-86260750D01*
X159884435Y-86439996D01*
X159884435Y-86440003D01*
X143229990Y-86440003D01*
X143102834Y-86350967D01*
X143102830Y-86350965D01*
X143102828Y-86350964D01*
X142888663Y-86251097D01*
X142888659Y-86251096D01*
X142888655Y-86251094D01*
X142660413Y-86189938D01*
X142660403Y-86189936D01*
X142425001Y-86169341D01*
X142424999Y-86169341D01*
X142189596Y-86189936D01*
X142189586Y-86189938D01*
X141961344Y-86251094D01*
X141961335Y-86251098D01*
X141747171Y-86350964D01*
X141747169Y-86350965D01*
X141553600Y-86486503D01*
X141431673Y-86608430D01*
X141370350Y-86641914D01*
X141300658Y-86636930D01*
X141244725Y-86595058D01*
X141227810Y-86564081D01*
X141178797Y-86432671D01*
X141178793Y-86432664D01*
X141092547Y-86317455D01*
X141092544Y-86317452D01*
X140977335Y-86231206D01*
X140977328Y-86231202D01*
X140842482Y-86180908D01*
X140842483Y-86180908D01*
X140782883Y-86174501D01*
X140782881Y-86174500D01*
X140782873Y-86174500D01*
X140782864Y-86174500D01*
X138987129Y-86174500D01*
X138987123Y-86174501D01*
X138927516Y-86180908D01*
X138792671Y-86231202D01*
X138792664Y-86231206D01*
X138677455Y-86317452D01*
X138677452Y-86317455D01*
X138591206Y-86432664D01*
X138591202Y-86432671D01*
X138540908Y-86567517D01*
X138534501Y-86627116D01*
X138534500Y-86627135D01*
X138534500Y-88422870D01*
X138534501Y-88422876D01*
X138540908Y-88482483D01*
X138591202Y-88617328D01*
X138591206Y-88617335D01*
X138677452Y-88732544D01*
X138677455Y-88732547D01*
X138792664Y-88818793D01*
X138792671Y-88818797D01*
X138924081Y-88867810D01*
X138980015Y-88909681D01*
X139004432Y-88975145D01*
X138989580Y-89043418D01*
X138968430Y-89071673D01*
X138846503Y-89193600D01*
X138710965Y-89387169D01*
X138710964Y-89387171D01*
X138611098Y-89601335D01*
X138611094Y-89601344D01*
X138549938Y-89829586D01*
X138549936Y-89829596D01*
X138529341Y-90064999D01*
X138529341Y-90065000D01*
X138549936Y-90300403D01*
X138549938Y-90300413D01*
X138611094Y-90528655D01*
X138611096Y-90528659D01*
X138611097Y-90528663D01*
X138658574Y-90630478D01*
X138692633Y-90703517D01*
X138703125Y-90772595D01*
X138674605Y-90836379D01*
X138616129Y-90874618D01*
X138546261Y-90875173D01*
X138526261Y-90866261D01*
X138525795Y-90867231D01*
X138519529Y-90864213D01*
X138349254Y-90804631D01*
X138349249Y-90804630D01*
X138170004Y-90784435D01*
X138169996Y-90784435D01*
X137990750Y-90804630D01*
X137990745Y-90804631D01*
X137820476Y-90864211D01*
X137667737Y-90960184D01*
X137540184Y-91087737D01*
X137444211Y-91240476D01*
X137384631Y-91410745D01*
X137384630Y-91410750D01*
X137364435Y-91589996D01*
X137364435Y-91590003D01*
X136892075Y-91590003D01*
X136999816Y-91482262D01*
X137095789Y-91329522D01*
X137155368Y-91159255D01*
X137159845Y-91119522D01*
X137175565Y-90980003D01*
X137175565Y-90979996D01*
X137155369Y-90800750D01*
X137155368Y-90800745D01*
X137095788Y-90630476D01*
X136999815Y-90477737D01*
X136872262Y-90350184D01*
X136719523Y-90254211D01*
X136549254Y-90194631D01*
X136549249Y-90194630D01*
X136370004Y-90174435D01*
X136369996Y-90174435D01*
X136190750Y-90194630D01*
X136190745Y-90194631D01*
X136020476Y-90254211D01*
X135867737Y-90350184D01*
X135740184Y-90477737D01*
X135644211Y-90630476D01*
X135584631Y-90800745D01*
X135584630Y-90800750D01*
X135564435Y-90979996D01*
X135564435Y-90980003D01*
X134644609Y-90980003D01*
X134655368Y-90949255D01*
X134655369Y-90949249D01*
X134675565Y-90770003D01*
X134675565Y-90769996D01*
X134655369Y-90590750D01*
X134655368Y-90590745D01*
X134633645Y-90528664D01*
X134595789Y-90420478D01*
X134591223Y-90413212D01*
X134499815Y-90267737D01*
X134372262Y-90140184D01*
X134219523Y-90044211D01*
X134049254Y-89984631D01*
X134049249Y-89984630D01*
X133870004Y-89964435D01*
X133869996Y-89964435D01*
X133690750Y-89984630D01*
X133690745Y-89984631D01*
X133520476Y-90044211D01*
X133367737Y-90140184D01*
X133240184Y-90267737D01*
X133144211Y-90420476D01*
X133084631Y-90590745D01*
X133084630Y-90590750D01*
X133064435Y-90769996D01*
X133064435Y-90770003D01*
X122893498Y-90770003D01*
X122802365Y-90549987D01*
X122802363Y-90549984D01*
X122668719Y-90331897D01*
X122665465Y-90328087D01*
X122104114Y-90889437D01*
X122103260Y-90887374D01*
X122010238Y-90748156D01*
X121891844Y-90629762D01*
X121752626Y-90536740D01*
X121750561Y-90535884D01*
X122311912Y-89974533D01*
X122308107Y-89971284D01*
X122308098Y-89971277D01*
X122090015Y-89837636D01*
X122090012Y-89837634D01*
X121853702Y-89739752D01*
X121604988Y-89680042D01*
X121604989Y-89680042D01*
X121350000Y-89659975D01*
X121095010Y-89680042D01*
X120846297Y-89739752D01*
X120609987Y-89837634D01*
X120609984Y-89837636D01*
X120391893Y-89971282D01*
X120388086Y-89974532D01*
X120949438Y-90535884D01*
X120947374Y-90536740D01*
X120808156Y-90629762D01*
X120689762Y-90748156D01*
X120596740Y-90887374D01*
X120595884Y-90889438D01*
X120034532Y-90328086D01*
X120031282Y-90331893D01*
X119897636Y-90549984D01*
X119897634Y-90549987D01*
X119799752Y-90786297D01*
X119740042Y-91035010D01*
X119719975Y-91290000D01*
X117900024Y-91290000D01*
X117879957Y-91035010D01*
X117820247Y-90786297D01*
X117722365Y-90549987D01*
X117722363Y-90549984D01*
X117588719Y-90331897D01*
X117585465Y-90328087D01*
X117024114Y-90889437D01*
X117023260Y-90887374D01*
X116930238Y-90748156D01*
X116811844Y-90629762D01*
X116672626Y-90536740D01*
X116670561Y-90535884D01*
X117231912Y-89974533D01*
X117228107Y-89971284D01*
X117228098Y-89971277D01*
X117010015Y-89837636D01*
X117010012Y-89837634D01*
X116773702Y-89739752D01*
X116524988Y-89680042D01*
X116524989Y-89680042D01*
X116270000Y-89659975D01*
X116015010Y-89680042D01*
X115766297Y-89739752D01*
X115529987Y-89837634D01*
X115529984Y-89837636D01*
X115311893Y-89971282D01*
X115308086Y-89974532D01*
X115869438Y-90535884D01*
X115867374Y-90536740D01*
X115728156Y-90629762D01*
X115609762Y-90748156D01*
X115516740Y-90887374D01*
X115515884Y-90889438D01*
X114954532Y-90328086D01*
X114951282Y-90331893D01*
X114920227Y-90382572D01*
X114868415Y-90429447D01*
X114799486Y-90440870D01*
X114735323Y-90413212D01*
X114696298Y-90355257D01*
X114690500Y-90317782D01*
X114690500Y-82645824D01*
X134949435Y-82645824D01*
X134969630Y-82825070D01*
X134969631Y-82825075D01*
X135029211Y-82995344D01*
X135081363Y-83078343D01*
X135125184Y-83148083D01*
X135252738Y-83275637D01*
X135270079Y-83286533D01*
X135402918Y-83370002D01*
X135405478Y-83371610D01*
X135485426Y-83399585D01*
X135575745Y-83431189D01*
X135575750Y-83431190D01*
X135754996Y-83451386D01*
X135755000Y-83451386D01*
X135755004Y-83451386D01*
X135934249Y-83431190D01*
X135934252Y-83431189D01*
X135934255Y-83431189D01*
X136051958Y-83390003D01*
X136934435Y-83390003D01*
X136954630Y-83569249D01*
X136954631Y-83569254D01*
X137014211Y-83739523D01*
X137090384Y-83860750D01*
X137110184Y-83892262D01*
X137237738Y-84019816D01*
X137390478Y-84115789D01*
X137537608Y-84167272D01*
X137560745Y-84175368D01*
X137560750Y-84175369D01*
X137739996Y-84195565D01*
X137740000Y-84195565D01*
X137740004Y-84195565D01*
X137919249Y-84175369D01*
X137919252Y-84175368D01*
X137919255Y-84175368D01*
X138089522Y-84115789D01*
X138242262Y-84019816D01*
X138369816Y-83892262D01*
X138465789Y-83739522D01*
X138525368Y-83569255D01*
X138527621Y-83549262D01*
X138545565Y-83390003D01*
X138545565Y-83389996D01*
X138525369Y-83210750D01*
X138525368Y-83210745D01*
X138501799Y-83143389D01*
X138465789Y-83040478D01*
X138369816Y-82887738D01*
X138242262Y-82760184D01*
X138089523Y-82664211D01*
X138068115Y-82656720D01*
X139902006Y-82656720D01*
X139922201Y-82835966D01*
X139922202Y-82835971D01*
X139981782Y-83006240D01*
X140009316Y-83050059D01*
X140077755Y-83158979D01*
X140128896Y-83210120D01*
X140137432Y-83218656D01*
X140170916Y-83279980D01*
X140165931Y-83349671D01*
X140154744Y-83372309D01*
X140074211Y-83500476D01*
X140014631Y-83670745D01*
X140014630Y-83670750D01*
X139994435Y-83849996D01*
X139994435Y-83850003D01*
X140014630Y-84029249D01*
X140014631Y-84029254D01*
X140074211Y-84199523D01*
X140123197Y-84277483D01*
X140170184Y-84352262D01*
X140297738Y-84479816D01*
X140362876Y-84520745D01*
X140432562Y-84564532D01*
X140450478Y-84575789D01*
X140620745Y-84635368D01*
X140620750Y-84635369D01*
X140799996Y-84655565D01*
X140800000Y-84655565D01*
X140800004Y-84655565D01*
X140979249Y-84635369D01*
X140979252Y-84635368D01*
X140979255Y-84635368D01*
X141149522Y-84575789D01*
X141302262Y-84479816D01*
X141429816Y-84352262D01*
X141525789Y-84199522D01*
X141585368Y-84029255D01*
X141599352Y-83905142D01*
X142423881Y-83905142D01*
X142444076Y-84084388D01*
X142444079Y-84084401D01*
X142503655Y-84254657D01*
X142503657Y-84254661D01*
X142551584Y-84330937D01*
X142570584Y-84398174D01*
X142563632Y-84437862D01*
X142534631Y-84520745D01*
X142534631Y-84520746D01*
X142514435Y-84699996D01*
X142514435Y-84700003D01*
X142534630Y-84879249D01*
X142534631Y-84879254D01*
X142594211Y-85049523D01*
X142690184Y-85202262D01*
X142817738Y-85329816D01*
X142908080Y-85386582D01*
X142966852Y-85423511D01*
X142970478Y-85425789D01*
X143140745Y-85485368D01*
X143140750Y-85485369D01*
X143319996Y-85505565D01*
X143320000Y-85505565D01*
X143320004Y-85505565D01*
X143499249Y-85485369D01*
X143499252Y-85485368D01*
X143499255Y-85485368D01*
X143669522Y-85425789D01*
X143822262Y-85329816D01*
X143949816Y-85202262D01*
X144045789Y-85049522D01*
X144105368Y-84879255D01*
X144106416Y-84869953D01*
X144125565Y-84700003D01*
X144125565Y-84699996D01*
X144105369Y-84520750D01*
X144105368Y-84520745D01*
X144066611Y-84409984D01*
X144045789Y-84350478D01*
X143997860Y-84274199D01*
X143978860Y-84206962D01*
X143985813Y-84167272D01*
X144003828Y-84115789D01*
X144014814Y-84084394D01*
X144018522Y-84051485D01*
X144035011Y-83905142D01*
X144035011Y-83905135D01*
X144014815Y-83725889D01*
X144014812Y-83725876D01*
X143955237Y-83555621D01*
X143955235Y-83555618D01*
X143955235Y-83555617D01*
X143951240Y-83549259D01*
X143932240Y-83482025D01*
X143951241Y-83417315D01*
X143962383Y-83399585D01*
X144005755Y-83275636D01*
X144021960Y-83229325D01*
X144021963Y-83229312D01*
X144042159Y-83050066D01*
X144042159Y-83050059D01*
X144023515Y-82884588D01*
X144035569Y-82815767D01*
X144059055Y-82783023D01*
X144109813Y-82732265D01*
X144109813Y-82732264D01*
X144109816Y-82732262D01*
X144205789Y-82579522D01*
X144265368Y-82409255D01*
X144269139Y-82375788D01*
X144285565Y-82230003D01*
X144285565Y-82229996D01*
X144265369Y-82050750D01*
X144265368Y-82050745D01*
X144265108Y-82050003D01*
X149194435Y-82050003D01*
X149214630Y-82229249D01*
X149214631Y-82229254D01*
X149274211Y-82399523D01*
X149370184Y-82552262D01*
X149376396Y-82558474D01*
X149409881Y-82619797D01*
X149404897Y-82689489D01*
X149393709Y-82712127D01*
X149294211Y-82870476D01*
X149234631Y-83040745D01*
X149234630Y-83040750D01*
X149214435Y-83219996D01*
X149214435Y-83220003D01*
X149234630Y-83399249D01*
X149234631Y-83399254D01*
X149270051Y-83500478D01*
X149294211Y-83569522D01*
X149352103Y-83661657D01*
X149355682Y-83667352D01*
X149374682Y-83734588D01*
X149355682Y-83799295D01*
X149304209Y-83881213D01*
X149244633Y-84051472D01*
X149244630Y-84051485D01*
X149224435Y-84230731D01*
X149224435Y-84230738D01*
X149244630Y-84409984D01*
X149244631Y-84409989D01*
X149304211Y-84580258D01*
X149379452Y-84700003D01*
X149400184Y-84732997D01*
X149527738Y-84860551D01*
X149680478Y-84956524D01*
X149850745Y-85016103D01*
X149850750Y-85016104D01*
X150029996Y-85036300D01*
X150030000Y-85036300D01*
X150030004Y-85036300D01*
X150209249Y-85016104D01*
X150209252Y-85016103D01*
X150209255Y-85016103D01*
X150379522Y-84956524D01*
X150532262Y-84860551D01*
X150659816Y-84732997D01*
X150755789Y-84580257D01*
X150815368Y-84409990D01*
X150815369Y-84409984D01*
X150835565Y-84230738D01*
X150835565Y-84230731D01*
X150815369Y-84051485D01*
X150815368Y-84051480D01*
X150811352Y-84040003D01*
X155354435Y-84040003D01*
X155374630Y-84219249D01*
X155374631Y-84219254D01*
X155434211Y-84389523D01*
X155516667Y-84520750D01*
X155530184Y-84542262D01*
X155657738Y-84669816D01*
X155748080Y-84726582D01*
X155773749Y-84742711D01*
X155810478Y-84765789D01*
X155943693Y-84812403D01*
X155980745Y-84825368D01*
X155980750Y-84825369D01*
X156159996Y-84845565D01*
X156160000Y-84845565D01*
X156160004Y-84845565D01*
X156339249Y-84825369D01*
X156339252Y-84825368D01*
X156339255Y-84825368D01*
X156509522Y-84765789D01*
X156662262Y-84669816D01*
X156789816Y-84542262D01*
X156885789Y-84389522D01*
X156945368Y-84219255D01*
X156945369Y-84219249D01*
X156965565Y-84040003D01*
X156965565Y-84039996D01*
X156945369Y-83860750D01*
X156945368Y-83860745D01*
X156906650Y-83750095D01*
X156885789Y-83690478D01*
X156789816Y-83537738D01*
X156662262Y-83410184D01*
X156509523Y-83314211D01*
X156339254Y-83254631D01*
X156339249Y-83254630D01*
X156160004Y-83234435D01*
X156159996Y-83234435D01*
X155980750Y-83254630D01*
X155980745Y-83254631D01*
X155810476Y-83314211D01*
X155657737Y-83410184D01*
X155530184Y-83537737D01*
X155434211Y-83690476D01*
X155374631Y-83860745D01*
X155374630Y-83860750D01*
X155354435Y-84039996D01*
X155354435Y-84040003D01*
X150811352Y-84040003D01*
X150755788Y-83881210D01*
X150694318Y-83783383D01*
X150675317Y-83716146D01*
X150694318Y-83651437D01*
X150745788Y-83569524D01*
X150745882Y-83569255D01*
X150805368Y-83399255D01*
X150805369Y-83399249D01*
X150825565Y-83220003D01*
X150825565Y-83219996D01*
X150805369Y-83040750D01*
X150805367Y-83040740D01*
X150791370Y-83000741D01*
X150788432Y-82992347D01*
X150784870Y-82922569D01*
X150819598Y-82861942D01*
X150881591Y-82829714D01*
X150951167Y-82836118D01*
X150965862Y-82843567D01*
X150970470Y-82845786D01*
X150970477Y-82845788D01*
X150970478Y-82845789D01*
X151111115Y-82895000D01*
X151140745Y-82905368D01*
X151140750Y-82905369D01*
X151319996Y-82925565D01*
X151320000Y-82925565D01*
X151320004Y-82925565D01*
X151499249Y-82905369D01*
X151499252Y-82905368D01*
X151499255Y-82905368D01*
X151669522Y-82845789D01*
X151822262Y-82749816D01*
X151949816Y-82622262D01*
X152045789Y-82469522D01*
X152105368Y-82299255D01*
X152105701Y-82296299D01*
X152125565Y-82120003D01*
X152125565Y-82119996D01*
X152105369Y-81940750D01*
X152105368Y-81940745D01*
X152081085Y-81871348D01*
X152045789Y-81770478D01*
X151970089Y-81650003D01*
X155354435Y-81650003D01*
X155374630Y-81829249D01*
X155374631Y-81829254D01*
X155434211Y-81999523D01*
X155482208Y-82075909D01*
X155530184Y-82152262D01*
X155657738Y-82279816D01*
X155810478Y-82375789D01*
X155980745Y-82435368D01*
X155980750Y-82435369D01*
X156159996Y-82455565D01*
X156160000Y-82455565D01*
X156160004Y-82455565D01*
X156339249Y-82435369D01*
X156339252Y-82435368D01*
X156339255Y-82435368D01*
X156509522Y-82375789D01*
X156662262Y-82279816D01*
X156789816Y-82152262D01*
X156885789Y-81999522D01*
X156945368Y-81829255D01*
X156956806Y-81727738D01*
X156965565Y-81650003D01*
X156965565Y-81649996D01*
X156945369Y-81470750D01*
X156945368Y-81470745D01*
X156922492Y-81405369D01*
X156885789Y-81300478D01*
X156863265Y-81264632D01*
X156789815Y-81147737D01*
X156662262Y-81020184D01*
X156509523Y-80924211D01*
X156339254Y-80864631D01*
X156339249Y-80864630D01*
X156160004Y-80844435D01*
X156159996Y-80844435D01*
X155980750Y-80864630D01*
X155980745Y-80864631D01*
X155810476Y-80924211D01*
X155657737Y-81020184D01*
X155530184Y-81147737D01*
X155434211Y-81300476D01*
X155374631Y-81470745D01*
X155374630Y-81470750D01*
X155354435Y-81649996D01*
X155354435Y-81650003D01*
X151970089Y-81650003D01*
X151949816Y-81617738D01*
X151822262Y-81490184D01*
X151791325Y-81470745D01*
X151669523Y-81394211D01*
X151499254Y-81334631D01*
X151499249Y-81334630D01*
X151320004Y-81314435D01*
X151319996Y-81314435D01*
X151140750Y-81334630D01*
X151140745Y-81334631D01*
X150970476Y-81394211D01*
X150817737Y-81490184D01*
X150817735Y-81490185D01*
X150782678Y-81525242D01*
X150721354Y-81558726D01*
X150651663Y-81553740D01*
X150607318Y-81525240D01*
X150502262Y-81420184D01*
X150349523Y-81324211D01*
X150179254Y-81264631D01*
X150179249Y-81264630D01*
X150000004Y-81244435D01*
X149999996Y-81244435D01*
X149820750Y-81264630D01*
X149820745Y-81264631D01*
X149650476Y-81324211D01*
X149497737Y-81420184D01*
X149370184Y-81547737D01*
X149274211Y-81700476D01*
X149214631Y-81870745D01*
X149214630Y-81870750D01*
X149194435Y-82049996D01*
X149194435Y-82050003D01*
X144265108Y-82050003D01*
X144223442Y-81930928D01*
X144205789Y-81880478D01*
X144199676Y-81870750D01*
X144109815Y-81727737D01*
X143982262Y-81600184D01*
X143829523Y-81504211D01*
X143659254Y-81444631D01*
X143659249Y-81444630D01*
X143480004Y-81424435D01*
X143479996Y-81424435D01*
X143300750Y-81444630D01*
X143300745Y-81444631D01*
X143130476Y-81504211D01*
X142977737Y-81600184D01*
X142850184Y-81727737D01*
X142754211Y-81880476D01*
X142694631Y-82050745D01*
X142694630Y-82050750D01*
X142674435Y-82229996D01*
X142674435Y-82230004D01*
X142693078Y-82395473D01*
X142681023Y-82464295D01*
X142657541Y-82497036D01*
X142606779Y-82547799D01*
X142510805Y-82700539D01*
X142451225Y-82870808D01*
X142451224Y-82870813D01*
X142431029Y-83050059D01*
X142431029Y-83050066D01*
X142451224Y-83229312D01*
X142451227Y-83229325D01*
X142510803Y-83399581D01*
X142510804Y-83399583D01*
X142510805Y-83399585D01*
X142514800Y-83405943D01*
X142533798Y-83473180D01*
X142514801Y-83537879D01*
X142503655Y-83555618D01*
X142444079Y-83725876D01*
X142444076Y-83725889D01*
X142423881Y-83905135D01*
X142423881Y-83905142D01*
X141599352Y-83905142D01*
X141605565Y-83850003D01*
X141605565Y-83849996D01*
X141585369Y-83670750D01*
X141585368Y-83670745D01*
X141549949Y-83569524D01*
X141525789Y-83500478D01*
X141507840Y-83471913D01*
X141462186Y-83399254D01*
X141429816Y-83347738D01*
X141370139Y-83288061D01*
X141336654Y-83226738D01*
X141341638Y-83157046D01*
X141352826Y-83134408D01*
X141388054Y-83078343D01*
X141433360Y-83006239D01*
X141492939Y-82835972D01*
X141494167Y-82825075D01*
X141513136Y-82656720D01*
X141513136Y-82656713D01*
X141492940Y-82477467D01*
X141492939Y-82477462D01*
X141488332Y-82464295D01*
X141433360Y-82307195D01*
X141428370Y-82299254D01*
X141337386Y-82154454D01*
X141209833Y-82026901D01*
X141057094Y-81930928D01*
X140886825Y-81871348D01*
X140886820Y-81871347D01*
X140707575Y-81851152D01*
X140707567Y-81851152D01*
X140528321Y-81871347D01*
X140528316Y-81871348D01*
X140358047Y-81930928D01*
X140205308Y-82026901D01*
X140077755Y-82154454D01*
X139981782Y-82307193D01*
X139922202Y-82477462D01*
X139922201Y-82477467D01*
X139902006Y-82656713D01*
X139902006Y-82656720D01*
X138068115Y-82656720D01*
X137919254Y-82604631D01*
X137919249Y-82604630D01*
X137740004Y-82584435D01*
X137739996Y-82584435D01*
X137560750Y-82604630D01*
X137560745Y-82604631D01*
X137390476Y-82664211D01*
X137237737Y-82760184D01*
X137110184Y-82887737D01*
X137014211Y-83040476D01*
X136954631Y-83210745D01*
X136954630Y-83210750D01*
X136934435Y-83389996D01*
X136934435Y-83390003D01*
X136051958Y-83390003D01*
X136104522Y-83371610D01*
X136257262Y-83275637D01*
X136384816Y-83148083D01*
X136480789Y-82995343D01*
X136540368Y-82825076D01*
X136541417Y-82815767D01*
X136560565Y-82645824D01*
X136560565Y-82645817D01*
X136540369Y-82466571D01*
X136540368Y-82466566D01*
X136508603Y-82375788D01*
X136480789Y-82296299D01*
X136470431Y-82279815D01*
X136391662Y-82154455D01*
X136384816Y-82143559D01*
X136257262Y-82016005D01*
X136231031Y-81999523D01*
X136104523Y-81920032D01*
X135934254Y-81860452D01*
X135934249Y-81860451D01*
X135755004Y-81840256D01*
X135754996Y-81840256D01*
X135575750Y-81860451D01*
X135575745Y-81860452D01*
X135405476Y-81920032D01*
X135252737Y-82016005D01*
X135125184Y-82143558D01*
X135029211Y-82296297D01*
X134969631Y-82466566D01*
X134969630Y-82466571D01*
X134949435Y-82645817D01*
X134949435Y-82645824D01*
X114690500Y-82645824D01*
X114690500Y-80620003D01*
X140034435Y-80620003D01*
X140054630Y-80799249D01*
X140054631Y-80799254D01*
X140114211Y-80969523D01*
X140146044Y-81020184D01*
X140210184Y-81122262D01*
X140337738Y-81249816D01*
X140361316Y-81264631D01*
X140472721Y-81334632D01*
X140490478Y-81345789D01*
X140628860Y-81394211D01*
X140660745Y-81405368D01*
X140660750Y-81405369D01*
X140839996Y-81425565D01*
X140840000Y-81425565D01*
X140840004Y-81425565D01*
X141019249Y-81405369D01*
X141019252Y-81405368D01*
X141019255Y-81405368D01*
X141189522Y-81345789D01*
X141342262Y-81249816D01*
X141469816Y-81122262D01*
X141565789Y-80969522D01*
X141625368Y-80799255D01*
X141625369Y-80799249D01*
X141645565Y-80620003D01*
X141645565Y-80619996D01*
X141625369Y-80440750D01*
X141625368Y-80440745D01*
X141565788Y-80270476D01*
X141469815Y-80117737D01*
X141342262Y-79990184D01*
X141189523Y-79894211D01*
X141019254Y-79834631D01*
X141019249Y-79834630D01*
X140840004Y-79814435D01*
X140839996Y-79814435D01*
X140660750Y-79834630D01*
X140660745Y-79834631D01*
X140490476Y-79894211D01*
X140337737Y-79990184D01*
X140210184Y-80117737D01*
X140114211Y-80270476D01*
X140054631Y-80440745D01*
X140054630Y-80440750D01*
X140034435Y-80619996D01*
X140034435Y-80620003D01*
X114690500Y-80620003D01*
X114690500Y-78667870D01*
X147089500Y-78667870D01*
X147089501Y-78667876D01*
X147095908Y-78727483D01*
X147146202Y-78862328D01*
X147146206Y-78862335D01*
X147232452Y-78977544D01*
X147232455Y-78977547D01*
X147347664Y-79063793D01*
X147347671Y-79063797D01*
X147482517Y-79114091D01*
X147482516Y-79114091D01*
X147489444Y-79114835D01*
X147542127Y-79120500D01*
X149337872Y-79120499D01*
X149397483Y-79114091D01*
X149532331Y-79063796D01*
X149647546Y-78977546D01*
X149733796Y-78862331D01*
X149782810Y-78730916D01*
X149824681Y-78674984D01*
X149890145Y-78650566D01*
X149958418Y-78665417D01*
X149986673Y-78686569D01*
X150108599Y-78808495D01*
X150205384Y-78876265D01*
X150302165Y-78944032D01*
X150302167Y-78944033D01*
X150302170Y-78944035D01*
X150516337Y-79043903D01*
X150744592Y-79105063D01*
X150921034Y-79120500D01*
X150979999Y-79125659D01*
X150980000Y-79125659D01*
X150980001Y-79125659D01*
X151038966Y-79120500D01*
X151215408Y-79105063D01*
X151443663Y-79043903D01*
X151657830Y-78944035D01*
X151851401Y-78808495D01*
X152018495Y-78641401D01*
X152148425Y-78455842D01*
X152203002Y-78412217D01*
X152272500Y-78405023D01*
X152334855Y-78436546D01*
X152351575Y-78455842D01*
X152481500Y-78641395D01*
X152481505Y-78641401D01*
X152648599Y-78808495D01*
X152745384Y-78876265D01*
X152842165Y-78944032D01*
X152842167Y-78944033D01*
X152842170Y-78944035D01*
X153056337Y-79043903D01*
X153284592Y-79105063D01*
X153461034Y-79120500D01*
X153519999Y-79125659D01*
X153520000Y-79125659D01*
X153520001Y-79125659D01*
X153578966Y-79120500D01*
X153755408Y-79105063D01*
X153983663Y-79043903D01*
X154163587Y-78960003D01*
X155314435Y-78960003D01*
X155334630Y-79139249D01*
X155334631Y-79139254D01*
X155394211Y-79309523D01*
X155490184Y-79462262D01*
X155617738Y-79589816D01*
X155770478Y-79685789D01*
X155930214Y-79741683D01*
X155940745Y-79745368D01*
X155940750Y-79745369D01*
X156119996Y-79765565D01*
X156120000Y-79765565D01*
X156120004Y-79765565D01*
X156299249Y-79745369D01*
X156299252Y-79745368D01*
X156299255Y-79745368D01*
X156469522Y-79685789D01*
X156622262Y-79589816D01*
X156749816Y-79462262D01*
X156845789Y-79309522D01*
X156905368Y-79139255D01*
X156907481Y-79120500D01*
X156925565Y-78960003D01*
X156925565Y-78959996D01*
X156905369Y-78780750D01*
X156905368Y-78780745D01*
X156872414Y-78686569D01*
X156849123Y-78620005D01*
X170667557Y-78620005D01*
X170687307Y-78933942D01*
X170687308Y-78933949D01*
X170746255Y-79242958D01*
X170843463Y-79542132D01*
X170843465Y-79542137D01*
X170977400Y-79826761D01*
X170977403Y-79826767D01*
X171145957Y-80092367D01*
X171145960Y-80092371D01*
X171236786Y-80202160D01*
X172200413Y-79238533D01*
X172295329Y-79369175D01*
X172423325Y-79497171D01*
X172553965Y-79592086D01*
X171587471Y-80558579D01*
X171587472Y-80558581D01*
X171830272Y-80734985D01*
X171830290Y-80734996D01*
X172105947Y-80886540D01*
X172105955Y-80886544D01*
X172398426Y-81002340D01*
X172703120Y-81080573D01*
X172703129Y-81080575D01*
X173015201Y-81119999D01*
X173015215Y-81120000D01*
X173329785Y-81120000D01*
X173329798Y-81119999D01*
X173641870Y-81080575D01*
X173641879Y-81080573D01*
X173946573Y-81002340D01*
X174239044Y-80886544D01*
X174239052Y-80886540D01*
X174514709Y-80734996D01*
X174514719Y-80734990D01*
X174757526Y-80558579D01*
X174757527Y-80558579D01*
X173791033Y-79592086D01*
X173921675Y-79497171D01*
X174049671Y-79369175D01*
X174144586Y-79238534D01*
X175108212Y-80202160D01*
X175199044Y-80092364D01*
X175367596Y-79826767D01*
X175367599Y-79826761D01*
X175501534Y-79542137D01*
X175501536Y-79542132D01*
X175598744Y-79242958D01*
X175657691Y-78933949D01*
X175657692Y-78933942D01*
X175677443Y-78620005D01*
X175677443Y-78619994D01*
X175657692Y-78306057D01*
X175657691Y-78306050D01*
X175598744Y-77997041D01*
X175501536Y-77697867D01*
X175501534Y-77697862D01*
X175367599Y-77413238D01*
X175367596Y-77413232D01*
X175199042Y-77147632D01*
X175199039Y-77147628D01*
X175108212Y-77037838D01*
X174144585Y-78001465D01*
X174049671Y-77870825D01*
X173921675Y-77742829D01*
X173791033Y-77647913D01*
X174757527Y-76681419D01*
X174757526Y-76681417D01*
X174514727Y-76505014D01*
X174514709Y-76505003D01*
X174239052Y-76353459D01*
X174239044Y-76353455D01*
X173946573Y-76237659D01*
X173641879Y-76159426D01*
X173641870Y-76159424D01*
X173329798Y-76120000D01*
X173015201Y-76120000D01*
X172703129Y-76159424D01*
X172703120Y-76159426D01*
X172398426Y-76237659D01*
X172105955Y-76353455D01*
X172105947Y-76353459D01*
X171830287Y-76505004D01*
X171830282Y-76505007D01*
X171587472Y-76681418D01*
X171587471Y-76681419D01*
X172553966Y-77647913D01*
X172423325Y-77742829D01*
X172295329Y-77870825D01*
X172200413Y-78001465D01*
X171236786Y-77037838D01*
X171236785Y-77037838D01*
X171145959Y-77147629D01*
X171145957Y-77147632D01*
X170977403Y-77413232D01*
X170977400Y-77413238D01*
X170843465Y-77697862D01*
X170843463Y-77697867D01*
X170746255Y-77997041D01*
X170687308Y-78306050D01*
X170687307Y-78306057D01*
X170667557Y-78619994D01*
X170667557Y-78620005D01*
X156849123Y-78620005D01*
X156845789Y-78610478D01*
X156749816Y-78457738D01*
X156622262Y-78330184D01*
X156583853Y-78306050D01*
X156469523Y-78234211D01*
X156299254Y-78174631D01*
X156299249Y-78174630D01*
X156120004Y-78154435D01*
X156119996Y-78154435D01*
X155940750Y-78174630D01*
X155940745Y-78174631D01*
X155770476Y-78234211D01*
X155617737Y-78330184D01*
X155490184Y-78457737D01*
X155394211Y-78610476D01*
X155334631Y-78780745D01*
X155334630Y-78780750D01*
X155314435Y-78959996D01*
X155314435Y-78960003D01*
X154163587Y-78960003D01*
X154197830Y-78944035D01*
X154391401Y-78808495D01*
X154558495Y-78641401D01*
X154694035Y-78447830D01*
X154793903Y-78233663D01*
X154855063Y-78005408D01*
X154875659Y-77770000D01*
X154855063Y-77534592D01*
X154793903Y-77306337D01*
X154694035Y-77092171D01*
X154688425Y-77084158D01*
X154558494Y-76898597D01*
X154391402Y-76731506D01*
X154391395Y-76731501D01*
X154197834Y-76595967D01*
X154197830Y-76595965D01*
X154197828Y-76595964D01*
X153983663Y-76496097D01*
X153983659Y-76496096D01*
X153983655Y-76496094D01*
X153755413Y-76434938D01*
X153755403Y-76434936D01*
X153520001Y-76414341D01*
X153519999Y-76414341D01*
X153284596Y-76434936D01*
X153284586Y-76434938D01*
X153056344Y-76496094D01*
X153056335Y-76496098D01*
X152842171Y-76595964D01*
X152842169Y-76595965D01*
X152648597Y-76731505D01*
X152481505Y-76898597D01*
X152351575Y-77084158D01*
X152296998Y-77127783D01*
X152227500Y-77134977D01*
X152165145Y-77103454D01*
X152148425Y-77084158D01*
X152018494Y-76898597D01*
X151851402Y-76731506D01*
X151851395Y-76731501D01*
X151657834Y-76595967D01*
X151657830Y-76595965D01*
X151657828Y-76595964D01*
X151443663Y-76496097D01*
X151443659Y-76496096D01*
X151443655Y-76496094D01*
X151215413Y-76434938D01*
X151215403Y-76434936D01*
X150980001Y-76414341D01*
X150979999Y-76414341D01*
X150744596Y-76434936D01*
X150744586Y-76434938D01*
X150516344Y-76496094D01*
X150516335Y-76496098D01*
X150302171Y-76595964D01*
X150302169Y-76595965D01*
X150108600Y-76731503D01*
X149986673Y-76853430D01*
X149925350Y-76886914D01*
X149855658Y-76881930D01*
X149799725Y-76840058D01*
X149782810Y-76809081D01*
X149733797Y-76677671D01*
X149733793Y-76677664D01*
X149647547Y-76562455D01*
X149647544Y-76562452D01*
X149532335Y-76476206D01*
X149532328Y-76476202D01*
X149397482Y-76425908D01*
X149397483Y-76425908D01*
X149337883Y-76419501D01*
X149337881Y-76419500D01*
X149337873Y-76419500D01*
X149337864Y-76419500D01*
X147542129Y-76419500D01*
X147542123Y-76419501D01*
X147482516Y-76425908D01*
X147347671Y-76476202D01*
X147347664Y-76476206D01*
X147232455Y-76562452D01*
X147232452Y-76562455D01*
X147146206Y-76677664D01*
X147146202Y-76677671D01*
X147095908Y-76812517D01*
X147089501Y-76872116D01*
X147089500Y-76872135D01*
X147089500Y-78667870D01*
X114690500Y-78667870D01*
X114690500Y-76380003D01*
X155314435Y-76380003D01*
X155334630Y-76559249D01*
X155334631Y-76559254D01*
X155394211Y-76729523D01*
X155444201Y-76809081D01*
X155490184Y-76882262D01*
X155617738Y-77009816D01*
X155662335Y-77037838D01*
X155766761Y-77103454D01*
X155770478Y-77105789D01*
X155940745Y-77165368D01*
X155940750Y-77165369D01*
X156119996Y-77185565D01*
X156120000Y-77185565D01*
X156120004Y-77185565D01*
X156299249Y-77165369D01*
X156299252Y-77165368D01*
X156299255Y-77165368D01*
X156469522Y-77105789D01*
X156622262Y-77009816D01*
X156749816Y-76882262D01*
X156845789Y-76729522D01*
X156905368Y-76559255D01*
X156905369Y-76559249D01*
X156925565Y-76380003D01*
X156925565Y-76379996D01*
X156905369Y-76200750D01*
X156905368Y-76200745D01*
X156845788Y-76030476D01*
X156749815Y-75877737D01*
X156622262Y-75750184D01*
X156469523Y-75654211D01*
X156299254Y-75594631D01*
X156299249Y-75594630D01*
X156120004Y-75574435D01*
X156119996Y-75574435D01*
X155940750Y-75594630D01*
X155940745Y-75594631D01*
X155770476Y-75654211D01*
X155617737Y-75750184D01*
X155490184Y-75877737D01*
X155394211Y-76030476D01*
X155334631Y-76200745D01*
X155334630Y-76200750D01*
X155314435Y-76379996D01*
X155314435Y-76380003D01*
X114690500Y-76380003D01*
X114690500Y-74389458D01*
X114710185Y-74322419D01*
X114762989Y-74276664D01*
X114832147Y-74266720D01*
X114854049Y-74276722D01*
X114884040Y-74278294D01*
X116378692Y-72783642D01*
X116452532Y-72885274D01*
X116630614Y-73063356D01*
X116732244Y-73137195D01*
X115237592Y-74631847D01*
X115237593Y-74631848D01*
X115495150Y-74840412D01*
X115820400Y-75051633D01*
X116165949Y-75227699D01*
X116528007Y-75366681D01*
X116902613Y-75467056D01*
X116902620Y-75467057D01*
X117285656Y-75527724D01*
X117672943Y-75548022D01*
X117672945Y-75548022D01*
X118060231Y-75527724D01*
X118443267Y-75467057D01*
X118443274Y-75467056D01*
X118817880Y-75366681D01*
X119179938Y-75227699D01*
X119525487Y-75051633D01*
X119543396Y-75040003D01*
X159884435Y-75040003D01*
X159904630Y-75219249D01*
X159904631Y-75219254D01*
X159964211Y-75389523D01*
X160038429Y-75507639D01*
X160060184Y-75542262D01*
X160187738Y-75669816D01*
X160278080Y-75726582D01*
X160332520Y-75760789D01*
X160340478Y-75765789D01*
X160496456Y-75820368D01*
X160510745Y-75825368D01*
X160510750Y-75825369D01*
X160689996Y-75845565D01*
X160690000Y-75845565D01*
X160690004Y-75845565D01*
X160869249Y-75825369D01*
X160869252Y-75825368D01*
X160869255Y-75825368D01*
X161039522Y-75765789D01*
X161192262Y-75669816D01*
X161254819Y-75607259D01*
X161316142Y-75573774D01*
X161385834Y-75578758D01*
X161430181Y-75607259D01*
X161487738Y-75664816D01*
X161640478Y-75760789D01*
X161810745Y-75820368D01*
X161810750Y-75820369D01*
X161989996Y-75840565D01*
X161990000Y-75840565D01*
X161990004Y-75840565D01*
X162169249Y-75820369D01*
X162169252Y-75820368D01*
X162169255Y-75820368D01*
X162339522Y-75760789D01*
X162492262Y-75664816D01*
X162619816Y-75537262D01*
X162715789Y-75384522D01*
X162775368Y-75214255D01*
X162794023Y-75048689D01*
X162795565Y-75035003D01*
X162795565Y-75034996D01*
X162775369Y-74855750D01*
X162775368Y-74855745D01*
X162715788Y-74685475D01*
X162654051Y-74587223D01*
X162635050Y-74519986D01*
X162654051Y-74455277D01*
X162715788Y-74357024D01*
X162721912Y-74339523D01*
X162775368Y-74186755D01*
X162775369Y-74186749D01*
X162795565Y-74007503D01*
X162795565Y-74007496D01*
X162775369Y-73828250D01*
X162775368Y-73828245D01*
X162715788Y-73657975D01*
X162654051Y-73559723D01*
X162635050Y-73492486D01*
X162654051Y-73427777D01*
X162715788Y-73329524D01*
X162718353Y-73322194D01*
X162775368Y-73159255D01*
X162786717Y-73058532D01*
X162795565Y-72980003D01*
X162795565Y-72979996D01*
X162775369Y-72800750D01*
X162775368Y-72800745D01*
X162715788Y-72630475D01*
X162654051Y-72532223D01*
X162635050Y-72464986D01*
X162654051Y-72400277D01*
X162715788Y-72302024D01*
X162715789Y-72302022D01*
X162775368Y-72131755D01*
X162777226Y-72115266D01*
X162795565Y-71952503D01*
X162795565Y-71952496D01*
X162775369Y-71773250D01*
X162775368Y-71773245D01*
X162715788Y-71602975D01*
X162654051Y-71504723D01*
X162635050Y-71437486D01*
X162654051Y-71372777D01*
X162715788Y-71274524D01*
X162773618Y-71109255D01*
X162775368Y-71104255D01*
X162775369Y-71104249D01*
X162795565Y-70925003D01*
X162795565Y-70924996D01*
X162775369Y-70745750D01*
X162775368Y-70745745D01*
X162749375Y-70671462D01*
X162715789Y-70575478D01*
X162619816Y-70422738D01*
X162492262Y-70295184D01*
X162477972Y-70286205D01*
X162339523Y-70199211D01*
X162169254Y-70139631D01*
X162169249Y-70139630D01*
X161990004Y-70119435D01*
X161989996Y-70119435D01*
X161810750Y-70139630D01*
X161810745Y-70139631D01*
X161640476Y-70199211D01*
X161487737Y-70295184D01*
X161425181Y-70357741D01*
X161363858Y-70391226D01*
X161294166Y-70386242D01*
X161249819Y-70357741D01*
X161192262Y-70300184D01*
X161039523Y-70204211D01*
X160869254Y-70144631D01*
X160869249Y-70144630D01*
X160690004Y-70124435D01*
X160689996Y-70124435D01*
X160510750Y-70144630D01*
X160510745Y-70144631D01*
X160340476Y-70204211D01*
X160187737Y-70300184D01*
X160060184Y-70427737D01*
X159964211Y-70580476D01*
X159904631Y-70750745D01*
X159904630Y-70750750D01*
X159884435Y-70929996D01*
X159884435Y-70930003D01*
X159904630Y-71109249D01*
X159904631Y-71109254D01*
X159964211Y-71279523D01*
X160025949Y-71377778D01*
X160044949Y-71445015D01*
X160025949Y-71509722D01*
X159964211Y-71607976D01*
X159904631Y-71778245D01*
X159904630Y-71778250D01*
X159884435Y-71957496D01*
X159884435Y-71957503D01*
X159904630Y-72136749D01*
X159904631Y-72136754D01*
X159964211Y-72307023D01*
X160025949Y-72405278D01*
X160044949Y-72472515D01*
X160025949Y-72537222D01*
X159964211Y-72635476D01*
X159904631Y-72805745D01*
X159904630Y-72805750D01*
X159884435Y-72984996D01*
X159884435Y-72985003D01*
X159904630Y-73164249D01*
X159904631Y-73164254D01*
X159964211Y-73334523D01*
X160025949Y-73432778D01*
X160044949Y-73500015D01*
X160025949Y-73564722D01*
X159964211Y-73662976D01*
X159904631Y-73833245D01*
X159904630Y-73833250D01*
X159884435Y-74012496D01*
X159884435Y-74012503D01*
X159904630Y-74191749D01*
X159904631Y-74191754D01*
X159964211Y-74362023D01*
X160025949Y-74460278D01*
X160044949Y-74527515D01*
X160025949Y-74592222D01*
X159964211Y-74690476D01*
X159904631Y-74860745D01*
X159904630Y-74860750D01*
X159884435Y-75039996D01*
X159884435Y-75040003D01*
X119543396Y-75040003D01*
X119850727Y-74840420D01*
X119850729Y-74840419D01*
X120108293Y-74631846D01*
X118613642Y-73137195D01*
X118715274Y-73063356D01*
X118893356Y-72885274D01*
X118967195Y-72783642D01*
X120461846Y-74278293D01*
X120670419Y-74020729D01*
X120670420Y-74020727D01*
X120881633Y-73695487D01*
X120889522Y-73680003D01*
X135774435Y-73680003D01*
X135794630Y-73859249D01*
X135794631Y-73859254D01*
X135854211Y-74029523D01*
X135942011Y-74169255D01*
X135950184Y-74182262D01*
X136077738Y-74309816D01*
X136126186Y-74340258D01*
X136198646Y-74385788D01*
X136230478Y-74405789D01*
X136343591Y-74445369D01*
X136400745Y-74465368D01*
X136400750Y-74465369D01*
X136579996Y-74485565D01*
X136580000Y-74485565D01*
X136580004Y-74485565D01*
X136759249Y-74465369D01*
X136759252Y-74465368D01*
X136759255Y-74465368D01*
X136929522Y-74405789D01*
X137082262Y-74309816D01*
X137209816Y-74182262D01*
X137305789Y-74029522D01*
X137365368Y-73859255D01*
X137365369Y-73859249D01*
X137385565Y-73680003D01*
X137385565Y-73679996D01*
X137383312Y-73660003D01*
X139564435Y-73660003D01*
X139584630Y-73839249D01*
X139584631Y-73839254D01*
X139644211Y-74009523D01*
X139656778Y-74029523D01*
X139740184Y-74162262D01*
X139867738Y-74289816D01*
X140020478Y-74385789D01*
X140054238Y-74397602D01*
X140190745Y-74445368D01*
X140190750Y-74445369D01*
X140369996Y-74465565D01*
X140370000Y-74465565D01*
X140370004Y-74465565D01*
X140549249Y-74445369D01*
X140549252Y-74445368D01*
X140549255Y-74445368D01*
X140719522Y-74385789D01*
X140872262Y-74289816D01*
X140999816Y-74162262D01*
X141095789Y-74009522D01*
X141102619Y-73990003D01*
X155374435Y-73990003D01*
X155394630Y-74169249D01*
X155394631Y-74169254D01*
X155454211Y-74339523D01*
X155520719Y-74445369D01*
X155550184Y-74492262D01*
X155677738Y-74619816D01*
X155696887Y-74631848D01*
X155790192Y-74690476D01*
X155830478Y-74715789D01*
X156000745Y-74775368D01*
X156000750Y-74775369D01*
X156179996Y-74795565D01*
X156180000Y-74795565D01*
X156180004Y-74795565D01*
X156359249Y-74775369D01*
X156359252Y-74775368D01*
X156359255Y-74775368D01*
X156529522Y-74715789D01*
X156682262Y-74619816D01*
X156809816Y-74492262D01*
X156905789Y-74339522D01*
X156965368Y-74169255D01*
X156983030Y-74012500D01*
X156985565Y-73990003D01*
X156985565Y-73989996D01*
X156965369Y-73810750D01*
X156965368Y-73810745D01*
X156912620Y-73660000D01*
X156905789Y-73640478D01*
X156809816Y-73487738D01*
X156682262Y-73360184D01*
X156643629Y-73335909D01*
X156529523Y-73264211D01*
X156359254Y-73204631D01*
X156359249Y-73204630D01*
X156180004Y-73184435D01*
X156179996Y-73184435D01*
X156000750Y-73204630D01*
X156000745Y-73204631D01*
X155830476Y-73264211D01*
X155677737Y-73360184D01*
X155550184Y-73487737D01*
X155454211Y-73640476D01*
X155394631Y-73810745D01*
X155394630Y-73810750D01*
X155374435Y-73989996D01*
X155374435Y-73990003D01*
X141102619Y-73990003D01*
X141155368Y-73839255D01*
X141158580Y-73810750D01*
X141175565Y-73660003D01*
X141175565Y-73659996D01*
X141155369Y-73480750D01*
X141155368Y-73480745D01*
X141138584Y-73432778D01*
X141095789Y-73310478D01*
X141066717Y-73264211D01*
X141000769Y-73159255D01*
X140999816Y-73157738D01*
X140872262Y-73030184D01*
X140800357Y-72985003D01*
X140719523Y-72934211D01*
X140549254Y-72874631D01*
X140549249Y-72874630D01*
X140370004Y-72854435D01*
X140369996Y-72854435D01*
X140190750Y-72874630D01*
X140190745Y-72874631D01*
X140020476Y-72934211D01*
X139867737Y-73030184D01*
X139740184Y-73157737D01*
X139644211Y-73310476D01*
X139584631Y-73480745D01*
X139584630Y-73480750D01*
X139564435Y-73659996D01*
X139564435Y-73660003D01*
X137383312Y-73660003D01*
X137365369Y-73500750D01*
X137365368Y-73500745D01*
X137360217Y-73486024D01*
X137305789Y-73330478D01*
X137305188Y-73329522D01*
X137229109Y-73208443D01*
X137209816Y-73177738D01*
X137082262Y-73050184D01*
X137050432Y-73030184D01*
X136929523Y-72954211D01*
X136759254Y-72894631D01*
X136759249Y-72894630D01*
X136580004Y-72874435D01*
X136579996Y-72874435D01*
X136400750Y-72894630D01*
X136400745Y-72894631D01*
X136230476Y-72954211D01*
X136077737Y-73050184D01*
X135950184Y-73177737D01*
X135854211Y-73330476D01*
X135794631Y-73500745D01*
X135794630Y-73500750D01*
X135774435Y-73679996D01*
X135774435Y-73680003D01*
X120889522Y-73680003D01*
X121057699Y-73349938D01*
X121196681Y-72987880D01*
X121297056Y-72613274D01*
X121297057Y-72613267D01*
X121314997Y-72500000D01*
X141754659Y-72500000D01*
X141773975Y-72696129D01*
X141773976Y-72696132D01*
X141828123Y-72874631D01*
X141831188Y-72884733D01*
X141924086Y-73058532D01*
X141924090Y-73058539D01*
X142049116Y-73210883D01*
X142201460Y-73335909D01*
X142201467Y-73335913D01*
X142375266Y-73428811D01*
X142375269Y-73428811D01*
X142375273Y-73428814D01*
X142563868Y-73486024D01*
X142760000Y-73505341D01*
X142956132Y-73486024D01*
X143144727Y-73428814D01*
X143318538Y-73335910D01*
X143318544Y-73335904D01*
X143323607Y-73332523D01*
X143324703Y-73334164D01*
X143380639Y-73310405D01*
X143449507Y-73322194D01*
X143466148Y-73332888D01*
X143466393Y-73332523D01*
X143471458Y-73335907D01*
X143471462Y-73335910D01*
X143645273Y-73428814D01*
X143833868Y-73486024D01*
X144030000Y-73505341D01*
X144226132Y-73486024D01*
X144414727Y-73428814D01*
X144588538Y-73335910D01*
X144588544Y-73335904D01*
X144593607Y-73332523D01*
X144594703Y-73334164D01*
X144650639Y-73310405D01*
X144719507Y-73322194D01*
X144736148Y-73332888D01*
X144736393Y-73332523D01*
X144741458Y-73335907D01*
X144741462Y-73335910D01*
X144915273Y-73428814D01*
X145103868Y-73486024D01*
X145300000Y-73505341D01*
X145496132Y-73486024D01*
X145684727Y-73428814D01*
X145858538Y-73335910D01*
X145858544Y-73335904D01*
X145863607Y-73332523D01*
X145864703Y-73334164D01*
X145920639Y-73310405D01*
X145989507Y-73322194D01*
X146006148Y-73332888D01*
X146006393Y-73332523D01*
X146011458Y-73335907D01*
X146011462Y-73335910D01*
X146185273Y-73428814D01*
X146373868Y-73486024D01*
X146570000Y-73505341D01*
X146766132Y-73486024D01*
X146954727Y-73428814D01*
X147128538Y-73335910D01*
X147128544Y-73335904D01*
X147133607Y-73332523D01*
X147134703Y-73334164D01*
X147190639Y-73310405D01*
X147259507Y-73322194D01*
X147276148Y-73332888D01*
X147276393Y-73332523D01*
X147281458Y-73335907D01*
X147281462Y-73335910D01*
X147455273Y-73428814D01*
X147643868Y-73486024D01*
X147840000Y-73505341D01*
X148036132Y-73486024D01*
X148224727Y-73428814D01*
X148398538Y-73335910D01*
X148398544Y-73335904D01*
X148403607Y-73332523D01*
X148404703Y-73334164D01*
X148460639Y-73310405D01*
X148529507Y-73322194D01*
X148546148Y-73332888D01*
X148546393Y-73332523D01*
X148551458Y-73335907D01*
X148551462Y-73335910D01*
X148725273Y-73428814D01*
X148913868Y-73486024D01*
X149110000Y-73505341D01*
X149306132Y-73486024D01*
X149494727Y-73428814D01*
X149668538Y-73335910D01*
X149668544Y-73335904D01*
X149673607Y-73332523D01*
X149674703Y-73334164D01*
X149730639Y-73310405D01*
X149799507Y-73322194D01*
X149816148Y-73332888D01*
X149816393Y-73332523D01*
X149821458Y-73335907D01*
X149821462Y-73335910D01*
X149995273Y-73428814D01*
X150183868Y-73486024D01*
X150380000Y-73505341D01*
X150576132Y-73486024D01*
X150764727Y-73428814D01*
X150938538Y-73335910D01*
X151090883Y-73210883D01*
X151215910Y-73058538D01*
X151308814Y-72884727D01*
X151366024Y-72696132D01*
X151385341Y-72500000D01*
X151366024Y-72303868D01*
X151308814Y-72115273D01*
X151307677Y-72113146D01*
X151307418Y-72111904D01*
X151306483Y-72109645D01*
X151306911Y-72109467D01*
X151293435Y-72044746D01*
X151317771Y-71980379D01*
X151323796Y-71972331D01*
X151374091Y-71837483D01*
X151380500Y-71777873D01*
X151380499Y-70682128D01*
X151374091Y-70622517D01*
X151358411Y-70580478D01*
X151323797Y-70487671D01*
X151323793Y-70487664D01*
X151237547Y-70372455D01*
X151237544Y-70372452D01*
X151122335Y-70286206D01*
X151122328Y-70286202D01*
X150987482Y-70235908D01*
X150987483Y-70235908D01*
X150927883Y-70229501D01*
X150927881Y-70229500D01*
X150927873Y-70229500D01*
X150927864Y-70229500D01*
X149832129Y-70229500D01*
X149832123Y-70229501D01*
X149772516Y-70235908D01*
X149637671Y-70286202D01*
X149637666Y-70286205D01*
X149629614Y-70292233D01*
X149564149Y-70316648D01*
X149500530Y-70303104D01*
X149500359Y-70303518D01*
X149498123Y-70302592D01*
X149496850Y-70302321D01*
X149494729Y-70301187D01*
X149494728Y-70301186D01*
X149494727Y-70301186D01*
X149306132Y-70243976D01*
X149306129Y-70243975D01*
X149110000Y-70224659D01*
X148913870Y-70243975D01*
X148725266Y-70301188D01*
X148551467Y-70394086D01*
X148546399Y-70397473D01*
X148545386Y-70395958D01*
X148488936Y-70419920D01*
X148420071Y-70408115D01*
X148403574Y-70397511D01*
X148403322Y-70397890D01*
X148398253Y-70394503D01*
X148224541Y-70301652D01*
X148090000Y-70260839D01*
X148090000Y-70985025D01*
X148054905Y-70949930D01*
X147975095Y-70903852D01*
X147886078Y-70880000D01*
X147793922Y-70880000D01*
X147704905Y-70903852D01*
X147625095Y-70949930D01*
X147559930Y-71015095D01*
X147513852Y-71094905D01*
X147490000Y-71183922D01*
X147490000Y-71276078D01*
X147513852Y-71365095D01*
X147559930Y-71444905D01*
X147595025Y-71480000D01*
X146814975Y-71480000D01*
X146850070Y-71444905D01*
X146896148Y-71365095D01*
X146920000Y-71276078D01*
X146920000Y-71183922D01*
X146896148Y-71094905D01*
X146850070Y-71015095D01*
X146814975Y-70980000D01*
X146820000Y-70980000D01*
X147590000Y-70980000D01*
X147590000Y-70260839D01*
X147589999Y-70260839D01*
X147455458Y-70301652D01*
X147281746Y-70394503D01*
X147276678Y-70397890D01*
X147275641Y-70396338D01*
X147219339Y-70420242D01*
X147150473Y-70408442D01*
X147133541Y-70397560D01*
X147133322Y-70397890D01*
X147128253Y-70394503D01*
X146954541Y-70301652D01*
X146820000Y-70260839D01*
X146820000Y-70980000D01*
X146814975Y-70980000D01*
X146784905Y-70949930D01*
X146705095Y-70903852D01*
X146616078Y-70880000D01*
X146523922Y-70880000D01*
X146434905Y-70903852D01*
X146355095Y-70949930D01*
X146320000Y-70985025D01*
X146320000Y-70260839D01*
X146319999Y-70260839D01*
X146185458Y-70301652D01*
X146011742Y-70394505D01*
X146006673Y-70397893D01*
X146005556Y-70396221D01*
X145949715Y-70419921D01*
X145880851Y-70408111D01*
X145863811Y-70397158D01*
X145863601Y-70397473D01*
X145858532Y-70394086D01*
X145684733Y-70301188D01*
X145684727Y-70301186D01*
X145496132Y-70243976D01*
X145496129Y-70243975D01*
X145300000Y-70224659D01*
X145103870Y-70243975D01*
X144915266Y-70301188D01*
X144741467Y-70394086D01*
X144736399Y-70397473D01*
X144735386Y-70395958D01*
X144678936Y-70419920D01*
X144610071Y-70408115D01*
X144593574Y-70397511D01*
X144593322Y-70397890D01*
X144588253Y-70394503D01*
X144414541Y-70301652D01*
X144280000Y-70260839D01*
X144280000Y-70985025D01*
X144244905Y-70949930D01*
X144165095Y-70903852D01*
X144076078Y-70880000D01*
X143983922Y-70880000D01*
X143894905Y-70903852D01*
X143815095Y-70949930D01*
X143780000Y-70985025D01*
X143780000Y-70260839D01*
X143779999Y-70260839D01*
X143645458Y-70301652D01*
X143471742Y-70394505D01*
X143466673Y-70397893D01*
X143465556Y-70396221D01*
X143409715Y-70419921D01*
X143340851Y-70408111D01*
X143323811Y-70397158D01*
X143323601Y-70397473D01*
X143318532Y-70394086D01*
X143144733Y-70301188D01*
X143144727Y-70301186D01*
X142956132Y-70243976D01*
X142956129Y-70243975D01*
X142760000Y-70224659D01*
X142563870Y-70243975D01*
X142375266Y-70301188D01*
X142201467Y-70394086D01*
X142201460Y-70394090D01*
X142049116Y-70519116D01*
X141924090Y-70671460D01*
X141924086Y-70671467D01*
X141831188Y-70845266D01*
X141773975Y-71033870D01*
X141754659Y-71230000D01*
X141773975Y-71426129D01*
X141782039Y-71452712D01*
X141812226Y-71552226D01*
X141831188Y-71614733D01*
X141924086Y-71788532D01*
X141927473Y-71793601D01*
X141925836Y-71794694D01*
X141949596Y-71850663D01*
X141937795Y-71919529D01*
X141927109Y-71936156D01*
X141927473Y-71936399D01*
X141924086Y-71941467D01*
X141831188Y-72115266D01*
X141773975Y-72303870D01*
X141754659Y-72500000D01*
X121314997Y-72500000D01*
X121357724Y-72230231D01*
X121378022Y-71842944D01*
X121378022Y-71842943D01*
X121357724Y-71455656D01*
X121297057Y-71072620D01*
X121297056Y-71072613D01*
X121196681Y-70698007D01*
X121057699Y-70335949D01*
X120881633Y-69990400D01*
X120670412Y-69665150D01*
X120461848Y-69407593D01*
X120461847Y-69407592D01*
X118967195Y-70902244D01*
X118893356Y-70800614D01*
X118715274Y-70622532D01*
X118613642Y-70548692D01*
X120108294Y-69054040D01*
X120106562Y-69020990D01*
X120122711Y-68953013D01*
X120173047Y-68904556D01*
X120230392Y-68890500D01*
X178202397Y-68890500D01*
X178269436Y-68910185D01*
G37*
%TD.AperFunction*%
%TA.AperFunction,Conductor*%
G36*
X183541846Y-127378293D02*
G01*
X183579010Y-127376346D01*
X183646988Y-127392495D01*
X183695444Y-127442832D01*
X183709500Y-127500176D01*
X183709500Y-127765500D01*
X183689815Y-127832539D01*
X183637011Y-127878294D01*
X183585500Y-127889500D01*
X183310701Y-127889500D01*
X183243662Y-127869815D01*
X183197907Y-127817011D01*
X183186871Y-127759012D01*
X183188294Y-127731847D01*
X181693642Y-126237195D01*
X181795274Y-126163356D01*
X181973356Y-125985274D01*
X182047195Y-125883642D01*
X183541846Y-127378293D01*
G37*
%TD.AperFunction*%
%TA.AperFunction,Conductor*%
G36*
X115182534Y-68910185D02*
G01*
X115228289Y-68962989D01*
X115239325Y-69020990D01*
X115237592Y-69054040D01*
X116732245Y-70548692D01*
X116630614Y-70622532D01*
X116452532Y-70800614D01*
X116378692Y-70902244D01*
X114884040Y-69407592D01*
X114861172Y-69408790D01*
X114853375Y-69414177D01*
X114783544Y-69416502D01*
X114723541Y-69380704D01*
X114692417Y-69318150D01*
X114690500Y-69296428D01*
X114690500Y-69014500D01*
X114710185Y-68947461D01*
X114762989Y-68901706D01*
X114814500Y-68890500D01*
X115115495Y-68890500D01*
X115182534Y-68910185D01*
G37*
%TD.AperFunction*%
%TA.AperFunction,Conductor*%
G36*
X183652539Y-68910185D02*
G01*
X183698294Y-68962989D01*
X183709500Y-69014500D01*
X183709500Y-69282396D01*
X183689815Y-69349435D01*
X183637011Y-69395190D01*
X183579012Y-69406226D01*
X183548903Y-69404648D01*
X182054251Y-70899300D01*
X181980412Y-70797670D01*
X181802330Y-70619588D01*
X181700698Y-70545748D01*
X183195350Y-69051096D01*
X183193773Y-69020989D01*
X183209922Y-68953012D01*
X183260259Y-68904556D01*
X183317603Y-68890500D01*
X183585500Y-68890500D01*
X183652539Y-68910185D01*
G37*
%TD.AperFunction*%
%TD*%
M02*
