%TF.GenerationSoftware,KiCad,Pcbnew,8.0.0*%
%TF.CreationDate,2024-06-03T00:37:32+08:00*%
%TF.ProjectId,CattusGPSDOv1,43617474-7573-4475-9053-444f76312e6b,rev?*%
%TF.SameCoordinates,Original*%
%TF.FileFunction,Paste,Top*%
%TF.FilePolarity,Positive*%
%FSLAX46Y46*%
G04 Gerber Fmt 4.6, Leading zero omitted, Abs format (unit mm)*
G04 Created by KiCad (PCBNEW 8.0.0) date 2024-06-03 00:37:32*
%MOMM*%
%LPD*%
G01*
G04 APERTURE LIST*
G04 Aperture macros list*
%AMRoundRect*
0 Rectangle with rounded corners*
0 $1 Rounding radius*
0 $2 $3 $4 $5 $6 $7 $8 $9 X,Y pos of 4 corners*
0 Add a 4 corners polygon primitive as box body*
4,1,4,$2,$3,$4,$5,$6,$7,$8,$9,$2,$3,0*
0 Add four circle primitives for the rounded corners*
1,1,$1+$1,$2,$3*
1,1,$1+$1,$4,$5*
1,1,$1+$1,$6,$7*
1,1,$1+$1,$8,$9*
0 Add four rect primitives between the rounded corners*
20,1,$1+$1,$2,$3,$4,$5,0*
20,1,$1+$1,$4,$5,$6,$7,0*
20,1,$1+$1,$6,$7,$8,$9,0*
20,1,$1+$1,$8,$9,$2,$3,0*%
G04 Aperture macros list end*
%ADD10RoundRect,0.100000X-0.637500X-0.100000X0.637500X-0.100000X0.637500X0.100000X-0.637500X0.100000X0*%
%ADD11RoundRect,0.200000X-0.275000X0.200000X-0.275000X-0.200000X0.275000X-0.200000X0.275000X0.200000X0*%
%ADD12RoundRect,0.225000X-0.225000X-0.250000X0.225000X-0.250000X0.225000X0.250000X-0.225000X0.250000X0*%
%ADD13RoundRect,0.200000X0.275000X-0.200000X0.275000X0.200000X-0.275000X0.200000X-0.275000X-0.200000X0*%
%ADD14RoundRect,0.225000X0.250000X-0.225000X0.250000X0.225000X-0.250000X0.225000X-0.250000X-0.225000X0*%
%ADD15RoundRect,0.200000X0.335876X0.053033X0.053033X0.335876X-0.335876X-0.053033X-0.053033X-0.335876X0*%
%ADD16RoundRect,0.150000X0.150000X-0.587500X0.150000X0.587500X-0.150000X0.587500X-0.150000X-0.587500X0*%
%ADD17RoundRect,0.200000X-0.200000X-0.275000X0.200000X-0.275000X0.200000X0.275000X-0.200000X0.275000X0*%
%ADD18RoundRect,0.250000X0.375000X0.625000X-0.375000X0.625000X-0.375000X-0.625000X0.375000X-0.625000X0*%
%ADD19RoundRect,0.250000X-0.325000X-0.650000X0.325000X-0.650000X0.325000X0.650000X-0.325000X0.650000X0*%
%ADD20RoundRect,0.218750X-0.256250X0.218750X-0.256250X-0.218750X0.256250X-0.218750X0.256250X0.218750X0*%
%ADD21RoundRect,0.150000X0.587500X0.150000X-0.587500X0.150000X-0.587500X-0.150000X0.587500X-0.150000X0*%
%ADD22RoundRect,0.200000X0.200000X0.275000X-0.200000X0.275000X-0.200000X-0.275000X0.200000X-0.275000X0*%
%ADD23RoundRect,0.225000X-0.250000X0.225000X-0.250000X-0.225000X0.250000X-0.225000X0.250000X0.225000X0*%
%ADD24RoundRect,0.150000X-0.587500X-0.150000X0.587500X-0.150000X0.587500X0.150000X-0.587500X0.150000X0*%
%ADD25RoundRect,0.375000X-0.625000X-0.375000X0.625000X-0.375000X0.625000X0.375000X-0.625000X0.375000X0*%
%ADD26RoundRect,0.500000X-0.500000X-1.400000X0.500000X-1.400000X0.500000X1.400000X-0.500000X1.400000X0*%
%ADD27RoundRect,0.218750X-0.218750X-0.256250X0.218750X-0.256250X0.218750X0.256250X-0.218750X0.256250X0*%
%ADD28RoundRect,0.225000X0.225000X0.250000X-0.225000X0.250000X-0.225000X-0.250000X0.225000X-0.250000X0*%
%ADD29RoundRect,0.100000X0.637500X0.100000X-0.637500X0.100000X-0.637500X-0.100000X0.637500X-0.100000X0*%
%ADD30RoundRect,0.250000X-0.650000X1.000000X-0.650000X-1.000000X0.650000X-1.000000X0.650000X1.000000X0*%
%ADD31RoundRect,0.150000X0.825000X0.150000X-0.825000X0.150000X-0.825000X-0.150000X0.825000X-0.150000X0*%
%ADD32RoundRect,0.200000X-0.053033X0.335876X-0.335876X0.053033X0.053033X-0.335876X0.335876X-0.053033X0*%
%ADD33RoundRect,0.250001X-0.462499X-0.624999X0.462499X-0.624999X0.462499X0.624999X-0.462499X0.624999X0*%
%ADD34RoundRect,0.150000X0.675000X0.150000X-0.675000X0.150000X-0.675000X-0.150000X0.675000X-0.150000X0*%
%ADD35RoundRect,0.175000X0.725000X0.175000X-0.725000X0.175000X-0.725000X-0.175000X0.725000X-0.175000X0*%
%ADD36RoundRect,0.200000X0.700000X0.200000X-0.700000X0.200000X-0.700000X-0.200000X0.700000X-0.200000X0*%
%ADD37RoundRect,0.250000X0.925000X-0.412500X0.925000X0.412500X-0.925000X0.412500X-0.925000X-0.412500X0*%
%ADD38RoundRect,0.150000X0.150000X-0.825000X0.150000X0.825000X-0.150000X0.825000X-0.150000X-0.825000X0*%
%ADD39RoundRect,0.218750X0.256250X-0.218750X0.256250X0.218750X-0.256250X0.218750X-0.256250X-0.218750X0*%
G04 APERTURE END LIST*
D10*
%TO.C,U5*%
X139115000Y-78940000D03*
X139115000Y-79590000D03*
X139115000Y-80240000D03*
X139115000Y-80890000D03*
X139115000Y-81540000D03*
X139115000Y-82190000D03*
X139115000Y-82840000D03*
X139115000Y-83490000D03*
X139115000Y-84140000D03*
X139115000Y-84790000D03*
X144840000Y-84790000D03*
X144840000Y-84140000D03*
X144840000Y-83490000D03*
X144840000Y-82840000D03*
X144840000Y-82190000D03*
X144840000Y-81540000D03*
X144840000Y-80890000D03*
X144840000Y-80240000D03*
X144840000Y-79590000D03*
X144840000Y-78940000D03*
%TD*%
D11*
%TO.C,R10*%
X179390000Y-100232500D03*
X179390000Y-101882500D03*
%TD*%
D12*
%TO.C,C8*%
X147405000Y-121160000D03*
X148955000Y-121160000D03*
%TD*%
D13*
%TO.C,R14*%
X139020000Y-99500000D03*
X139020000Y-97850000D03*
%TD*%
%TO.C,R9*%
X145800000Y-87995000D03*
X145800000Y-86345000D03*
%TD*%
D14*
%TO.C,C26*%
X132260000Y-99450000D03*
X132260000Y-97900000D03*
%TD*%
D15*
%TO.C,R2*%
X142870000Y-122846726D03*
X141703274Y-121680000D03*
%TD*%
D16*
%TO.C,Q5*%
X139260000Y-76897500D03*
X141160000Y-76897500D03*
X140210000Y-75022500D03*
%TD*%
D11*
%TO.C,R34*%
X144040000Y-117695000D03*
X144040000Y-119345000D03*
%TD*%
D14*
%TO.C,C16*%
X120570000Y-102490000D03*
X120570000Y-100940000D03*
%TD*%
D17*
%TO.C,R18*%
X154795000Y-92410000D03*
X156445000Y-92410000D03*
%TD*%
D12*
%TO.C,C9*%
X138336637Y-126633363D03*
X139886637Y-126633363D03*
%TD*%
%TO.C,C2*%
X169085000Y-126680000D03*
X170635000Y-126680000D03*
%TD*%
D11*
%TO.C,R28*%
X133870000Y-91790000D03*
X133870000Y-93440000D03*
%TD*%
D13*
%TO.C,R7*%
X143680000Y-110265000D03*
X143680000Y-108615000D03*
%TD*%
D18*
%TO.C,F1*%
X164980000Y-83650000D03*
X162180000Y-83650000D03*
%TD*%
D19*
%TO.C,C20*%
X162135000Y-81030000D03*
X165085000Y-81030000D03*
%TD*%
D11*
%TO.C,R8*%
X145470000Y-97905000D03*
X145470000Y-99555000D03*
%TD*%
D20*
%TO.C,D5*%
X179390000Y-97022500D03*
X179390000Y-98597500D03*
%TD*%
D12*
%TO.C,C7*%
X147405000Y-119380000D03*
X148955000Y-119380000D03*
%TD*%
D14*
%TO.C,C27*%
X133950000Y-99450000D03*
X133950000Y-97900000D03*
%TD*%
D11*
%TO.C,R23*%
X149060000Y-86365000D03*
X149060000Y-88015000D03*
%TD*%
D21*
%TO.C,Q1*%
X123475000Y-106190000D03*
X123475000Y-104290000D03*
X121600000Y-105240000D03*
%TD*%
D22*
%TO.C,R11*%
X119000000Y-105930000D03*
X117350000Y-105930000D03*
%TD*%
D13*
%TO.C,R16*%
X137330000Y-99500000D03*
X137330000Y-97850000D03*
%TD*%
D23*
%TO.C,C5*%
X147120000Y-108665000D03*
X147120000Y-110215000D03*
%TD*%
D20*
%TO.C,D4*%
X179460000Y-115552500D03*
X179460000Y-117127500D03*
%TD*%
D11*
%TO.C,R17*%
X140620000Y-97905000D03*
X140620000Y-99555000D03*
%TD*%
D14*
%TO.C,C28*%
X135640000Y-99450000D03*
X135640000Y-97900000D03*
%TD*%
D13*
%TO.C,R15*%
X129310000Y-99575000D03*
X129310000Y-97925000D03*
%TD*%
D22*
%TO.C,R33*%
X137310000Y-112270000D03*
X135660000Y-112270000D03*
%TD*%
D24*
%TO.C,Q2*%
X121627500Y-107990000D03*
X121627500Y-109890000D03*
X123502500Y-108940000D03*
%TD*%
D25*
%TO.C,U8*%
X158240000Y-70110000D03*
X158240000Y-72410000D03*
D26*
X164540000Y-72410000D03*
D25*
X158240000Y-74710000D03*
%TD*%
D22*
%TO.C,R32*%
X156490000Y-88420000D03*
X154840000Y-88420000D03*
%TD*%
D14*
%TO.C,C4*%
X147130000Y-99505000D03*
X147130000Y-97955000D03*
%TD*%
D11*
%TO.C,R27*%
X135570000Y-91795000D03*
X135570000Y-93445000D03*
%TD*%
D27*
%TO.C,D1*%
X154802500Y-94320000D03*
X156377500Y-94320000D03*
%TD*%
D28*
%TO.C,C12*%
X137275000Y-117270000D03*
X135725000Y-117270000D03*
%TD*%
D22*
%TO.C,R20*%
X136655000Y-84340000D03*
X135005000Y-84340000D03*
%TD*%
D28*
%TO.C,C14*%
X118935000Y-104180000D03*
X117385000Y-104180000D03*
%TD*%
D11*
%TO.C,R30*%
X179390000Y-109850000D03*
X179390000Y-111500000D03*
%TD*%
D20*
%TO.C,FB1*%
X139100000Y-108692500D03*
X139100000Y-110267500D03*
%TD*%
D22*
%TO.C,R19*%
X136655000Y-82620000D03*
X135005000Y-82620000D03*
%TD*%
D13*
%TO.C,R4*%
X147140000Y-113445000D03*
X147140000Y-111795000D03*
%TD*%
D29*
%TO.C,U2*%
X145130000Y-116180000D03*
X145130000Y-115530000D03*
X145130000Y-114880000D03*
X145130000Y-114230000D03*
X145130000Y-113580000D03*
X145130000Y-112930000D03*
X145130000Y-112280000D03*
X145130000Y-111630000D03*
X139405000Y-111630000D03*
X139405000Y-112280000D03*
X139405000Y-112930000D03*
X139405000Y-113580000D03*
X139405000Y-114230000D03*
X139405000Y-114880000D03*
X139405000Y-115530000D03*
X139405000Y-116180000D03*
%TD*%
D22*
%TO.C,R1*%
X145951637Y-123823363D03*
X144301637Y-123823363D03*
%TD*%
D14*
%TO.C,C1*%
X142200000Y-119275000D03*
X142200000Y-117725000D03*
%TD*%
D13*
%TO.C,R5*%
X145400000Y-110265000D03*
X145400000Y-108615000D03*
%TD*%
D14*
%TO.C,C17*%
X125335000Y-102510000D03*
X125335000Y-100960000D03*
%TD*%
D22*
%TO.C,R12*%
X123815000Y-102440000D03*
X122165000Y-102440000D03*
%TD*%
D28*
%TO.C,C11*%
X137270000Y-115560000D03*
X135720000Y-115560000D03*
%TD*%
D11*
%TO.C,R29*%
X132180000Y-91780000D03*
X132180000Y-93430000D03*
%TD*%
D30*
%TO.C,D3*%
X168350000Y-70330000D03*
X168350000Y-74330000D03*
%TD*%
D14*
%TO.C,C25*%
X143850000Y-99495000D03*
X143850000Y-97945000D03*
%TD*%
D30*
%TO.C,D2*%
X159260000Y-79230000D03*
X159260000Y-83230000D03*
%TD*%
D16*
%TO.C,Q4*%
X135417500Y-76887500D03*
X137317500Y-76887500D03*
X136367500Y-75012500D03*
%TD*%
D11*
%TO.C,R26*%
X137300000Y-91795000D03*
X137300000Y-93445000D03*
%TD*%
D28*
%TO.C,C19*%
X156465000Y-90310000D03*
X154915000Y-90310000D03*
%TD*%
D17*
%TO.C,R21*%
X143485000Y-77390000D03*
X145135000Y-77390000D03*
%TD*%
D28*
%TO.C,C18*%
X156425000Y-86430000D03*
X154875000Y-86430000D03*
%TD*%
D23*
%TO.C,C10*%
X140755000Y-108710000D03*
X140755000Y-110260000D03*
%TD*%
D31*
%TO.C,U9*%
X153600000Y-84540000D03*
X153600000Y-83270000D03*
X153600000Y-82000000D03*
X153600000Y-80730000D03*
X148650000Y-80730000D03*
X148650000Y-82000000D03*
X148650000Y-83270000D03*
X148650000Y-84540000D03*
%TD*%
D12*
%TO.C,C6*%
X147395000Y-117720000D03*
X148945000Y-117720000D03*
%TD*%
%TO.C,C15*%
X117385000Y-102440000D03*
X118935000Y-102440000D03*
%TD*%
D24*
%TO.C,Q3*%
X148072500Y-92610000D03*
X148072500Y-94510000D03*
X149947500Y-93560000D03*
%TD*%
D13*
%TO.C,R6*%
X148700000Y-102705000D03*
X148700000Y-101055000D03*
%TD*%
D17*
%TO.C,R13*%
X117355000Y-107650000D03*
X119005000Y-107650000D03*
%TD*%
D12*
%TO.C,C3*%
X139195000Y-104320000D03*
X140745000Y-104320000D03*
%TD*%
D17*
%TO.C,R31*%
X143490000Y-75720000D03*
X145140000Y-75720000D03*
%TD*%
D32*
%TO.C,R3*%
X142910000Y-124860000D03*
X141743274Y-126026726D03*
%TD*%
D23*
%TO.C,C23*%
X152400000Y-86445000D03*
X152400000Y-87995000D03*
%TD*%
D33*
%TO.C,D7*%
X115542500Y-99340000D03*
X118517500Y-99340000D03*
%TD*%
D20*
%TO.C,D6*%
X179420000Y-106605000D03*
X179420000Y-108180000D03*
%TD*%
D11*
%TO.C,R25*%
X179460000Y-118625000D03*
X179460000Y-120275000D03*
%TD*%
D34*
%TO.C,U6*%
X163870000Y-90280000D03*
X163870000Y-89010000D03*
X163870000Y-87740000D03*
X163870000Y-86470000D03*
X158620000Y-86470000D03*
X158620000Y-87740000D03*
X158620000Y-89010000D03*
X158620000Y-90280000D03*
%TD*%
D35*
%TO.C,U3*%
X136810000Y-110272500D03*
D36*
X136810000Y-109172500D03*
X136810000Y-108072500D03*
X136810000Y-106972500D03*
X136810000Y-105872500D03*
X136810000Y-104772500D03*
X136810000Y-103672500D03*
X136810000Y-102572500D03*
D35*
X136810000Y-101472500D03*
X127310000Y-101472500D03*
D36*
X127310000Y-102572500D03*
X127310000Y-103672500D03*
X127310000Y-104772500D03*
X127310000Y-105872500D03*
X127310000Y-106972500D03*
X127310000Y-108072500D03*
X127310000Y-109172500D03*
D35*
X127310000Y-110272500D03*
%TD*%
D12*
%TO.C,C22*%
X135065000Y-80910000D03*
X136615000Y-80910000D03*
%TD*%
D37*
%TO.C,C21*%
X172330000Y-74897500D03*
X172330000Y-71822500D03*
%TD*%
D11*
%TO.C,R22*%
X150710000Y-86380000D03*
X150710000Y-88030000D03*
%TD*%
D12*
%TO.C,C13*%
X135710000Y-113910000D03*
X137260000Y-113910000D03*
%TD*%
D31*
%TO.C,U7*%
X163725000Y-96145000D03*
X163725000Y-94875000D03*
X163725000Y-93605000D03*
X163725000Y-92335000D03*
X158775000Y-92335000D03*
X158775000Y-93605000D03*
X158775000Y-94875000D03*
X158775000Y-96145000D03*
%TD*%
D11*
%TO.C,R24*%
X147410000Y-86375000D03*
X147410000Y-88025000D03*
%TD*%
D38*
%TO.C,U4*%
X143220000Y-106570000D03*
X144490000Y-106570000D03*
X145760000Y-106570000D03*
X147030000Y-106570000D03*
X147030000Y-101620000D03*
X145760000Y-101620000D03*
X144490000Y-101620000D03*
X143220000Y-101620000D03*
%TD*%
D39*
%TO.C,L1*%
X115730000Y-104157500D03*
X115730000Y-102582500D03*
%TD*%
D14*
%TO.C,C24*%
X142220000Y-99485000D03*
X142220000Y-97935000D03*
%TD*%
M02*
