%TF.GenerationSoftware,KiCad,Pcbnew,8.0.0*%
%TF.CreationDate,2024-06-03T00:37:32+08:00*%
%TF.ProjectId,CattusGPSDOv1,43617474-7573-4475-9053-444f76312e6b,rev?*%
%TF.SameCoordinates,Original*%
%TF.FileFunction,Copper,L4,Bot*%
%TF.FilePolarity,Positive*%
%FSLAX46Y46*%
G04 Gerber Fmt 4.6, Leading zero omitted, Abs format (unit mm)*
G04 Created by KiCad (PCBNEW 8.0.0) date 2024-06-03 00:37:32*
%MOMM*%
%LPD*%
G01*
G04 APERTURE LIST*
%TA.AperFunction,ComponentPad*%
%ADD10R,1.700000X1.700000*%
%TD*%
%TA.AperFunction,ComponentPad*%
%ADD11O,1.700000X1.700000*%
%TD*%
%TA.AperFunction,ComponentPad*%
%ADD12R,1.600000X1.600000*%
%TD*%
%TA.AperFunction,ComponentPad*%
%ADD13C,1.600000*%
%TD*%
%TA.AperFunction,ComponentPad*%
%ADD14C,4.000000*%
%TD*%
%TA.AperFunction,ComponentPad*%
%ADD15C,2.050000*%
%TD*%
%TA.AperFunction,ComponentPad*%
%ADD16C,2.250000*%
%TD*%
%TA.AperFunction,ComponentPad*%
%ADD17C,0.800000*%
%TD*%
%TA.AperFunction,ComponentPad*%
%ADD18C,6.400000*%
%TD*%
%TA.AperFunction,ComponentPad*%
%ADD19C,1.700000*%
%TD*%
%TA.AperFunction,ComponentPad*%
%ADD20R,1.000000X1.000000*%
%TD*%
%TA.AperFunction,ComponentPad*%
%ADD21O,1.000000X1.000000*%
%TD*%
%TA.AperFunction,ViaPad*%
%ADD22C,0.600000*%
%TD*%
%TA.AperFunction,Conductor*%
%ADD23C,0.800000*%
%TD*%
%TA.AperFunction,Conductor*%
%ADD24C,0.200000*%
%TD*%
%TA.AperFunction,Conductor*%
%ADD25C,0.400000*%
%TD*%
G04 APERTURE END LIST*
D10*
%TO.P,J5,1,Pin_1*%
%TO.N,/GNSS_RX*%
X139885000Y-87525000D03*
D11*
%TO.P,J5,2,Pin_2*%
%TO.N,/GNSS_TX*%
X142425000Y-87525000D03*
%TO.P,J5,3,Pin_3*%
%TO.N,/VCP_TRX*%
X139885000Y-90065000D03*
%TO.P,J5,4,Pin_4*%
%TO.N,/VCP_TTX*%
X142425000Y-90065000D03*
%TO.P,J5,5,Pin_5*%
%TO.N,/CONFIG_RX*%
X139885000Y-92605000D03*
%TO.P,J5,6,Pin_6*%
%TO.N,/CONFIG_TX*%
X142425000Y-92605000D03*
%TD*%
D12*
%TO.P,J6,1,VBUS*%
%TO.N,Net-(J6-VBUS)*%
X168312500Y-83370000D03*
D13*
%TO.P,J6,2,D-*%
%TO.N,/UD_N*%
X168312500Y-85870000D03*
%TO.P,J6,3,D+*%
%TO.N,/UD_P*%
X170312500Y-85870000D03*
%TO.P,J6,4,GND*%
%TO.N,GND*%
X170312500Y-83370000D03*
D14*
%TO.P,J6,5,Shield*%
X173172500Y-78620000D03*
X173172500Y-90620000D03*
%TD*%
D15*
%TO.P,J1,1,In*%
%TO.N,Net-(J1-In)*%
X118920000Y-116680000D03*
D16*
%TO.P,J1,2,Ext*%
%TO.N,GND*%
X116380000Y-114140000D03*
X116380000Y-119220000D03*
X121460000Y-114140000D03*
X121460000Y-119220000D03*
%TD*%
D17*
%TO.P,H2,1,1*%
%TO.N,GND*%
X178360000Y-71840000D03*
X179062944Y-70142944D03*
X179062944Y-73537056D03*
X180760000Y-69440000D03*
D18*
X180760000Y-71840000D03*
D17*
X180760000Y-74240000D03*
X182457056Y-70142944D03*
X182457056Y-73537056D03*
X183160000Y-71840000D03*
%TD*%
D15*
%TO.P,J2,1,In*%
%TO.N,Net-(D7-A2)*%
X118810000Y-93830000D03*
D16*
%TO.P,J2,2,Ext*%
%TO.N,GND*%
X116270000Y-91290000D03*
X116270000Y-96370000D03*
X121350000Y-91290000D03*
X121350000Y-96370000D03*
%TD*%
D17*
%TO.P,H4,1,1*%
%TO.N,GND*%
X178352944Y-124942944D03*
X179055888Y-123245888D03*
X179055888Y-126640000D03*
X180752944Y-122542944D03*
D18*
X180752944Y-124942944D03*
D17*
X180752944Y-127342944D03*
X182450000Y-123245888D03*
X182450000Y-126640000D03*
X183152944Y-124942944D03*
%TD*%
D10*
%TO.P,U1,1,Uref*%
%TO.N,unconnected-(U1-Uref-Pad1)*%
X153630000Y-102630000D03*
D19*
%TO.P,U1,2,Us*%
%TO.N,+5V*%
X153630000Y-121680000D03*
%TO.P,U1,3,RF*%
%TO.N,Net-(U1-RF)*%
X172680000Y-121680000D03*
%TO.P,U1,4,GND*%
%TO.N,GND*%
X172680000Y-112155000D03*
%TO.P,U1,5,Uin*%
%TO.N,/OCXO_VC*%
X172680000Y-102630000D03*
%TD*%
D17*
%TO.P,H1,1,1*%
%TO.N,GND*%
X115272944Y-71842944D03*
X115975888Y-70145888D03*
X115975888Y-73540000D03*
X117672944Y-69442944D03*
D18*
X117672944Y-71842944D03*
D17*
X117672944Y-74242944D03*
X119370000Y-70145888D03*
X119370000Y-73540000D03*
X120072944Y-71842944D03*
%TD*%
D10*
%TO.P,J7,1,Pin_1*%
%TO.N,/EEPROM_SDA*%
X148440000Y-77770000D03*
D11*
%TO.P,J7,2,Pin_2*%
%TO.N,/EEPROM_SCL*%
X150980000Y-77770000D03*
%TO.P,J7,3,Pin_3*%
%TO.N,/EEPROM_WC*%
X153520000Y-77770000D03*
%TD*%
D17*
%TO.P,H3,1,1*%
%TO.N,GND*%
X115272944Y-124932944D03*
X115975888Y-123235888D03*
X115975888Y-126630000D03*
X117672944Y-122532944D03*
D18*
X117672944Y-124932944D03*
D17*
X117672944Y-127332944D03*
X119370000Y-123235888D03*
X119370000Y-126630000D03*
X120072944Y-124932944D03*
%TD*%
D10*
%TO.P,J4,1,Pin_1*%
%TO.N,Net-(J4-Pin_1)*%
X129530000Y-113435000D03*
D11*
%TO.P,J4,2,Pin_2*%
%TO.N,GND*%
X129530000Y-115975000D03*
%TD*%
D20*
%TO.P,J3,1,NC*%
%TO.N,unconnected-(J3-NC-Pad1)*%
X150380000Y-71230000D03*
D21*
%TO.P,J3,2,NC*%
%TO.N,unconnected-(J3-NC-Pad2)*%
X150380000Y-72500000D03*
%TO.P,J3,3,VCC*%
%TO.N,+3V3*%
X149110000Y-71230000D03*
%TO.P,J3,4,JTMS/SWDIO*%
%TO.N,/DEBUG_SWDIO*%
X149110000Y-72500000D03*
%TO.P,J3,5,GND*%
%TO.N,GND*%
X147840000Y-71230000D03*
%TO.P,J3,6,JCLK/SWCLK*%
%TO.N,/DEBUG_SWCLK*%
X147840000Y-72500000D03*
%TO.P,J3,7,GND*%
%TO.N,GND*%
X146570000Y-71230000D03*
%TO.P,J3,8,JTDO/SWO*%
%TO.N,unconnected-(J3-JTDO{slash}SWO-Pad8)*%
X146570000Y-72500000D03*
%TO.P,J3,9,JRCLK/NC*%
%TO.N,unconnected-(J3-JRCLK{slash}NC-Pad9)*%
X145300000Y-71230000D03*
%TO.P,J3,10,JTDI/NC*%
%TO.N,unconnected-(J3-JTDI{slash}NC-Pad10)*%
X145300000Y-72500000D03*
%TO.P,J3,11,GNDDetect*%
%TO.N,GND*%
X144030000Y-71230000D03*
%TO.P,J3,12,~{RST}*%
%TO.N,/MCU_RESET*%
X144030000Y-72500000D03*
%TO.P,J3,13,VCP_RX*%
%TO.N,/VCP_TRX*%
X142760000Y-71230000D03*
%TO.P,J3,14,VCP_TX*%
%TO.N,/VCP_TTX*%
X142760000Y-72500000D03*
%TD*%
D22*
%TO.N,GND*%
X131300000Y-97900000D03*
X167850000Y-111190000D03*
X169260000Y-121790000D03*
X143670000Y-115370000D03*
X122190000Y-104200000D03*
X144640000Y-74140000D03*
X153770000Y-90300000D03*
X131100000Y-78360000D03*
X146570000Y-94520000D03*
X134760000Y-78970000D03*
X136860000Y-78510000D03*
X162230000Y-87710000D03*
X168390000Y-77290000D03*
X147870000Y-107850000D03*
X166030000Y-106690000D03*
X143692050Y-114492050D03*
X126360000Y-114330000D03*
X143690000Y-109570000D03*
X170660000Y-96530000D03*
X124650000Y-111670000D03*
X148970000Y-116160000D03*
X172220000Y-106690000D03*
X152130000Y-83280000D03*
X153620000Y-86410000D03*
X122020000Y-88570000D03*
X136050000Y-85990000D03*
X131450000Y-86650000D03*
X147000000Y-104810000D03*
X143700000Y-103910000D03*
X165760000Y-118060000D03*
X129450000Y-92890000D03*
X177710000Y-76190000D03*
X155520000Y-110600000D03*
X161210000Y-113150000D03*
X124330000Y-99490000D03*
X128250000Y-89200000D03*
X126450000Y-91990000D03*
X155610000Y-105820000D03*
X133240000Y-110350000D03*
X134980000Y-90920000D03*
X160930000Y-106550000D03*
X176210000Y-84110000D03*
X154730000Y-71790000D03*
X121540000Y-75180000D03*
X138780000Y-123860000D03*
X140940000Y-102480000D03*
X131770000Y-119390000D03*
X116020000Y-111720000D03*
X134560000Y-117310000D03*
X133050000Y-105900000D03*
X161480000Y-123340000D03*
X124960000Y-76580000D03*
X150400000Y-75410000D03*
X174444343Y-117741680D03*
X121640000Y-111680000D03*
X152120000Y-81980000D03*
X163470000Y-100300000D03*
X138420000Y-74820000D03*
X152130000Y-84540000D03*
X153110000Y-75410000D03*
X140710000Y-111630000D03*
X130900000Y-107750000D03*
X160840000Y-100030000D03*
X131350000Y-74380000D03*
X138510000Y-120470000D03*
X134870000Y-109269412D03*
X118950000Y-100950000D03*
X140780000Y-81860000D03*
X179570000Y-114350000D03*
X134540000Y-115570000D03*
X179260000Y-87570000D03*
X123620000Y-113460000D03*
X142610000Y-74580000D03*
X120230000Y-104200000D03*
X134535000Y-113890000D03*
X148730000Y-114640000D03*
X139960000Y-109430000D03*
X128250000Y-82260000D03*
X133410000Y-71260000D03*
X152330000Y-71770000D03*
X143080000Y-97945000D03*
X131050000Y-104120000D03*
X175260000Y-95620000D03*
X155520000Y-118150000D03*
X118840000Y-111660000D03*
X179760000Y-82200000D03*
X155380000Y-123560000D03*
X152140000Y-80720000D03*
X126920000Y-73990000D03*
X164200000Y-77010000D03*
X140740000Y-78290000D03*
X121300000Y-81550000D03*
X173300000Y-86380000D03*
X165480000Y-92190000D03*
X161430000Y-118560000D03*
X143170000Y-80020000D03*
X126130000Y-96450000D03*
%TO.N,+5V*%
X156120000Y-76380000D03*
X156160000Y-81650000D03*
X156160000Y-84040000D03*
X135770000Y-95170000D03*
X156120000Y-78960000D03*
X145600000Y-103590000D03*
X137260000Y-118570000D03*
X156180000Y-73990000D03*
X143060000Y-99495000D03*
X137289365Y-94927894D03*
%TO.N,+3V3*%
X160320000Y-96080000D03*
X178300000Y-120340000D03*
X135755000Y-82645821D03*
X150030000Y-84230735D03*
X140840000Y-80620000D03*
X134890000Y-102570000D03*
X134585000Y-112250000D03*
X161990000Y-74007500D03*
X160380000Y-93660000D03*
X153620000Y-87980000D03*
X161990000Y-72980000D03*
X160690000Y-72985000D03*
X161990000Y-71952500D03*
X160690000Y-75040000D03*
X160690000Y-90260000D03*
X160380000Y-92310000D03*
X137340000Y-96600000D03*
X160690000Y-70930000D03*
X161990000Y-75035000D03*
X130380000Y-97050000D03*
X160690000Y-86440000D03*
X160690000Y-71957500D03*
X179380000Y-103140000D03*
X179520000Y-112740000D03*
X160220000Y-94910000D03*
X133960000Y-94550000D03*
X138790000Y-96620000D03*
X161990000Y-70925000D03*
X138300000Y-109520000D03*
X160690000Y-74012500D03*
X134702500Y-103672500D03*
%TO.N,/GNSS_TX*%
X140620000Y-96890000D03*
X138170000Y-91590000D03*
%TO.N,/GNSS_RX*%
X139395000Y-106010000D03*
%TO.N,Net-(Q1-D)*%
X120240000Y-107950000D03*
X117960000Y-109000000D03*
%TO.N,Net-(Q3-G)*%
X153660000Y-91890000D03*
X161705000Y-86925000D03*
%TO.N,Net-(U3-TXD)*%
X140600000Y-100670000D03*
X140190735Y-106092521D03*
%TO.N,/MCU_RESET*%
X140707571Y-82656717D03*
%TO.N,/EEPROM_SDA*%
X151320000Y-82120000D03*
X161870000Y-96250000D03*
%TO.N,/EEPROM_WC*%
X150020000Y-83220000D03*
%TO.N,/EEPROM_SCL*%
X162000000Y-97750000D03*
X150000000Y-82050000D03*
%TO.N,Net-(D5-K)*%
X136580000Y-73680000D03*
X177650000Y-97860000D03*
%TO.N,Net-(D6-K)*%
X140370000Y-73660000D03*
X177880000Y-106430000D03*
%TO.N,/ADF_MISO*%
X143229446Y-83905139D03*
X140505350Y-114978825D03*
%TO.N,/5V_SENSE*%
X140800000Y-83850000D03*
X136370000Y-90980000D03*
%TO.N,/3V3_SENSE*%
X133870000Y-90770000D03*
X137740000Y-83390000D03*
%TO.N,/ADF_SCK*%
X141219507Y-112246771D03*
X143320000Y-84700000D03*
%TO.N,/ADF_LE*%
X140527216Y-114179627D03*
X143480000Y-82230000D03*
%TO.N,/ADF_MOSI*%
X141400000Y-113060000D03*
X143236594Y-83050063D03*
%TD*%
D23*
%TO.N,+5V*%
X145720000Y-110540000D02*
X145720000Y-116000000D01*
X135810000Y-95210000D02*
X135770000Y-95170000D01*
X136880000Y-99170000D02*
X135810000Y-98100000D01*
X169710000Y-102740000D02*
X169710000Y-118300000D01*
X147360000Y-83070000D02*
X147470000Y-83180000D01*
X146840000Y-80700000D02*
X147360000Y-81220000D01*
X145960000Y-75520000D02*
X145960000Y-79220000D01*
X146450000Y-75030000D02*
X145960000Y-75520000D01*
X156120000Y-76380000D02*
X157170000Y-76380000D01*
X169710000Y-118300000D02*
X166330000Y-121680000D01*
X156180000Y-73990000D02*
X147490000Y-73990000D01*
X145720000Y-116000000D02*
X144460000Y-117260000D01*
X137260000Y-118570000D02*
X137260000Y-112820000D01*
X147470000Y-83180000D02*
X147470000Y-101340000D01*
X147470000Y-101340000D02*
X146210000Y-102600000D01*
X136880000Y-112440000D02*
X136880000Y-99170000D01*
X164360000Y-83570000D02*
X164360000Y-97390000D01*
X146210000Y-102600000D02*
X145720000Y-103090000D01*
X143150000Y-118570000D02*
X137260000Y-118570000D01*
X145960000Y-79820000D02*
X146840000Y-80700000D01*
X144460000Y-117260000D02*
X143150000Y-118570000D01*
X147360000Y-81220000D02*
X147360000Y-83070000D01*
X157170000Y-76380000D02*
X164360000Y-83570000D01*
X137260000Y-112820000D02*
X136880000Y-112440000D01*
X147490000Y-73990000D02*
X146450000Y-75030000D01*
X135810000Y-98100000D02*
X135810000Y-95210000D01*
X164360000Y-97390000D02*
X169710000Y-102740000D01*
X145720000Y-103090000D02*
X145720000Y-110540000D01*
X145960000Y-79220000D02*
X145960000Y-79820000D01*
X166330000Y-121680000D02*
X153630000Y-121680000D01*
D24*
%TO.N,/GNSS_TX*%
X141190000Y-88550000D02*
X142160000Y-87580000D01*
X140340019Y-91329981D02*
X141190000Y-90480000D01*
X141190000Y-90480000D02*
X141190000Y-88550000D01*
X140620000Y-96010000D02*
X140620000Y-96890000D01*
X138170000Y-91590000D02*
X138170000Y-93560000D01*
X138170000Y-93560000D02*
X140620000Y-96010000D01*
X138430019Y-91329981D02*
X140340019Y-91329981D01*
X138170000Y-91590000D02*
X138430019Y-91329981D01*
%TO.N,/GNSS_RX*%
X137370000Y-94160000D02*
X137370000Y-90620000D01*
X137370000Y-90620000D02*
X139620000Y-88370000D01*
X139620000Y-88370000D02*
X139620000Y-87580000D01*
X139390000Y-106005000D02*
X139390000Y-96180000D01*
X139395000Y-106010000D02*
X139390000Y-106005000D01*
X139390000Y-96180000D02*
X137370000Y-94160000D01*
%TO.N,Net-(Q1-D)*%
X117960000Y-109000000D02*
X119190000Y-109000000D01*
X119190000Y-109000000D02*
X120240000Y-107950000D01*
D25*
%TO.N,Net-(Q3-G)*%
X161705000Y-86925000D02*
X161470000Y-87160000D01*
X160910000Y-91300000D02*
X154250000Y-91300000D01*
X154250000Y-91300000D02*
X153660000Y-91890000D01*
X161470000Y-90740000D02*
X160910000Y-91300000D01*
X161470000Y-87160000D02*
X161470000Y-90740000D01*
D24*
%TO.N,Net-(U3-TXD)*%
X140190735Y-106092521D02*
X140190735Y-101079265D01*
X140190735Y-101079265D02*
X140600000Y-100670000D01*
%TO.N,/MCU_RESET*%
X141820000Y-81990000D02*
X141153283Y-82656717D01*
X141820000Y-74710000D02*
X141820000Y-81990000D01*
X141153283Y-82656717D02*
X140707571Y-82656717D01*
X144030000Y-72500000D02*
X141820000Y-74710000D01*
%TO.N,/EEPROM_SDA*%
X149750000Y-90040000D02*
X149750000Y-86510000D01*
X161870000Y-96250000D02*
X160180000Y-97940000D01*
X157650000Y-97940000D02*
X149750000Y-90040000D01*
X149750000Y-86510000D02*
X151320000Y-84940000D01*
X151320000Y-84940000D02*
X151320000Y-82120000D01*
X160180000Y-97940000D02*
X157650000Y-97940000D01*
%TO.N,/EEPROM_WC*%
X151560000Y-79140000D02*
X152580000Y-79140000D01*
X150700000Y-82540000D02*
X150700000Y-80000000D01*
X150700000Y-80000000D02*
X151560000Y-79140000D01*
X152580000Y-79140000D02*
X153520000Y-78200000D01*
X150020000Y-83220000D02*
X150700000Y-82540000D01*
X153520000Y-78200000D02*
X153520000Y-77770000D01*
%TO.N,/EEPROM_SCL*%
X157380000Y-98720000D02*
X148980000Y-90320000D01*
X162000000Y-97750000D02*
X161710000Y-97750000D01*
X150000000Y-82050000D02*
X150000000Y-78750000D01*
X160740000Y-98720000D02*
X157380000Y-98720000D01*
X148980000Y-83070000D02*
X150000000Y-82050000D01*
X161710000Y-97750000D02*
X160740000Y-98720000D01*
X148980000Y-90320000D02*
X148980000Y-83070000D01*
X150000000Y-78750000D02*
X150980000Y-77770000D01*
%TO.N,Net-(D5-K)*%
X136580000Y-73680000D02*
X136580000Y-73530000D01*
X156490000Y-69380000D02*
X158520000Y-71410000D01*
X168130000Y-88990000D02*
X168130000Y-96820000D01*
X158520000Y-71410000D02*
X158520000Y-74450000D01*
X177590000Y-97860000D02*
X177650000Y-97860000D01*
X168130000Y-96820000D02*
X170420000Y-99110000D01*
X136580000Y-73530000D02*
X140730000Y-69380000D01*
X170560000Y-99110000D02*
X170910000Y-99460000D01*
X158520000Y-74450000D02*
X166660000Y-82590000D01*
X166660000Y-82590000D02*
X166660000Y-87520000D01*
X170910000Y-99460000D02*
X175990000Y-99460000D01*
X170420000Y-99110000D02*
X170560000Y-99110000D01*
X166660000Y-87520000D02*
X168130000Y-88990000D01*
X140730000Y-69380000D02*
X156490000Y-69380000D01*
X175990000Y-99460000D02*
X177590000Y-97860000D01*
%TO.N,Net-(D6-K)*%
X140370000Y-73660000D02*
X140370000Y-71440000D01*
X141750000Y-70060000D02*
X156050000Y-70060000D01*
X156050000Y-70060000D02*
X157920000Y-71930000D01*
X157920000Y-74720000D02*
X165990000Y-82790000D01*
X140370000Y-71440000D02*
X141750000Y-70060000D01*
X176370000Y-100370000D02*
X178000000Y-102000000D01*
X167350000Y-97510000D02*
X170210000Y-100370000D01*
X178000000Y-102000000D02*
X178000000Y-106310000D01*
X167350000Y-89240000D02*
X167350000Y-97510000D01*
X178000000Y-106310000D02*
X177880000Y-106430000D01*
X165990000Y-82790000D02*
X165990000Y-87880000D01*
X170210000Y-100370000D02*
X176370000Y-100370000D01*
X157920000Y-71930000D02*
X157920000Y-74720000D01*
X165990000Y-87880000D02*
X167350000Y-89240000D01*
%TO.N,/ADF_MISO*%
X145940000Y-82890000D02*
X144660000Y-81610000D01*
X144660000Y-81610000D02*
X142900000Y-81610000D01*
X140505350Y-114978825D02*
X141391175Y-114978825D01*
X142360000Y-82150000D02*
X142360000Y-83610000D01*
X143174585Y-83960000D02*
X143229446Y-83905139D01*
X144370000Y-101250000D02*
X145940000Y-99680000D01*
X142900000Y-81610000D02*
X142360000Y-82150000D01*
X142710000Y-83960000D02*
X143174585Y-83960000D01*
X144370000Y-112000000D02*
X144370000Y-101250000D01*
X141391175Y-114978825D02*
X144370000Y-112000000D01*
X142360000Y-83610000D02*
X142710000Y-83960000D01*
X145940000Y-99680000D02*
X145940000Y-82890000D01*
%TO.N,/5V_SENSE*%
X138970000Y-85870000D02*
X140800000Y-84040000D01*
X136370000Y-88470000D02*
X138970000Y-85870000D01*
X136370000Y-90980000D02*
X136370000Y-88470000D01*
X140800000Y-84040000D02*
X140800000Y-83850000D01*
%TO.N,/3V3_SENSE*%
X137740000Y-86010000D02*
X137740000Y-83390000D01*
X133870000Y-90770000D02*
X133870000Y-89880000D01*
X133870000Y-89880000D02*
X137740000Y-86010000D01*
%TO.N,/ADF_SCK*%
X144060000Y-85440000D02*
X143320000Y-84700000D01*
X141690000Y-111776278D02*
X141690000Y-95970000D01*
X141219507Y-112246771D02*
X141690000Y-111776278D01*
X144060000Y-93600000D02*
X144060000Y-85440000D01*
X141690000Y-95970000D02*
X144060000Y-93600000D01*
%TO.N,/ADF_LE*%
X145300000Y-98870000D02*
X145300000Y-84050000D01*
X140527216Y-114179627D02*
X141128902Y-114179627D01*
X145300000Y-84050000D02*
X143480000Y-82230000D01*
X143070000Y-112238529D02*
X143070000Y-101100000D01*
X143070000Y-101100000D02*
X145300000Y-98870000D01*
X141128902Y-114179627D02*
X143070000Y-112238529D01*
%TO.N,/ADF_MOSI*%
X144620000Y-94270000D02*
X144620000Y-84433469D01*
X141400000Y-113060000D02*
X142440000Y-112020000D01*
X144620000Y-84433469D02*
X143236594Y-83050063D01*
X142440000Y-96450000D02*
X144620000Y-94270000D01*
X142440000Y-112020000D02*
X142440000Y-96450000D01*
%TD*%
%TA.AperFunction,Conductor*%
%TO.N,GND*%
G36*
X116452532Y-125975274D02*
G01*
X116630614Y-126153356D01*
X116732244Y-126227195D01*
X115237592Y-127721847D01*
X115239540Y-127759012D01*
X115223390Y-127826989D01*
X115173053Y-127875445D01*
X115115710Y-127889500D01*
X114814500Y-127889500D01*
X114747461Y-127869815D01*
X114701706Y-127817011D01*
X114690500Y-127765500D01*
X114690500Y-127479458D01*
X114710185Y-127412419D01*
X114762989Y-127366664D01*
X114832147Y-127356720D01*
X114854049Y-127366722D01*
X114884040Y-127368294D01*
X116378692Y-125873642D01*
X116452532Y-125975274D01*
G37*
%TD.AperFunction*%
%TA.AperFunction,Conductor*%
G36*
X140137941Y-68910185D02*
G01*
X140183696Y-68962989D01*
X140193640Y-69032147D01*
X140164615Y-69095703D01*
X140158583Y-69102181D01*
X136367514Y-72893249D01*
X136320789Y-72922609D01*
X136230476Y-72954211D01*
X136230475Y-72954212D01*
X136077737Y-73050184D01*
X135950184Y-73177737D01*
X135854211Y-73330476D01*
X135794631Y-73500745D01*
X135794630Y-73500750D01*
X135774435Y-73679996D01*
X135774435Y-73680003D01*
X135794630Y-73859249D01*
X135794631Y-73859254D01*
X135854211Y-74029523D01*
X135914265Y-74125098D01*
X135950184Y-74182262D01*
X136077738Y-74309816D01*
X136097796Y-74322419D01*
X136198646Y-74385788D01*
X136230478Y-74405789D01*
X136343591Y-74445369D01*
X136400745Y-74465368D01*
X136400750Y-74465369D01*
X136579996Y-74485565D01*
X136580000Y-74485565D01*
X136580004Y-74485565D01*
X136759249Y-74465369D01*
X136759252Y-74465368D01*
X136759255Y-74465368D01*
X136929522Y-74405789D01*
X137082262Y-74309816D01*
X137209816Y-74182262D01*
X137305789Y-74029522D01*
X137365368Y-73859255D01*
X137367622Y-73839255D01*
X137385565Y-73680002D01*
X137385565Y-73680000D01*
X137383647Y-73662978D01*
X137381483Y-73643776D01*
X137393536Y-73574956D01*
X137417019Y-73542214D01*
X139557819Y-71401415D01*
X139619141Y-71367931D01*
X139688833Y-71372915D01*
X139744766Y-71414787D01*
X139769183Y-71480251D01*
X139769499Y-71489097D01*
X139769499Y-71529046D01*
X139769500Y-71529059D01*
X139769500Y-73077587D01*
X139749815Y-73144626D01*
X139742450Y-73154896D01*
X139740186Y-73157734D01*
X139644211Y-73310476D01*
X139584631Y-73480745D01*
X139584630Y-73480750D01*
X139564435Y-73659996D01*
X139564435Y-73660003D01*
X139584630Y-73839249D01*
X139584631Y-73839254D01*
X139644211Y-74009523D01*
X139708576Y-74111959D01*
X139740184Y-74162262D01*
X139867738Y-74289816D01*
X140020478Y-74385789D01*
X140190745Y-74445368D01*
X140190750Y-74445369D01*
X140369996Y-74465565D01*
X140370000Y-74465565D01*
X140370004Y-74465565D01*
X140549249Y-74445369D01*
X140549252Y-74445368D01*
X140549255Y-74445368D01*
X140719522Y-74385789D01*
X140872262Y-74289816D01*
X140999816Y-74162262D01*
X141095789Y-74009522D01*
X141155368Y-73839255D01*
X141167978Y-73727341D01*
X141175565Y-73660003D01*
X141175565Y-73659996D01*
X141155369Y-73480750D01*
X141155368Y-73480745D01*
X141138584Y-73432778D01*
X141095789Y-73310478D01*
X140999816Y-73157738D01*
X140999814Y-73157736D01*
X140999813Y-73157734D01*
X140997550Y-73154896D01*
X140996659Y-73152715D01*
X140996111Y-73151842D01*
X140996264Y-73151745D01*
X140971144Y-73090209D01*
X140970500Y-73077587D01*
X140970500Y-71740097D01*
X140990185Y-71673058D01*
X141006819Y-71652416D01*
X141261596Y-71397639D01*
X141545161Y-71114073D01*
X141606482Y-71080590D01*
X141676173Y-71085574D01*
X141732107Y-71127445D01*
X141756524Y-71192910D01*
X141756243Y-71213906D01*
X141754659Y-71229994D01*
X141754659Y-71229999D01*
X141773975Y-71426129D01*
X141782039Y-71452712D01*
X141812226Y-71552226D01*
X141831188Y-71614733D01*
X141924086Y-71788532D01*
X141927473Y-71793601D01*
X141925836Y-71794694D01*
X141949596Y-71850663D01*
X141937795Y-71919529D01*
X141927109Y-71936156D01*
X141927473Y-71936399D01*
X141924086Y-71941467D01*
X141831188Y-72115266D01*
X141773975Y-72303870D01*
X141754659Y-72500000D01*
X141773975Y-72696129D01*
X141773976Y-72696132D01*
X141807228Y-72805750D01*
X141831188Y-72884733D01*
X141924086Y-73058532D01*
X141924090Y-73058539D01*
X142049116Y-73210883D01*
X142124142Y-73272454D01*
X142174462Y-73313752D01*
X142213796Y-73371496D01*
X142215667Y-73441341D01*
X142183478Y-73497285D01*
X141451286Y-74229478D01*
X141339481Y-74341282D01*
X141339479Y-74341285D01*
X141327507Y-74362022D01*
X141299701Y-74410184D01*
X141260423Y-74478215D01*
X141219499Y-74630943D01*
X141219499Y-74630945D01*
X141219499Y-74799046D01*
X141219500Y-74799059D01*
X141219500Y-79729938D01*
X141199815Y-79796977D01*
X141147011Y-79842732D01*
X141077853Y-79852676D01*
X141054547Y-79846980D01*
X141019260Y-79834633D01*
X141019249Y-79834630D01*
X140840004Y-79814435D01*
X140839996Y-79814435D01*
X140660750Y-79834630D01*
X140660745Y-79834631D01*
X140490476Y-79894211D01*
X140337737Y-79990184D01*
X140210184Y-80117737D01*
X140114211Y-80270476D01*
X140054631Y-80440745D01*
X140054630Y-80440750D01*
X140034435Y-80619996D01*
X140034435Y-80620003D01*
X140054630Y-80799249D01*
X140054631Y-80799254D01*
X140114211Y-80969523D01*
X140197784Y-81102527D01*
X140210184Y-81122262D01*
X140337738Y-81249816D01*
X140376284Y-81274036D01*
X140472721Y-81334632D01*
X140490478Y-81345789D01*
X140628860Y-81394211D01*
X140660745Y-81405368D01*
X140660750Y-81405369D01*
X140839996Y-81425565D01*
X140840000Y-81425565D01*
X140840004Y-81425565D01*
X141019249Y-81405369D01*
X141019252Y-81405368D01*
X141019255Y-81405368D01*
X141019256Y-81405367D01*
X141019259Y-81405367D01*
X141054544Y-81393020D01*
X141124323Y-81389457D01*
X141184951Y-81424186D01*
X141217178Y-81486179D01*
X141219500Y-81510061D01*
X141219500Y-81689902D01*
X141199815Y-81756941D01*
X141183181Y-81777583D01*
X141091996Y-81868768D01*
X141030673Y-81902253D01*
X140963361Y-81898129D01*
X140886823Y-81871348D01*
X140707575Y-81851152D01*
X140707567Y-81851152D01*
X140528321Y-81871347D01*
X140528316Y-81871348D01*
X140358047Y-81930928D01*
X140205308Y-82026901D01*
X140077755Y-82154454D01*
X139981782Y-82307193D01*
X139922202Y-82477462D01*
X139922201Y-82477467D01*
X139902006Y-82656713D01*
X139902006Y-82656720D01*
X139922201Y-82835966D01*
X139922202Y-82835971D01*
X139981782Y-83006240D01*
X140027088Y-83078343D01*
X140077755Y-83158979D01*
X140129521Y-83210745D01*
X140137432Y-83218656D01*
X140170916Y-83279980D01*
X140165931Y-83349671D01*
X140154744Y-83372309D01*
X140074211Y-83500476D01*
X140014631Y-83670745D01*
X140014630Y-83670750D01*
X139994435Y-83849996D01*
X139994435Y-83850003D01*
X140002566Y-83922172D01*
X139990511Y-83990994D01*
X139967027Y-84023736D01*
X138601284Y-85389481D01*
X138552181Y-85438584D01*
X138490858Y-85472069D01*
X138421166Y-85467085D01*
X138365233Y-85425213D01*
X138340816Y-85359749D01*
X138340500Y-85350903D01*
X138340500Y-83972412D01*
X138360185Y-83905373D01*
X138367555Y-83895097D01*
X138369810Y-83892267D01*
X138369816Y-83892262D01*
X138465789Y-83739522D01*
X138525368Y-83569255D01*
X138528919Y-83537738D01*
X138545565Y-83390003D01*
X138545565Y-83389996D01*
X138525369Y-83210750D01*
X138525368Y-83210745D01*
X138503442Y-83148083D01*
X138465789Y-83040478D01*
X138369816Y-82887738D01*
X138242262Y-82760184D01*
X138213655Y-82742209D01*
X138089523Y-82664211D01*
X137919254Y-82604631D01*
X137919249Y-82604630D01*
X137740004Y-82584435D01*
X137739996Y-82584435D01*
X137560750Y-82604630D01*
X137560745Y-82604631D01*
X137390476Y-82664211D01*
X137237737Y-82760184D01*
X137110184Y-82887737D01*
X137014211Y-83040476D01*
X136954631Y-83210745D01*
X136954630Y-83210750D01*
X136934435Y-83389996D01*
X136934435Y-83390003D01*
X136954630Y-83569249D01*
X136954631Y-83569254D01*
X137014211Y-83739523D01*
X137074515Y-83835496D01*
X137106927Y-83887079D01*
X137110185Y-83892263D01*
X137112445Y-83895097D01*
X137113334Y-83897275D01*
X137113889Y-83898158D01*
X137113734Y-83898255D01*
X137138855Y-83959783D01*
X137139500Y-83972412D01*
X137139500Y-85709902D01*
X137119815Y-85776941D01*
X137103181Y-85797583D01*
X133389481Y-89511282D01*
X133389477Y-89511287D01*
X133343407Y-89591085D01*
X133343406Y-89591084D01*
X133310424Y-89648211D01*
X133310423Y-89648215D01*
X133269499Y-89800943D01*
X133269499Y-89800945D01*
X133269499Y-89969046D01*
X133269500Y-89969059D01*
X133269500Y-90187587D01*
X133249815Y-90254626D01*
X133242450Y-90264896D01*
X133240186Y-90267734D01*
X133144211Y-90420476D01*
X133084631Y-90590745D01*
X133084630Y-90590750D01*
X133064435Y-90769996D01*
X133064435Y-90770003D01*
X133084630Y-90949249D01*
X133084631Y-90949254D01*
X133144211Y-91119523D01*
X133215781Y-91233425D01*
X133240184Y-91272262D01*
X133367738Y-91399816D01*
X133520478Y-91495789D01*
X133524428Y-91497171D01*
X133690745Y-91555368D01*
X133690750Y-91555369D01*
X133869996Y-91575565D01*
X133870000Y-91575565D01*
X133870004Y-91575565D01*
X134049249Y-91555369D01*
X134049252Y-91555368D01*
X134049255Y-91555368D01*
X134219522Y-91495789D01*
X134372262Y-91399816D01*
X134499816Y-91272262D01*
X134595789Y-91119522D01*
X134655368Y-90949255D01*
X134656366Y-90940396D01*
X134675565Y-90770003D01*
X134675565Y-90769996D01*
X134655369Y-90590750D01*
X134655368Y-90590745D01*
X134633935Y-90529493D01*
X134595789Y-90420478D01*
X134591223Y-90413212D01*
X134554808Y-90355257D01*
X134499816Y-90267738D01*
X134499814Y-90267736D01*
X134499813Y-90267734D01*
X134497550Y-90264896D01*
X134496659Y-90262715D01*
X134496111Y-90261842D01*
X134496264Y-90261745D01*
X134471144Y-90200209D01*
X134470500Y-90187587D01*
X134470500Y-90180097D01*
X134490185Y-90113058D01*
X134506819Y-90092416D01*
X135557819Y-89041416D01*
X135619142Y-89007931D01*
X135688834Y-89012915D01*
X135744767Y-89054787D01*
X135769184Y-89120251D01*
X135769500Y-89129097D01*
X135769500Y-90397587D01*
X135749815Y-90464626D01*
X135742450Y-90474896D01*
X135740186Y-90477734D01*
X135644211Y-90630476D01*
X135584631Y-90800745D01*
X135584630Y-90800750D01*
X135564435Y-90979996D01*
X135564435Y-90980003D01*
X135584630Y-91159249D01*
X135584631Y-91159254D01*
X135644211Y-91329523D01*
X135700971Y-91419855D01*
X135740184Y-91482262D01*
X135867738Y-91609816D01*
X136020478Y-91705789D01*
X136190742Y-91765367D01*
X136190745Y-91765368D01*
X136190750Y-91765369D01*
X136369996Y-91785565D01*
X136370000Y-91785565D01*
X136370004Y-91785565D01*
X136549249Y-91765369D01*
X136549250Y-91765368D01*
X136549255Y-91765368D01*
X136604545Y-91746020D01*
X136674322Y-91742458D01*
X136734950Y-91777186D01*
X136767178Y-91839179D01*
X136769500Y-91863062D01*
X136769500Y-94073330D01*
X136769499Y-94073348D01*
X136769499Y-94239059D01*
X136770432Y-94246151D01*
X136759660Y-94315185D01*
X136735173Y-94350005D01*
X136659552Y-94425627D01*
X136603196Y-94515315D01*
X136550861Y-94561605D01*
X136481807Y-94572252D01*
X136417959Y-94543876D01*
X136410522Y-94537022D01*
X136344035Y-94470535D01*
X136196545Y-94371986D01*
X136032666Y-94304105D01*
X136032658Y-94304103D01*
X135858696Y-94269500D01*
X135858692Y-94269500D01*
X135681308Y-94269500D01*
X135681303Y-94269500D01*
X135507341Y-94304103D01*
X135507333Y-94304105D01*
X135343451Y-94371988D01*
X135195965Y-94470534D01*
X135195958Y-94470540D01*
X135070540Y-94595958D01*
X135070534Y-94595965D01*
X134980924Y-94730078D01*
X134927312Y-94774884D01*
X134857987Y-94783591D01*
X134794960Y-94753437D01*
X134758240Y-94693994D01*
X134754602Y-94647305D01*
X134765565Y-94550003D01*
X134765565Y-94549996D01*
X134745369Y-94370750D01*
X134745368Y-94370745D01*
X134721615Y-94302863D01*
X134685789Y-94200478D01*
X134589816Y-94047738D01*
X134462262Y-93920184D01*
X134396561Y-93878901D01*
X134309523Y-93824211D01*
X134139254Y-93764631D01*
X134139249Y-93764630D01*
X133960004Y-93744435D01*
X133959996Y-93744435D01*
X133780750Y-93764630D01*
X133780745Y-93764631D01*
X133610476Y-93824211D01*
X133457737Y-93920184D01*
X133330184Y-94047737D01*
X133234211Y-94200476D01*
X133174631Y-94370745D01*
X133174630Y-94370750D01*
X133154435Y-94549996D01*
X133154435Y-94550003D01*
X133174630Y-94729249D01*
X133174631Y-94729254D01*
X133234211Y-94899523D01*
X133270316Y-94956983D01*
X133330184Y-95052262D01*
X133457738Y-95179816D01*
X133479411Y-95193434D01*
X133583274Y-95258696D01*
X133610478Y-95275789D01*
X133780745Y-95335368D01*
X133780750Y-95335369D01*
X133959996Y-95355565D01*
X133960000Y-95355565D01*
X133960004Y-95355565D01*
X134139249Y-95335369D01*
X134139252Y-95335368D01*
X134139255Y-95335368D01*
X134309522Y-95275789D01*
X134462262Y-95179816D01*
X134589816Y-95052262D01*
X134649684Y-94956981D01*
X134702017Y-94910692D01*
X134771071Y-94900043D01*
X134834919Y-94928418D01*
X134873291Y-94986808D01*
X134876295Y-95047144D01*
X134869500Y-95081307D01*
X134869500Y-95258696D01*
X134904103Y-95432661D01*
X134904159Y-95432844D01*
X134904214Y-95433221D01*
X134905293Y-95438641D01*
X134905026Y-95438693D01*
X134909500Y-95468844D01*
X134909500Y-98188696D01*
X134944103Y-98362658D01*
X134944105Y-98362666D01*
X134978046Y-98444606D01*
X134978046Y-98444607D01*
X135011984Y-98526542D01*
X135011988Y-98526549D01*
X135051571Y-98585790D01*
X135051572Y-98585790D01*
X135110537Y-98674038D01*
X135110540Y-98674041D01*
X135943181Y-99506680D01*
X135976666Y-99568003D01*
X135979500Y-99594361D01*
X135979500Y-112528696D01*
X136014103Y-112702658D01*
X136014105Y-112702666D01*
X136048046Y-112784606D01*
X136048046Y-112784607D01*
X136081984Y-112866542D01*
X136081985Y-112866544D01*
X136104674Y-112900500D01*
X136104674Y-112900501D01*
X136180532Y-113014031D01*
X136180534Y-113014034D01*
X136180535Y-113014035D01*
X136180536Y-113014036D01*
X136323182Y-113156682D01*
X136356666Y-113218003D01*
X136359500Y-113244362D01*
X136359500Y-118658695D01*
X136394103Y-118832658D01*
X136394106Y-118832667D01*
X136461983Y-118996540D01*
X136461990Y-118996553D01*
X136560535Y-119144034D01*
X136560538Y-119144038D01*
X136685961Y-119269461D01*
X136685965Y-119269464D01*
X136833446Y-119368009D01*
X136833459Y-119368016D01*
X136956363Y-119418923D01*
X136997334Y-119435894D01*
X136997336Y-119435894D01*
X136997341Y-119435896D01*
X137171304Y-119470499D01*
X137171307Y-119470500D01*
X137171309Y-119470500D01*
X143238693Y-119470500D01*
X143238694Y-119470499D01*
X143412666Y-119435895D01*
X143494606Y-119401953D01*
X143576547Y-119368013D01*
X143684637Y-119295789D01*
X143724036Y-119269464D01*
X145023826Y-117969671D01*
X145023831Y-117969668D01*
X145034034Y-117959464D01*
X145034036Y-117959464D01*
X146419464Y-116574036D01*
X146458936Y-116514959D01*
X146518013Y-116426547D01*
X146551953Y-116344606D01*
X146585895Y-116262666D01*
X146620500Y-116088692D01*
X146620500Y-115911308D01*
X146620500Y-110451309D01*
X146620500Y-103527870D01*
X152279500Y-103527870D01*
X152279501Y-103527876D01*
X152285908Y-103587483D01*
X152336202Y-103722328D01*
X152336206Y-103722335D01*
X152422452Y-103837544D01*
X152422455Y-103837547D01*
X152537664Y-103923793D01*
X152537671Y-103923797D01*
X152672517Y-103974091D01*
X152672516Y-103974091D01*
X152679444Y-103974835D01*
X152732127Y-103980500D01*
X154527872Y-103980499D01*
X154587483Y-103974091D01*
X154722331Y-103923796D01*
X154837546Y-103837546D01*
X154923796Y-103722331D01*
X154974091Y-103587483D01*
X154980500Y-103527873D01*
X154980499Y-101732128D01*
X154974091Y-101672517D01*
X154958712Y-101631285D01*
X154923797Y-101537671D01*
X154923793Y-101537664D01*
X154837547Y-101422455D01*
X154837544Y-101422452D01*
X154722335Y-101336206D01*
X154722328Y-101336202D01*
X154587482Y-101285908D01*
X154587483Y-101285908D01*
X154527883Y-101279501D01*
X154527881Y-101279500D01*
X154527873Y-101279500D01*
X154527864Y-101279500D01*
X152732129Y-101279500D01*
X152732123Y-101279501D01*
X152672516Y-101285908D01*
X152537671Y-101336202D01*
X152537664Y-101336206D01*
X152422455Y-101422452D01*
X152422452Y-101422455D01*
X152336206Y-101537664D01*
X152336202Y-101537671D01*
X152285908Y-101672517D01*
X152279501Y-101732116D01*
X152279501Y-101732123D01*
X152279500Y-101732135D01*
X152279500Y-103527870D01*
X146620500Y-103527870D01*
X146620500Y-103514361D01*
X146640185Y-103447322D01*
X146656814Y-103426684D01*
X146773826Y-103309671D01*
X146773830Y-103309669D01*
X146784034Y-103299464D01*
X146784036Y-103299464D01*
X148169464Y-101914036D01*
X148216119Y-101844212D01*
X148239261Y-101809578D01*
X148239262Y-101809576D01*
X148255929Y-101784632D01*
X148268013Y-101766547D01*
X148301953Y-101684606D01*
X148335895Y-101602666D01*
X148370500Y-101428692D01*
X148370500Y-101251308D01*
X148370500Y-90859098D01*
X148390185Y-90792059D01*
X148442989Y-90746304D01*
X148512147Y-90736360D01*
X148575703Y-90765385D01*
X148582181Y-90771417D01*
X148618349Y-90807585D01*
X148618355Y-90807590D01*
X156895139Y-99084374D01*
X156895149Y-99084385D01*
X156899479Y-99088715D01*
X156899480Y-99088716D01*
X157011284Y-99200520D01*
X157077442Y-99238716D01*
X157148215Y-99279577D01*
X157300943Y-99320501D01*
X157300946Y-99320501D01*
X157466653Y-99320501D01*
X157466669Y-99320500D01*
X160653331Y-99320500D01*
X160653347Y-99320501D01*
X160660943Y-99320501D01*
X160819054Y-99320501D01*
X160819057Y-99320501D01*
X160971785Y-99279577D01*
X161042558Y-99238716D01*
X161108716Y-99200520D01*
X161220520Y-99088716D01*
X161220520Y-99088714D01*
X161230724Y-99078511D01*
X161230728Y-99078506D01*
X161736389Y-98572844D01*
X161797710Y-98539361D01*
X161837952Y-98537307D01*
X161999997Y-98555565D01*
X162000000Y-98555565D01*
X162000004Y-98555565D01*
X162179249Y-98535369D01*
X162179252Y-98535368D01*
X162179255Y-98535368D01*
X162349522Y-98475789D01*
X162502262Y-98379816D01*
X162629816Y-98252262D01*
X162725789Y-98099522D01*
X162785368Y-97929255D01*
X162786383Y-97920247D01*
X162805565Y-97750003D01*
X162805565Y-97749996D01*
X162785369Y-97570750D01*
X162785368Y-97570745D01*
X162781340Y-97559235D01*
X162725789Y-97400478D01*
X162725188Y-97399522D01*
X162675105Y-97319815D01*
X162629816Y-97247738D01*
X162502262Y-97120184D01*
X162406467Y-97059992D01*
X162360177Y-97007658D01*
X162349529Y-96938605D01*
X162377904Y-96874756D01*
X162384735Y-96867342D01*
X162499816Y-96752262D01*
X162595789Y-96599522D01*
X162655368Y-96429255D01*
X162656390Y-96420184D01*
X162675565Y-96250003D01*
X162675565Y-96249996D01*
X162655369Y-96070750D01*
X162655368Y-96070745D01*
X162595788Y-95900476D01*
X162499815Y-95747737D01*
X162372262Y-95620184D01*
X162219523Y-95524211D01*
X162049254Y-95464631D01*
X162049249Y-95464630D01*
X161870004Y-95444435D01*
X161869996Y-95444435D01*
X161690750Y-95464630D01*
X161690745Y-95464631D01*
X161520476Y-95524211D01*
X161367739Y-95620183D01*
X161237411Y-95750511D01*
X161176088Y-95783995D01*
X161106396Y-95779011D01*
X161050463Y-95737139D01*
X161044737Y-95728802D01*
X160949817Y-95577739D01*
X160894474Y-95522396D01*
X160860989Y-95461073D01*
X160865973Y-95391381D01*
X160877161Y-95368743D01*
X160929578Y-95285321D01*
X160945789Y-95259522D01*
X161005368Y-95089255D01*
X161005369Y-95089249D01*
X161025565Y-94910003D01*
X161025565Y-94909996D01*
X161005369Y-94730750D01*
X161005368Y-94730745D01*
X160945788Y-94560475D01*
X160869444Y-94438976D01*
X160850443Y-94371739D01*
X160870810Y-94304904D01*
X160886756Y-94285322D01*
X160933021Y-94239057D01*
X161009816Y-94162262D01*
X161105789Y-94009522D01*
X161165368Y-93839255D01*
X161167063Y-93824211D01*
X161185565Y-93660003D01*
X161185565Y-93659996D01*
X161165369Y-93480750D01*
X161165368Y-93480745D01*
X161122119Y-93357146D01*
X161105789Y-93310478D01*
X161009816Y-93157738D01*
X160924759Y-93072681D01*
X160891274Y-93011358D01*
X160896258Y-92941666D01*
X160924759Y-92897319D01*
X160935538Y-92886540D01*
X161009816Y-92812262D01*
X161105789Y-92659522D01*
X161165368Y-92489255D01*
X161165369Y-92489249D01*
X161185565Y-92310003D01*
X161185565Y-92309996D01*
X161165369Y-92130750D01*
X161165368Y-92130748D01*
X161165368Y-92130745D01*
X161149592Y-92085662D01*
X161146030Y-92015886D01*
X161180759Y-91955258D01*
X161219182Y-91930148D01*
X161241811Y-91920775D01*
X161356543Y-91844114D01*
X162014114Y-91186543D01*
X162090775Y-91071811D01*
X162106019Y-91035010D01*
X162128806Y-90979996D01*
X162143580Y-90944328D01*
X162170500Y-90808994D01*
X162170500Y-90671006D01*
X162170500Y-87642940D01*
X162190185Y-87575901D01*
X162206819Y-87555259D01*
X162207262Y-87554816D01*
X162334816Y-87427262D01*
X162430789Y-87274522D01*
X162490368Y-87104255D01*
X162491215Y-87096738D01*
X162510565Y-86925003D01*
X162510565Y-86924996D01*
X162490369Y-86745750D01*
X162490368Y-86745745D01*
X162430788Y-86575476D01*
X162391582Y-86513080D01*
X162334816Y-86422738D01*
X162207262Y-86295184D01*
X162137098Y-86251097D01*
X162054523Y-86199211D01*
X161884254Y-86139631D01*
X161884249Y-86139630D01*
X161705004Y-86119435D01*
X161704996Y-86119435D01*
X161529325Y-86139227D01*
X161460503Y-86127172D01*
X161410449Y-86081980D01*
X161319816Y-85937738D01*
X161192262Y-85810184D01*
X161114408Y-85761265D01*
X161039523Y-85714211D01*
X160869254Y-85654631D01*
X160869249Y-85654630D01*
X160690004Y-85634435D01*
X160689996Y-85634435D01*
X160510750Y-85654630D01*
X160510745Y-85654631D01*
X160340476Y-85714211D01*
X160187737Y-85810184D01*
X160060184Y-85937737D01*
X159964211Y-86090476D01*
X159904631Y-86260745D01*
X159904630Y-86260750D01*
X159884435Y-86439996D01*
X159884435Y-86440003D01*
X159904630Y-86619249D01*
X159904631Y-86619254D01*
X159964211Y-86789523D01*
X160049339Y-86925003D01*
X160060184Y-86942262D01*
X160187738Y-87069816D01*
X160340478Y-87165789D01*
X160422901Y-87194630D01*
X160510745Y-87225368D01*
X160510749Y-87225369D01*
X160604166Y-87235893D01*
X160659384Y-87242115D01*
X160723797Y-87269181D01*
X160763352Y-87326776D01*
X160769500Y-87365335D01*
X160769500Y-89334664D01*
X160749815Y-89401703D01*
X160697011Y-89447458D01*
X160659383Y-89457884D01*
X160510750Y-89474630D01*
X160510745Y-89474631D01*
X160340476Y-89534211D01*
X160187737Y-89630184D01*
X160060184Y-89757737D01*
X159964211Y-89910476D01*
X159904631Y-90080745D01*
X159904630Y-90080750D01*
X159884435Y-90259996D01*
X159884435Y-90260003D01*
X159904630Y-90439249D01*
X159906182Y-90446047D01*
X159903599Y-90446636D01*
X159906547Y-90504318D01*
X159871821Y-90564947D01*
X159809829Y-90597177D01*
X159785942Y-90599500D01*
X154181004Y-90599500D01*
X154045677Y-90626418D01*
X154045667Y-90626421D01*
X153918192Y-90679222D01*
X153803454Y-90755887D01*
X153460709Y-91098632D01*
X153413984Y-91127992D01*
X153310476Y-91164211D01*
X153310475Y-91164212D01*
X153157737Y-91260184D01*
X153030184Y-91387737D01*
X152934211Y-91540476D01*
X152874631Y-91710745D01*
X152874630Y-91710750D01*
X152854435Y-91889996D01*
X152854435Y-91890004D01*
X152866209Y-91994509D01*
X152854154Y-92063331D01*
X152806805Y-92114710D01*
X152739194Y-92132334D01*
X152672789Y-92110607D01*
X152655308Y-92096073D01*
X150386819Y-89827584D01*
X150353334Y-89766261D01*
X150350500Y-89739903D01*
X150350500Y-87980003D01*
X152814435Y-87980003D01*
X152834630Y-88159249D01*
X152834631Y-88159254D01*
X152894211Y-88329523D01*
X152938744Y-88400396D01*
X152990184Y-88482262D01*
X153117738Y-88609816D01*
X153135991Y-88621285D01*
X153233278Y-88682415D01*
X153270478Y-88705789D01*
X153307476Y-88718735D01*
X153440745Y-88765368D01*
X153440750Y-88765369D01*
X153619996Y-88785565D01*
X153620000Y-88785565D01*
X153620004Y-88785565D01*
X153799249Y-88765369D01*
X153799252Y-88765368D01*
X153799255Y-88765368D01*
X153969522Y-88705789D01*
X154122262Y-88609816D01*
X154249816Y-88482262D01*
X154345789Y-88329522D01*
X154405368Y-88159255D01*
X154425565Y-87980000D01*
X154423205Y-87959057D01*
X154405369Y-87800750D01*
X154405368Y-87800745D01*
X154345789Y-87630478D01*
X154249816Y-87477738D01*
X154122262Y-87350184D01*
X154094801Y-87332929D01*
X153969523Y-87254211D01*
X153799254Y-87194631D01*
X153799249Y-87194630D01*
X153620004Y-87174435D01*
X153619996Y-87174435D01*
X153440750Y-87194630D01*
X153440745Y-87194631D01*
X153270476Y-87254211D01*
X153117737Y-87350184D01*
X152990184Y-87477737D01*
X152894211Y-87630476D01*
X152834631Y-87800745D01*
X152834630Y-87800750D01*
X152814435Y-87979996D01*
X152814435Y-87980003D01*
X150350500Y-87980003D01*
X150350500Y-86810096D01*
X150370185Y-86743057D01*
X150386814Y-86722420D01*
X151678506Y-85430727D01*
X151678511Y-85430724D01*
X151688714Y-85420520D01*
X151688716Y-85420520D01*
X151800520Y-85308716D01*
X151861981Y-85202262D01*
X151879577Y-85171785D01*
X151920500Y-85019058D01*
X151920500Y-84860943D01*
X151920500Y-84040003D01*
X155354435Y-84040003D01*
X155374630Y-84219249D01*
X155374631Y-84219254D01*
X155434211Y-84389523D01*
X155503713Y-84500134D01*
X155530184Y-84542262D01*
X155657738Y-84669816D01*
X155748080Y-84726582D01*
X155773749Y-84742711D01*
X155810478Y-84765789D01*
X155943693Y-84812403D01*
X155980745Y-84825368D01*
X155980750Y-84825369D01*
X156159996Y-84845565D01*
X156160000Y-84845565D01*
X156160004Y-84845565D01*
X156339249Y-84825369D01*
X156339252Y-84825368D01*
X156339255Y-84825368D01*
X156509522Y-84765789D01*
X156662262Y-84669816D01*
X156789816Y-84542262D01*
X156885789Y-84389522D01*
X156945368Y-84219255D01*
X156945524Y-84217873D01*
X156965565Y-84040003D01*
X156965565Y-84039996D01*
X156945369Y-83860750D01*
X156945368Y-83860745D01*
X156906650Y-83750095D01*
X156885789Y-83690478D01*
X156789816Y-83537738D01*
X156662262Y-83410184D01*
X156630144Y-83390003D01*
X156509523Y-83314211D01*
X156339254Y-83254631D01*
X156339249Y-83254630D01*
X156160004Y-83234435D01*
X156159996Y-83234435D01*
X155980750Y-83254630D01*
X155980745Y-83254631D01*
X155810476Y-83314211D01*
X155657737Y-83410184D01*
X155530184Y-83537737D01*
X155434211Y-83690476D01*
X155374631Y-83860745D01*
X155374630Y-83860750D01*
X155354435Y-84039996D01*
X155354435Y-84040003D01*
X151920500Y-84040003D01*
X151920500Y-82702412D01*
X151940185Y-82635373D01*
X151947555Y-82625097D01*
X151949810Y-82622267D01*
X151949816Y-82622262D01*
X152045789Y-82469522D01*
X152105368Y-82299255D01*
X152105701Y-82296299D01*
X152125565Y-82120003D01*
X152125565Y-82119996D01*
X152105369Y-81940750D01*
X152105368Y-81940745D01*
X152081085Y-81871348D01*
X152045789Y-81770478D01*
X151970089Y-81650003D01*
X155354435Y-81650003D01*
X155374630Y-81829249D01*
X155374631Y-81829254D01*
X155434211Y-81999523D01*
X155500588Y-82105160D01*
X155530184Y-82152262D01*
X155657738Y-82279816D01*
X155733896Y-82327669D01*
X155807148Y-82373697D01*
X155810478Y-82375789D01*
X155980745Y-82435368D01*
X155980750Y-82435369D01*
X156159996Y-82455565D01*
X156160000Y-82455565D01*
X156160004Y-82455565D01*
X156339249Y-82435369D01*
X156339252Y-82435368D01*
X156339255Y-82435368D01*
X156509522Y-82375789D01*
X156662262Y-82279816D01*
X156789816Y-82152262D01*
X156885789Y-81999522D01*
X156945368Y-81829255D01*
X156959878Y-81700478D01*
X156965565Y-81650003D01*
X156965565Y-81649996D01*
X156945369Y-81470750D01*
X156945368Y-81470745D01*
X156922492Y-81405369D01*
X156885789Y-81300478D01*
X156869174Y-81274036D01*
X156789815Y-81147737D01*
X156662262Y-81020184D01*
X156509523Y-80924211D01*
X156339254Y-80864631D01*
X156339249Y-80864630D01*
X156160004Y-80844435D01*
X156159996Y-80844435D01*
X155980750Y-80864630D01*
X155980745Y-80864631D01*
X155810476Y-80924211D01*
X155657737Y-81020184D01*
X155530184Y-81147737D01*
X155434211Y-81300476D01*
X155374631Y-81470745D01*
X155374630Y-81470750D01*
X155354435Y-81649996D01*
X155354435Y-81650003D01*
X151970089Y-81650003D01*
X151949816Y-81617738D01*
X151822262Y-81490184D01*
X151719422Y-81425565D01*
X151669523Y-81394211D01*
X151499254Y-81334631D01*
X151499250Y-81334630D01*
X151410616Y-81324644D01*
X151346202Y-81297577D01*
X151306647Y-81239982D01*
X151300500Y-81201424D01*
X151300500Y-80300097D01*
X151320185Y-80233058D01*
X151336819Y-80212416D01*
X151772417Y-79776819D01*
X151833740Y-79743334D01*
X151860098Y-79740500D01*
X152493331Y-79740500D01*
X152493347Y-79740501D01*
X152500943Y-79740501D01*
X152659054Y-79740501D01*
X152659057Y-79740501D01*
X152811785Y-79699577D01*
X152903635Y-79646547D01*
X152948716Y-79620520D01*
X153060520Y-79508716D01*
X153060520Y-79508714D01*
X153070724Y-79498511D01*
X153070728Y-79498506D01*
X153408838Y-79160395D01*
X153470159Y-79126912D01*
X153507325Y-79124550D01*
X153520000Y-79125659D01*
X153520001Y-79125659D01*
X153578966Y-79120500D01*
X153755408Y-79105063D01*
X153983663Y-79043903D01*
X154163587Y-78960003D01*
X155314435Y-78960003D01*
X155334630Y-79139249D01*
X155334631Y-79139254D01*
X155394211Y-79309523D01*
X155448321Y-79395638D01*
X155490184Y-79462262D01*
X155617738Y-79589816D01*
X155770478Y-79685789D01*
X155809882Y-79699577D01*
X155940745Y-79745368D01*
X155940750Y-79745369D01*
X156119996Y-79765565D01*
X156120000Y-79765565D01*
X156120004Y-79765565D01*
X156299249Y-79745369D01*
X156299252Y-79745368D01*
X156299255Y-79745368D01*
X156469522Y-79685789D01*
X156622262Y-79589816D01*
X156749816Y-79462262D01*
X156845789Y-79309522D01*
X156905368Y-79139255D01*
X156905369Y-79139249D01*
X156925565Y-78960003D01*
X156925565Y-78959996D01*
X156905369Y-78780750D01*
X156905368Y-78780745D01*
X156886731Y-78727483D01*
X156845789Y-78610478D01*
X156749816Y-78457738D01*
X156622262Y-78330184D01*
X156583853Y-78306050D01*
X156469523Y-78234211D01*
X156299254Y-78174631D01*
X156299249Y-78174630D01*
X156120004Y-78154435D01*
X156119996Y-78154435D01*
X155940750Y-78174630D01*
X155940745Y-78174631D01*
X155770476Y-78234211D01*
X155617737Y-78330184D01*
X155490184Y-78457737D01*
X155394211Y-78610476D01*
X155334631Y-78780745D01*
X155334630Y-78780750D01*
X155314435Y-78959996D01*
X155314435Y-78960003D01*
X154163587Y-78960003D01*
X154197830Y-78944035D01*
X154391401Y-78808495D01*
X154558495Y-78641401D01*
X154694035Y-78447830D01*
X154793903Y-78233663D01*
X154855063Y-78005408D01*
X154875659Y-77770000D01*
X154855063Y-77534592D01*
X154793903Y-77306337D01*
X154694035Y-77092171D01*
X154688425Y-77084158D01*
X154558494Y-76898597D01*
X154391402Y-76731506D01*
X154391395Y-76731501D01*
X154197834Y-76595967D01*
X154197830Y-76595965D01*
X154197828Y-76595964D01*
X153983663Y-76496097D01*
X153983659Y-76496096D01*
X153983655Y-76496094D01*
X153755413Y-76434938D01*
X153755403Y-76434936D01*
X153520001Y-76414341D01*
X153519999Y-76414341D01*
X153284596Y-76434936D01*
X153284586Y-76434938D01*
X153056344Y-76496094D01*
X153056335Y-76496098D01*
X152842171Y-76595964D01*
X152842169Y-76595965D01*
X152648597Y-76731505D01*
X152481505Y-76898597D01*
X152351575Y-77084158D01*
X152296998Y-77127783D01*
X152227500Y-77134977D01*
X152165145Y-77103454D01*
X152148425Y-77084158D01*
X152018494Y-76898597D01*
X151851402Y-76731506D01*
X151851395Y-76731501D01*
X151657834Y-76595967D01*
X151657830Y-76595965D01*
X151657828Y-76595964D01*
X151443663Y-76496097D01*
X151443659Y-76496096D01*
X151443655Y-76496094D01*
X151215413Y-76434938D01*
X151215403Y-76434936D01*
X150980001Y-76414341D01*
X150979999Y-76414341D01*
X150744596Y-76434936D01*
X150744586Y-76434938D01*
X150516344Y-76496094D01*
X150516335Y-76496098D01*
X150302171Y-76595964D01*
X150302169Y-76595965D01*
X150108600Y-76731503D01*
X149986673Y-76853430D01*
X149925350Y-76886914D01*
X149855658Y-76881930D01*
X149799725Y-76840058D01*
X149782810Y-76809081D01*
X149733797Y-76677671D01*
X149733793Y-76677664D01*
X149647547Y-76562455D01*
X149647544Y-76562452D01*
X149532335Y-76476206D01*
X149532328Y-76476202D01*
X149397482Y-76425908D01*
X149397483Y-76425908D01*
X149337883Y-76419501D01*
X149337881Y-76419500D01*
X149337873Y-76419500D01*
X149337864Y-76419500D01*
X147542129Y-76419500D01*
X147542123Y-76419501D01*
X147482516Y-76425908D01*
X147347671Y-76476202D01*
X147347664Y-76476206D01*
X147232455Y-76562452D01*
X147232452Y-76562455D01*
X147146206Y-76677664D01*
X147146202Y-76677671D01*
X147100682Y-76799719D01*
X147058811Y-76855653D01*
X146993347Y-76880070D01*
X146925074Y-76865219D01*
X146875668Y-76815813D01*
X146860500Y-76756386D01*
X146860500Y-75944361D01*
X146880185Y-75877322D01*
X146896814Y-75856684D01*
X147013826Y-75739671D01*
X147013830Y-75739669D01*
X147024034Y-75729464D01*
X147024036Y-75729464D01*
X147826681Y-74926819D01*
X147888004Y-74893334D01*
X147914362Y-74890500D01*
X156268693Y-74890500D01*
X156268694Y-74890499D01*
X156326682Y-74878964D01*
X156442658Y-74855896D01*
X156442661Y-74855894D01*
X156442666Y-74855894D01*
X156582535Y-74797958D01*
X156606540Y-74788016D01*
X156606540Y-74788015D01*
X156606547Y-74788013D01*
X156754035Y-74689464D01*
X156879464Y-74564035D01*
X156978013Y-74416547D01*
X156982470Y-74405788D01*
X156987958Y-74392535D01*
X157045894Y-74252666D01*
X157050506Y-74229480D01*
X157073883Y-74111959D01*
X157106268Y-74050048D01*
X157166984Y-74015474D01*
X157236753Y-74019213D01*
X157293425Y-74060080D01*
X157319006Y-74125098D01*
X157319500Y-74136150D01*
X157319500Y-74633330D01*
X157319499Y-74633348D01*
X157319499Y-74640943D01*
X157319499Y-74799057D01*
X157344761Y-74893334D01*
X157360423Y-74951785D01*
X157389358Y-75001900D01*
X157389359Y-75001904D01*
X157389360Y-75001904D01*
X157439479Y-75088714D01*
X157439481Y-75088717D01*
X157558349Y-75207585D01*
X157558355Y-75207590D01*
X157729681Y-75378916D01*
X157763166Y-75440239D01*
X157758182Y-75509931D01*
X157716310Y-75565864D01*
X157650846Y-75590281D01*
X157594548Y-75581158D01*
X157514607Y-75548046D01*
X157514606Y-75548046D01*
X157432666Y-75514105D01*
X157432658Y-75514103D01*
X157258696Y-75479500D01*
X157258692Y-75479500D01*
X157258691Y-75479500D01*
X156031309Y-75479500D01*
X156031306Y-75479500D01*
X155857341Y-75514103D01*
X155857332Y-75514106D01*
X155693459Y-75581983D01*
X155693446Y-75581990D01*
X155545965Y-75680535D01*
X155545961Y-75680538D01*
X155420538Y-75805961D01*
X155420535Y-75805965D01*
X155321990Y-75953446D01*
X155321983Y-75953459D01*
X155254106Y-76117332D01*
X155254103Y-76117341D01*
X155219500Y-76291304D01*
X155219500Y-76468695D01*
X155254103Y-76642658D01*
X155254106Y-76642667D01*
X155321983Y-76806540D01*
X155321990Y-76806553D01*
X155420535Y-76954034D01*
X155420538Y-76954038D01*
X155545961Y-77079461D01*
X155545965Y-77079464D01*
X155693446Y-77178009D01*
X155693459Y-77178016D01*
X155816363Y-77228923D01*
X155857334Y-77245894D01*
X155857336Y-77245894D01*
X155857341Y-77245896D01*
X156031304Y-77280499D01*
X156031307Y-77280500D01*
X156031309Y-77280500D01*
X156745638Y-77280500D01*
X156812677Y-77300185D01*
X156833319Y-77316819D01*
X163423181Y-83906680D01*
X163456666Y-83968003D01*
X163459500Y-83994361D01*
X163459500Y-97478696D01*
X163494103Y-97652659D01*
X163494104Y-97652663D01*
X163494105Y-97652666D01*
X163511875Y-97695565D01*
X163561984Y-97816542D01*
X163561985Y-97816544D01*
X163621063Y-97904960D01*
X163621064Y-97904961D01*
X163660534Y-97964034D01*
X163660535Y-97964035D01*
X168773181Y-103076680D01*
X168806666Y-103138003D01*
X168809500Y-103164361D01*
X168809500Y-117875638D01*
X168789815Y-117942677D01*
X168773181Y-117963319D01*
X165993319Y-120743181D01*
X165931996Y-120776666D01*
X165905638Y-120779500D01*
X154690758Y-120779500D01*
X154623719Y-120759815D01*
X154603077Y-120743181D01*
X154501402Y-120641506D01*
X154501395Y-120641501D01*
X154307834Y-120505967D01*
X154307830Y-120505965D01*
X154307828Y-120505964D01*
X154093663Y-120406097D01*
X154093659Y-120406096D01*
X154093655Y-120406094D01*
X153865413Y-120344938D01*
X153865403Y-120344936D01*
X153630001Y-120324341D01*
X153629999Y-120324341D01*
X153394596Y-120344936D01*
X153394586Y-120344938D01*
X153166344Y-120406094D01*
X153166335Y-120406098D01*
X152952171Y-120505964D01*
X152952169Y-120505965D01*
X152758597Y-120641505D01*
X152591505Y-120808597D01*
X152455965Y-121002169D01*
X152455964Y-121002171D01*
X152356098Y-121216335D01*
X152356094Y-121216344D01*
X152294938Y-121444586D01*
X152294936Y-121444596D01*
X152274341Y-121679999D01*
X152274341Y-121680000D01*
X152294936Y-121915403D01*
X152294938Y-121915413D01*
X152356094Y-122143655D01*
X152356096Y-122143659D01*
X152356097Y-122143663D01*
X152360936Y-122154040D01*
X152455965Y-122357830D01*
X152455967Y-122357834D01*
X152498754Y-122418939D01*
X152591505Y-122551401D01*
X152758599Y-122718495D01*
X152810948Y-122755150D01*
X152952165Y-122854032D01*
X152952167Y-122854033D01*
X152952170Y-122854035D01*
X153166337Y-122953903D01*
X153394592Y-123015063D01*
X153582918Y-123031539D01*
X153629999Y-123035659D01*
X153630000Y-123035659D01*
X153630001Y-123035659D01*
X153669234Y-123032226D01*
X153865408Y-123015063D01*
X154093663Y-122953903D01*
X154307830Y-122854035D01*
X154501401Y-122718495D01*
X154603077Y-122616819D01*
X154664400Y-122583334D01*
X154690758Y-122580500D01*
X166418693Y-122580500D01*
X166418694Y-122580499D01*
X166592666Y-122545895D01*
X166674606Y-122511953D01*
X166756547Y-122478013D01*
X166756549Y-122478011D01*
X166756552Y-122478010D01*
X166844955Y-122418939D01*
X166844955Y-122418938D01*
X166844959Y-122418936D01*
X166904036Y-122379464D01*
X167603500Y-121680000D01*
X171324341Y-121680000D01*
X171344936Y-121915403D01*
X171344938Y-121915413D01*
X171406094Y-122143655D01*
X171406096Y-122143659D01*
X171406097Y-122143663D01*
X171410936Y-122154040D01*
X171505965Y-122357830D01*
X171505967Y-122357834D01*
X171548754Y-122418939D01*
X171641505Y-122551401D01*
X171808599Y-122718495D01*
X171860948Y-122755150D01*
X172002165Y-122854032D01*
X172002167Y-122854033D01*
X172002170Y-122854035D01*
X172216337Y-122953903D01*
X172444592Y-123015063D01*
X172632918Y-123031539D01*
X172679999Y-123035659D01*
X172680000Y-123035659D01*
X172680001Y-123035659D01*
X172719234Y-123032226D01*
X172915408Y-123015063D01*
X173143663Y-122953903D01*
X173357830Y-122854035D01*
X173551401Y-122718495D01*
X173718495Y-122551401D01*
X173854035Y-122357830D01*
X173953903Y-122143663D01*
X174015063Y-121915408D01*
X174035659Y-121680000D01*
X174015063Y-121444592D01*
X173953903Y-121216337D01*
X173854035Y-121002171D01*
X173831380Y-120969815D01*
X173718494Y-120808597D01*
X173551402Y-120641506D01*
X173551395Y-120641501D01*
X173357834Y-120505967D01*
X173357830Y-120505965D01*
X173357828Y-120505964D01*
X173143663Y-120406097D01*
X173143659Y-120406096D01*
X173143655Y-120406094D01*
X172915413Y-120344938D01*
X172915403Y-120344936D01*
X172859019Y-120340003D01*
X177494435Y-120340003D01*
X177514630Y-120519249D01*
X177514631Y-120519254D01*
X177574211Y-120689523D01*
X177607927Y-120743181D01*
X177670184Y-120842262D01*
X177797738Y-120969816D01*
X177950478Y-121065789D01*
X178120745Y-121125368D01*
X178120750Y-121125369D01*
X178299996Y-121145565D01*
X178300000Y-121145565D01*
X178300004Y-121145565D01*
X178479249Y-121125369D01*
X178479252Y-121125368D01*
X178479255Y-121125368D01*
X178649522Y-121065789D01*
X178802262Y-120969816D01*
X178929816Y-120842262D01*
X179025789Y-120689522D01*
X179085368Y-120519255D01*
X179085369Y-120519249D01*
X179105565Y-120340003D01*
X179105565Y-120339996D01*
X179085369Y-120160750D01*
X179085368Y-120160745D01*
X179025788Y-119990476D01*
X178961504Y-119888169D01*
X178929816Y-119837738D01*
X178802262Y-119710184D01*
X178649523Y-119614211D01*
X178479254Y-119554631D01*
X178479249Y-119554630D01*
X178300004Y-119534435D01*
X178299996Y-119534435D01*
X178120750Y-119554630D01*
X178120745Y-119554631D01*
X177950476Y-119614211D01*
X177797737Y-119710184D01*
X177670184Y-119837737D01*
X177574211Y-119990476D01*
X177514631Y-120160745D01*
X177514630Y-120160750D01*
X177494435Y-120339996D01*
X177494435Y-120340003D01*
X172859019Y-120340003D01*
X172680001Y-120324341D01*
X172679999Y-120324341D01*
X172444596Y-120344936D01*
X172444586Y-120344938D01*
X172216344Y-120406094D01*
X172216335Y-120406098D01*
X172002171Y-120505964D01*
X172002169Y-120505965D01*
X171808597Y-120641505D01*
X171641505Y-120808597D01*
X171505965Y-121002169D01*
X171505964Y-121002171D01*
X171406098Y-121216335D01*
X171406094Y-121216344D01*
X171344938Y-121444586D01*
X171344936Y-121444596D01*
X171324341Y-121679999D01*
X171324341Y-121680000D01*
X167603500Y-121680000D01*
X170409464Y-118874036D01*
X170437106Y-118832666D01*
X170458738Y-118800292D01*
X170508014Y-118726545D01*
X170536120Y-118658691D01*
X170575895Y-118562666D01*
X170610500Y-118388692D01*
X170610500Y-118211308D01*
X170610500Y-112155001D01*
X171324843Y-112155001D01*
X171345430Y-112390315D01*
X171345432Y-112390326D01*
X171406566Y-112618483D01*
X171406570Y-112618492D01*
X171506400Y-112832579D01*
X171506402Y-112832583D01*
X171565072Y-112916373D01*
X171565073Y-112916373D01*
X172197037Y-112284409D01*
X172214075Y-112347993D01*
X172279901Y-112462007D01*
X172372993Y-112555099D01*
X172487007Y-112620925D01*
X172550590Y-112637962D01*
X171918625Y-113269925D01*
X172002421Y-113328599D01*
X172216507Y-113428429D01*
X172216516Y-113428433D01*
X172444673Y-113489567D01*
X172444684Y-113489569D01*
X172679998Y-113510157D01*
X172680002Y-113510157D01*
X172915315Y-113489569D01*
X172915326Y-113489567D01*
X173143483Y-113428433D01*
X173143492Y-113428429D01*
X173357578Y-113328600D01*
X173357582Y-113328598D01*
X173441373Y-113269926D01*
X173441373Y-113269925D01*
X172809409Y-112637962D01*
X172872993Y-112620925D01*
X172987007Y-112555099D01*
X173080099Y-112462007D01*
X173145925Y-112347993D01*
X173162962Y-112284409D01*
X173794925Y-112916373D01*
X173794926Y-112916373D01*
X173853598Y-112832582D01*
X173853600Y-112832578D01*
X173896768Y-112740003D01*
X178714435Y-112740003D01*
X178734630Y-112919249D01*
X178734631Y-112919254D01*
X178794211Y-113089523D01*
X178874941Y-113218003D01*
X178890184Y-113242262D01*
X179017738Y-113369816D01*
X179170478Y-113465789D01*
X179340745Y-113525368D01*
X179340750Y-113525369D01*
X179519996Y-113545565D01*
X179520000Y-113545565D01*
X179520004Y-113545565D01*
X179699249Y-113525369D01*
X179699252Y-113525368D01*
X179699255Y-113525368D01*
X179869522Y-113465789D01*
X180022262Y-113369816D01*
X180149816Y-113242262D01*
X180245789Y-113089522D01*
X180305368Y-112919255D01*
X180311307Y-112866544D01*
X180325565Y-112740003D01*
X180325565Y-112739996D01*
X180305369Y-112560750D01*
X180305368Y-112560745D01*
X180303392Y-112555099D01*
X180245789Y-112390478D01*
X180245693Y-112390326D01*
X180172998Y-112274632D01*
X180149816Y-112237738D01*
X180022262Y-112110184D01*
X179991586Y-112090909D01*
X179869523Y-112014211D01*
X179699254Y-111954631D01*
X179699249Y-111954630D01*
X179520004Y-111934435D01*
X179519996Y-111934435D01*
X179340750Y-111954630D01*
X179340745Y-111954631D01*
X179170476Y-112014211D01*
X179017737Y-112110184D01*
X178890184Y-112237737D01*
X178794211Y-112390476D01*
X178734631Y-112560745D01*
X178734630Y-112560750D01*
X178714435Y-112739996D01*
X178714435Y-112740003D01*
X173896768Y-112740003D01*
X173953429Y-112618492D01*
X173953433Y-112618483D01*
X174014567Y-112390326D01*
X174014569Y-112390315D01*
X174035157Y-112155001D01*
X174035157Y-112154998D01*
X174014569Y-111919684D01*
X174014567Y-111919673D01*
X173953433Y-111691516D01*
X173953429Y-111691507D01*
X173853600Y-111477423D01*
X173853599Y-111477421D01*
X173794925Y-111393626D01*
X173794925Y-111393625D01*
X173162962Y-112025589D01*
X173145925Y-111962007D01*
X173080099Y-111847993D01*
X172987007Y-111754901D01*
X172872993Y-111689075D01*
X172809410Y-111672037D01*
X173441373Y-111040073D01*
X173441373Y-111040072D01*
X173357583Y-110981402D01*
X173357579Y-110981400D01*
X173143492Y-110881570D01*
X173143483Y-110881566D01*
X172915326Y-110820432D01*
X172915315Y-110820430D01*
X172680002Y-110799843D01*
X172679998Y-110799843D01*
X172444684Y-110820430D01*
X172444673Y-110820432D01*
X172216516Y-110881566D01*
X172216507Y-110881570D01*
X172002419Y-110981401D01*
X171918625Y-111040072D01*
X172550590Y-111672037D01*
X172487007Y-111689075D01*
X172372993Y-111754901D01*
X172279901Y-111847993D01*
X172214075Y-111962007D01*
X172197037Y-112025590D01*
X171565072Y-111393625D01*
X171506401Y-111477419D01*
X171406570Y-111691507D01*
X171406566Y-111691516D01*
X171345432Y-111919673D01*
X171345430Y-111919684D01*
X171324843Y-112154998D01*
X171324843Y-112155001D01*
X170610500Y-112155001D01*
X170610500Y-102651309D01*
X170606262Y-102630000D01*
X171324341Y-102630000D01*
X171344936Y-102865403D01*
X171344938Y-102865413D01*
X171406094Y-103093655D01*
X171406096Y-103093659D01*
X171406097Y-103093663D01*
X171475133Y-103241711D01*
X171505965Y-103307830D01*
X171505967Y-103307834D01*
X171589185Y-103426680D01*
X171641505Y-103501401D01*
X171808599Y-103668495D01*
X171889155Y-103724901D01*
X172002165Y-103804032D01*
X172002167Y-103804033D01*
X172002170Y-103804035D01*
X172216337Y-103903903D01*
X172444592Y-103965063D01*
X172621034Y-103980500D01*
X172679999Y-103985659D01*
X172680000Y-103985659D01*
X172680001Y-103985659D01*
X172738966Y-103980500D01*
X172915408Y-103965063D01*
X173143663Y-103903903D01*
X173357830Y-103804035D01*
X173551401Y-103668495D01*
X173718495Y-103501401D01*
X173854035Y-103307830D01*
X173953903Y-103093663D01*
X174015063Y-102865408D01*
X174035659Y-102630000D01*
X174033841Y-102609226D01*
X174025176Y-102510184D01*
X174015063Y-102394592D01*
X173953903Y-102166337D01*
X173854035Y-101952171D01*
X173832171Y-101920945D01*
X173718494Y-101758597D01*
X173551402Y-101591506D01*
X173551395Y-101591501D01*
X173357834Y-101455967D01*
X173357830Y-101455965D01*
X173314361Y-101435695D01*
X173143663Y-101356097D01*
X173143659Y-101356096D01*
X173143655Y-101356094D01*
X172915413Y-101294938D01*
X172915403Y-101294936D01*
X172680001Y-101274341D01*
X172679999Y-101274341D01*
X172444596Y-101294936D01*
X172444586Y-101294938D01*
X172216344Y-101356094D01*
X172216335Y-101356098D01*
X172002171Y-101455964D01*
X172002169Y-101455965D01*
X171808597Y-101591505D01*
X171641505Y-101758597D01*
X171505965Y-101952169D01*
X171505964Y-101952171D01*
X171412401Y-102152816D01*
X171406271Y-102165965D01*
X171406098Y-102166335D01*
X171406094Y-102166344D01*
X171344938Y-102394586D01*
X171344936Y-102394596D01*
X171324341Y-102629999D01*
X171324341Y-102630000D01*
X170606262Y-102630000D01*
X170600437Y-102600717D01*
X170575895Y-102477334D01*
X170510339Y-102319071D01*
X170508695Y-102314474D01*
X170409465Y-102165966D01*
X170409464Y-102165965D01*
X170284035Y-102040536D01*
X167811502Y-99568003D01*
X165296819Y-97053319D01*
X165263334Y-96991996D01*
X165260500Y-96965638D01*
X165260500Y-88280244D01*
X165280185Y-88213205D01*
X165332989Y-88167450D01*
X165402147Y-88157506D01*
X165465703Y-88186531D01*
X165491888Y-88218245D01*
X165509479Y-88248714D01*
X165509481Y-88248717D01*
X165628349Y-88367585D01*
X165628355Y-88367590D01*
X166713181Y-89452416D01*
X166746666Y-89513739D01*
X166749500Y-89540097D01*
X166749500Y-97423330D01*
X166749499Y-97423348D01*
X166749499Y-97589054D01*
X166749498Y-97589054D01*
X166749499Y-97589057D01*
X166790423Y-97741785D01*
X166810055Y-97775788D01*
X166813029Y-97780938D01*
X166813030Y-97780942D01*
X166813031Y-97780942D01*
X166858674Y-97860000D01*
X166869479Y-97878714D01*
X166869481Y-97878717D01*
X166988349Y-97997585D01*
X166988354Y-97997589D01*
X169841284Y-100850520D01*
X169978215Y-100929577D01*
X170130943Y-100970501D01*
X170130946Y-100970501D01*
X170296654Y-100970501D01*
X170296670Y-100970500D01*
X176069903Y-100970500D01*
X176136942Y-100990185D01*
X176157584Y-101006819D01*
X177363181Y-102212416D01*
X177396666Y-102273739D01*
X177399500Y-102300097D01*
X177399500Y-105727060D01*
X177379815Y-105794099D01*
X177363181Y-105814741D01*
X177250184Y-105927737D01*
X177154211Y-106080476D01*
X177094631Y-106250745D01*
X177094630Y-106250750D01*
X177074435Y-106429996D01*
X177074435Y-106430003D01*
X177094630Y-106609249D01*
X177094631Y-106609254D01*
X177154211Y-106779523D01*
X177178583Y-106818310D01*
X177250184Y-106932262D01*
X177377738Y-107059816D01*
X177530478Y-107155789D01*
X177700745Y-107215368D01*
X177700750Y-107215369D01*
X177879996Y-107235565D01*
X177880000Y-107235565D01*
X177880004Y-107235565D01*
X178059249Y-107215369D01*
X178059252Y-107215368D01*
X178059255Y-107215368D01*
X178229522Y-107155789D01*
X178382262Y-107059816D01*
X178509816Y-106932262D01*
X178605789Y-106779522D01*
X178665368Y-106609255D01*
X178670803Y-106561019D01*
X178685565Y-106430003D01*
X178685565Y-106429996D01*
X178665369Y-106250750D01*
X178665368Y-106250745D01*
X178607458Y-106085248D01*
X178600500Y-106044293D01*
X178600500Y-103791940D01*
X178620185Y-103724901D01*
X178672989Y-103679146D01*
X178742147Y-103669202D01*
X178805703Y-103698227D01*
X178812181Y-103704259D01*
X178877738Y-103769816D01*
X178932196Y-103804034D01*
X178985529Y-103837546D01*
X179030478Y-103865789D01*
X179196255Y-103923797D01*
X179200745Y-103925368D01*
X179200750Y-103925369D01*
X179379996Y-103945565D01*
X179380000Y-103945565D01*
X179380004Y-103945565D01*
X179559249Y-103925369D01*
X179559252Y-103925368D01*
X179559255Y-103925368D01*
X179729522Y-103865789D01*
X179882262Y-103769816D01*
X180009816Y-103642262D01*
X180105789Y-103489522D01*
X180165368Y-103319255D01*
X180166448Y-103309669D01*
X180185565Y-103140003D01*
X180185565Y-103139996D01*
X180165369Y-102960750D01*
X180165368Y-102960745D01*
X180105788Y-102790476D01*
X180018343Y-102651309D01*
X180009816Y-102637738D01*
X179882262Y-102510184D01*
X179829980Y-102477333D01*
X179729523Y-102414211D01*
X179559254Y-102354631D01*
X179559249Y-102354630D01*
X179380004Y-102334435D01*
X179379996Y-102334435D01*
X179200750Y-102354630D01*
X179200745Y-102354631D01*
X179030476Y-102414211D01*
X178877737Y-102510184D01*
X178812181Y-102575741D01*
X178750858Y-102609226D01*
X178681166Y-102604242D01*
X178625233Y-102562370D01*
X178600816Y-102496906D01*
X178600500Y-102488060D01*
X178600500Y-101920945D01*
X178600500Y-101920943D01*
X178579940Y-101844211D01*
X178559577Y-101768215D01*
X178519904Y-101699500D01*
X178480520Y-101631284D01*
X178368716Y-101519480D01*
X178364385Y-101515149D01*
X178364374Y-101515139D01*
X176857590Y-100008355D01*
X176857588Y-100008352D01*
X176738717Y-99889481D01*
X176738709Y-99889475D01*
X176670112Y-99849871D01*
X176621896Y-99799305D01*
X176608672Y-99730698D01*
X176634640Y-99665833D01*
X176644421Y-99654812D01*
X177600917Y-98698317D01*
X177662238Y-98664834D01*
X177674702Y-98662781D01*
X177760125Y-98653156D01*
X177829250Y-98645369D01*
X177829253Y-98645368D01*
X177829255Y-98645368D01*
X177999522Y-98585789D01*
X178152262Y-98489816D01*
X178279816Y-98362262D01*
X178375789Y-98209522D01*
X178435368Y-98039255D01*
X178438517Y-98011308D01*
X178455565Y-97860003D01*
X178455565Y-97859996D01*
X178435369Y-97680750D01*
X178435368Y-97680745D01*
X178433487Y-97675369D01*
X178375789Y-97510478D01*
X178279816Y-97357738D01*
X178152262Y-97230184D01*
X178135227Y-97219480D01*
X177999523Y-97134211D01*
X177829254Y-97074631D01*
X177829249Y-97074630D01*
X177650004Y-97054435D01*
X177649996Y-97054435D01*
X177470750Y-97074630D01*
X177470745Y-97074631D01*
X177300476Y-97134211D01*
X177147737Y-97230184D01*
X177020184Y-97357737D01*
X176924210Y-97510478D01*
X176866514Y-97675366D01*
X176864632Y-97680745D01*
X176864100Y-97685464D01*
X176862456Y-97700053D01*
X176835386Y-97764466D01*
X176826917Y-97773845D01*
X175777584Y-98823181D01*
X175716261Y-98856666D01*
X175689903Y-98859500D01*
X171210098Y-98859500D01*
X171143059Y-98839815D01*
X171122417Y-98823181D01*
X170928717Y-98629481D01*
X170928716Y-98629480D01*
X170841904Y-98579360D01*
X170841904Y-98579359D01*
X170841900Y-98579358D01*
X170791785Y-98550423D01*
X170791784Y-98550422D01*
X170791783Y-98550422D01*
X170791781Y-98550421D01*
X170711687Y-98528959D01*
X170656101Y-98496866D01*
X168766819Y-96607584D01*
X168733334Y-96546261D01*
X168730500Y-96519903D01*
X168730500Y-90620005D01*
X170667557Y-90620005D01*
X170687307Y-90933942D01*
X170687308Y-90933949D01*
X170746255Y-91242958D01*
X170843463Y-91542132D01*
X170843465Y-91542137D01*
X170977400Y-91826761D01*
X170977403Y-91826767D01*
X171145957Y-92092367D01*
X171145960Y-92092371D01*
X171236786Y-92202160D01*
X172200413Y-91238533D01*
X172295329Y-91369175D01*
X172423325Y-91497171D01*
X172553965Y-91592086D01*
X171587471Y-92558579D01*
X171587472Y-92558581D01*
X171830272Y-92734985D01*
X171830290Y-92734996D01*
X172105947Y-92886540D01*
X172105955Y-92886544D01*
X172398426Y-93002340D01*
X172703120Y-93080573D01*
X172703129Y-93080575D01*
X173015201Y-93119999D01*
X173015215Y-93120000D01*
X173329785Y-93120000D01*
X173329798Y-93119999D01*
X173641870Y-93080575D01*
X173641879Y-93080573D01*
X173946573Y-93002340D01*
X174239044Y-92886544D01*
X174239052Y-92886540D01*
X174514709Y-92734996D01*
X174514719Y-92734990D01*
X174757526Y-92558579D01*
X174757527Y-92558579D01*
X173791033Y-91592086D01*
X173921675Y-91497171D01*
X174049671Y-91369175D01*
X174144586Y-91238534D01*
X175108212Y-92202160D01*
X175199044Y-92092364D01*
X175367596Y-91826767D01*
X175367599Y-91826761D01*
X175501534Y-91542137D01*
X175501536Y-91542132D01*
X175598744Y-91242958D01*
X175657691Y-90933949D01*
X175657692Y-90933942D01*
X175677443Y-90620005D01*
X175677443Y-90619994D01*
X175657692Y-90306057D01*
X175657691Y-90306050D01*
X175598744Y-89997041D01*
X175501536Y-89697867D01*
X175501534Y-89697862D01*
X175367599Y-89413238D01*
X175367596Y-89413232D01*
X175199042Y-89147632D01*
X175199039Y-89147628D01*
X175108212Y-89037838D01*
X174144585Y-90001465D01*
X174049671Y-89870825D01*
X173921675Y-89742829D01*
X173791033Y-89647913D01*
X174757527Y-88681419D01*
X174757526Y-88681417D01*
X174514727Y-88505014D01*
X174514709Y-88505003D01*
X174239052Y-88353459D01*
X174239044Y-88353455D01*
X173946573Y-88237659D01*
X173641879Y-88159426D01*
X173641870Y-88159424D01*
X173329798Y-88120000D01*
X173015201Y-88120000D01*
X172703129Y-88159424D01*
X172703120Y-88159426D01*
X172398426Y-88237659D01*
X172105955Y-88353455D01*
X172105947Y-88353459D01*
X171830287Y-88505004D01*
X171830282Y-88505007D01*
X171587472Y-88681418D01*
X171587471Y-88681419D01*
X172553966Y-89647913D01*
X172423325Y-89742829D01*
X172295329Y-89870825D01*
X172200413Y-90001465D01*
X171236786Y-89037838D01*
X171236785Y-89037838D01*
X171145959Y-89147629D01*
X171145957Y-89147632D01*
X170977403Y-89413232D01*
X170977400Y-89413238D01*
X170843465Y-89697862D01*
X170843463Y-89697867D01*
X170746255Y-89997041D01*
X170687308Y-90306050D01*
X170687307Y-90306057D01*
X170667557Y-90619994D01*
X170667557Y-90620005D01*
X168730500Y-90620005D01*
X168730500Y-89079059D01*
X168730501Y-89079046D01*
X168730501Y-88910945D01*
X168730501Y-88910943D01*
X168689577Y-88758215D01*
X168655409Y-88699035D01*
X168610520Y-88621284D01*
X168498716Y-88509480D01*
X168498715Y-88509479D01*
X168494385Y-88505149D01*
X168494374Y-88505139D01*
X167296819Y-87307584D01*
X167263334Y-87246261D01*
X167260500Y-87219903D01*
X167260500Y-86956549D01*
X167280185Y-86889510D01*
X167332989Y-86843755D01*
X167402147Y-86833811D01*
X167465703Y-86862836D01*
X167472181Y-86868868D01*
X167473358Y-86870045D01*
X167473361Y-86870047D01*
X167659766Y-87000568D01*
X167866004Y-87096739D01*
X167866009Y-87096740D01*
X167866011Y-87096741D01*
X167894054Y-87104255D01*
X168085808Y-87155635D01*
X168247730Y-87169801D01*
X168312498Y-87175468D01*
X168312500Y-87175468D01*
X168312502Y-87175468D01*
X168369173Y-87170509D01*
X168539192Y-87155635D01*
X168758996Y-87096739D01*
X168965234Y-87000568D01*
X169151639Y-86870047D01*
X169224820Y-86796865D01*
X169286141Y-86763382D01*
X169355833Y-86768366D01*
X169400179Y-86796865D01*
X169437125Y-86833811D01*
X169473362Y-86870048D01*
X169501157Y-86889510D01*
X169659766Y-87000568D01*
X169866004Y-87096739D01*
X169866009Y-87096740D01*
X169866011Y-87096741D01*
X169894054Y-87104255D01*
X170085808Y-87155635D01*
X170247730Y-87169801D01*
X170312498Y-87175468D01*
X170312500Y-87175468D01*
X170312502Y-87175468D01*
X170369173Y-87170509D01*
X170539192Y-87155635D01*
X170758996Y-87096739D01*
X170965234Y-87000568D01*
X171151639Y-86870047D01*
X171312547Y-86709139D01*
X171443068Y-86522734D01*
X171539239Y-86316496D01*
X171598135Y-86096692D01*
X171617968Y-85870000D01*
X171598135Y-85643308D01*
X171539239Y-85423504D01*
X171443068Y-85217266D01*
X171325614Y-85049523D01*
X171312545Y-85030858D01*
X171151641Y-84869954D01*
X170965234Y-84739432D01*
X170965230Y-84739430D01*
X170949522Y-84732105D01*
X170897083Y-84685931D01*
X170877933Y-84618737D01*
X170898150Y-84551857D01*
X170949528Y-84507340D01*
X170964981Y-84500134D01*
X171037971Y-84449024D01*
X170421497Y-83832550D01*
X170495843Y-83812630D01*
X170604157Y-83750095D01*
X170692595Y-83661657D01*
X170755130Y-83553343D01*
X170775050Y-83478997D01*
X171391524Y-84095471D01*
X171442636Y-84022478D01*
X171538764Y-83816331D01*
X171538769Y-83816317D01*
X171597639Y-83596610D01*
X171597641Y-83596599D01*
X171617466Y-83370002D01*
X171617466Y-83369997D01*
X171597641Y-83143400D01*
X171597639Y-83143389D01*
X171538769Y-82923682D01*
X171538764Y-82923668D01*
X171442636Y-82717521D01*
X171442632Y-82717513D01*
X171391525Y-82644526D01*
X170775050Y-83261001D01*
X170755130Y-83186657D01*
X170692595Y-83078343D01*
X170604157Y-82989905D01*
X170495843Y-82927370D01*
X170421497Y-82907449D01*
X171037972Y-82290974D01*
X170964978Y-82239863D01*
X170758831Y-82143735D01*
X170758817Y-82143730D01*
X170539110Y-82084860D01*
X170539099Y-82084858D01*
X170312502Y-82065034D01*
X170312498Y-82065034D01*
X170085900Y-82084858D01*
X170085889Y-82084860D01*
X169866182Y-82143730D01*
X169866173Y-82143734D01*
X169660012Y-82239868D01*
X169660007Y-82239871D01*
X169647236Y-82248813D01*
X169581029Y-82271138D01*
X169513263Y-82254124D01*
X169476852Y-82221546D01*
X169470046Y-82212454D01*
X169470044Y-82212453D01*
X169470044Y-82212452D01*
X169354835Y-82126206D01*
X169354828Y-82126202D01*
X169219982Y-82075908D01*
X169219983Y-82075908D01*
X169160383Y-82069501D01*
X169160381Y-82069500D01*
X169160373Y-82069500D01*
X169160364Y-82069500D01*
X167464629Y-82069500D01*
X167464623Y-82069501D01*
X167405016Y-82075908D01*
X167270171Y-82126202D01*
X167270164Y-82126206D01*
X167227664Y-82158022D01*
X167162200Y-82182439D01*
X167093927Y-82167587D01*
X167065673Y-82146436D01*
X167024397Y-82105160D01*
X167024374Y-82105139D01*
X163539240Y-78620005D01*
X170667557Y-78620005D01*
X170687307Y-78933942D01*
X170687308Y-78933949D01*
X170746255Y-79242958D01*
X170843463Y-79542132D01*
X170843465Y-79542137D01*
X170977400Y-79826761D01*
X170977403Y-79826767D01*
X171145957Y-80092367D01*
X171145960Y-80092371D01*
X171236786Y-80202160D01*
X172200413Y-79238533D01*
X172295329Y-79369175D01*
X172423325Y-79497171D01*
X172553965Y-79592086D01*
X171587471Y-80558579D01*
X171587472Y-80558581D01*
X171830272Y-80734985D01*
X171830290Y-80734996D01*
X172105947Y-80886540D01*
X172105955Y-80886544D01*
X172398426Y-81002340D01*
X172703120Y-81080573D01*
X172703129Y-81080575D01*
X173015201Y-81119999D01*
X173015215Y-81120000D01*
X173329785Y-81120000D01*
X173329798Y-81119999D01*
X173641870Y-81080575D01*
X173641879Y-81080573D01*
X173946573Y-81002340D01*
X174239044Y-80886544D01*
X174239052Y-80886540D01*
X174514709Y-80734996D01*
X174514719Y-80734990D01*
X174757526Y-80558579D01*
X174757527Y-80558579D01*
X173791033Y-79592086D01*
X173921675Y-79497171D01*
X174049671Y-79369175D01*
X174144586Y-79238534D01*
X175108212Y-80202160D01*
X175199044Y-80092364D01*
X175367596Y-79826767D01*
X175367599Y-79826761D01*
X175501534Y-79542137D01*
X175501536Y-79542132D01*
X175598744Y-79242958D01*
X175657691Y-78933949D01*
X175657692Y-78933942D01*
X175677443Y-78620005D01*
X175677443Y-78619994D01*
X175657692Y-78306057D01*
X175657691Y-78306050D01*
X175598744Y-77997041D01*
X175501536Y-77697867D01*
X175501534Y-77697862D01*
X175367599Y-77413238D01*
X175367596Y-77413232D01*
X175199042Y-77147632D01*
X175199039Y-77147628D01*
X175108212Y-77037838D01*
X174144585Y-78001465D01*
X174049671Y-77870825D01*
X173921675Y-77742829D01*
X173791033Y-77647913D01*
X174757527Y-76681419D01*
X174757526Y-76681417D01*
X174514727Y-76505014D01*
X174514709Y-76505003D01*
X174239052Y-76353459D01*
X174239044Y-76353455D01*
X173946573Y-76237659D01*
X173641879Y-76159426D01*
X173641870Y-76159424D01*
X173329798Y-76120000D01*
X173015201Y-76120000D01*
X172703129Y-76159424D01*
X172703120Y-76159426D01*
X172398426Y-76237659D01*
X172105955Y-76353455D01*
X172105947Y-76353459D01*
X171830287Y-76505004D01*
X171830282Y-76505007D01*
X171587472Y-76681418D01*
X171587471Y-76681419D01*
X172553966Y-77647913D01*
X172423325Y-77742829D01*
X172295329Y-77870825D01*
X172200413Y-78001465D01*
X171236786Y-77037838D01*
X171236785Y-77037838D01*
X171145959Y-77147629D01*
X171145957Y-77147632D01*
X170977403Y-77413232D01*
X170977400Y-77413238D01*
X170843465Y-77697862D01*
X170843463Y-77697867D01*
X170746255Y-77997041D01*
X170687308Y-78306050D01*
X170687307Y-78306057D01*
X170667557Y-78619994D01*
X170667557Y-78620005D01*
X163539240Y-78620005D01*
X160916458Y-75997223D01*
X160882973Y-75935900D01*
X160887957Y-75866208D01*
X160929829Y-75810275D01*
X160963182Y-75792501D01*
X161039522Y-75765789D01*
X161192262Y-75669816D01*
X161254819Y-75607259D01*
X161316142Y-75573774D01*
X161385834Y-75578758D01*
X161430181Y-75607259D01*
X161487738Y-75664816D01*
X161640478Y-75760789D01*
X161731103Y-75792500D01*
X161810745Y-75820368D01*
X161810750Y-75820369D01*
X161989996Y-75840565D01*
X161990000Y-75840565D01*
X161990004Y-75840565D01*
X162169249Y-75820369D01*
X162169252Y-75820368D01*
X162169255Y-75820368D01*
X162339522Y-75760789D01*
X162492262Y-75664816D01*
X162619816Y-75537262D01*
X162715789Y-75384522D01*
X162775368Y-75214255D01*
X162776120Y-75207585D01*
X162795565Y-75035003D01*
X162795565Y-75034996D01*
X162775369Y-74855750D01*
X162775368Y-74855745D01*
X162715788Y-74685475D01*
X162654051Y-74587223D01*
X162635050Y-74519986D01*
X162654051Y-74455277D01*
X162715788Y-74357024D01*
X162715789Y-74357022D01*
X162775368Y-74186755D01*
X162775369Y-74186749D01*
X162795565Y-74007503D01*
X162795565Y-74007496D01*
X162775369Y-73828250D01*
X162775368Y-73828245D01*
X162715788Y-73657975D01*
X162656395Y-73563453D01*
X162654050Y-73559722D01*
X162635050Y-73492486D01*
X162654051Y-73427777D01*
X162715788Y-73329524D01*
X162718353Y-73322194D01*
X162775368Y-73159255D01*
X162775539Y-73157738D01*
X162795565Y-72980003D01*
X162795565Y-72979996D01*
X162775369Y-72800750D01*
X162775368Y-72800745D01*
X162715788Y-72630475D01*
X162654051Y-72532223D01*
X162635050Y-72464986D01*
X162654051Y-72400277D01*
X162715788Y-72302024D01*
X162715789Y-72302022D01*
X162775368Y-72131755D01*
X162777226Y-72115266D01*
X162795565Y-71952503D01*
X162795565Y-71952496D01*
X162775369Y-71773250D01*
X162775368Y-71773245D01*
X162715788Y-71602975D01*
X162654051Y-71504723D01*
X162635050Y-71437486D01*
X162654051Y-71372777D01*
X162715788Y-71274524D01*
X162749488Y-71178216D01*
X162775368Y-71104255D01*
X162775397Y-71104000D01*
X162795565Y-70925003D01*
X162795565Y-70924996D01*
X162775369Y-70745750D01*
X162775368Y-70745745D01*
X162753107Y-70682128D01*
X162715789Y-70575478D01*
X162619816Y-70422738D01*
X162492262Y-70295184D01*
X162409123Y-70242944D01*
X162339523Y-70199211D01*
X162169254Y-70139631D01*
X162169249Y-70139630D01*
X161990004Y-70119435D01*
X161989996Y-70119435D01*
X161810750Y-70139630D01*
X161810745Y-70139631D01*
X161640476Y-70199211D01*
X161487737Y-70295184D01*
X161425181Y-70357741D01*
X161363858Y-70391226D01*
X161294166Y-70386242D01*
X161249819Y-70357741D01*
X161192262Y-70300184D01*
X161039523Y-70204211D01*
X160869254Y-70144631D01*
X160869249Y-70144630D01*
X160690004Y-70124435D01*
X160689996Y-70124435D01*
X160510750Y-70144630D01*
X160510745Y-70144631D01*
X160340476Y-70204211D01*
X160187737Y-70300184D01*
X160060184Y-70427737D01*
X159964211Y-70580476D01*
X159904631Y-70750745D01*
X159904630Y-70750750D01*
X159884435Y-70929996D01*
X159884435Y-70930003D01*
X159904630Y-71109249D01*
X159904631Y-71109254D01*
X159964211Y-71279523D01*
X160025949Y-71377778D01*
X160044949Y-71445015D01*
X160025949Y-71509722D01*
X159964211Y-71607976D01*
X159904631Y-71778245D01*
X159904630Y-71778250D01*
X159884435Y-71957496D01*
X159884435Y-71957503D01*
X159904630Y-72136749D01*
X159904631Y-72136754D01*
X159964211Y-72307023D01*
X160025949Y-72405278D01*
X160044949Y-72472515D01*
X160025949Y-72537222D01*
X159964211Y-72635476D01*
X159904631Y-72805745D01*
X159904630Y-72805750D01*
X159884435Y-72984996D01*
X159884435Y-72985003D01*
X159904630Y-73164249D01*
X159904631Y-73164254D01*
X159964211Y-73334523D01*
X160025949Y-73432778D01*
X160044949Y-73500015D01*
X160025949Y-73564722D01*
X159964211Y-73662976D01*
X159904631Y-73833245D01*
X159904630Y-73833250D01*
X159884435Y-74012496D01*
X159884435Y-74012503D01*
X159904630Y-74191749D01*
X159904631Y-74191754D01*
X159964211Y-74362023D01*
X160025949Y-74460278D01*
X160044949Y-74527515D01*
X160025949Y-74592222D01*
X159964209Y-74690480D01*
X159937498Y-74766815D01*
X159896776Y-74823591D01*
X159831823Y-74849338D01*
X159763262Y-74835881D01*
X159732776Y-74813541D01*
X159156819Y-74237584D01*
X159123334Y-74176261D01*
X159120500Y-74149903D01*
X159120500Y-71499060D01*
X159120501Y-71499047D01*
X159120501Y-71330944D01*
X159120501Y-71330943D01*
X159079577Y-71178216D01*
X159039762Y-71109254D01*
X159000524Y-71041290D01*
X159000518Y-71041282D01*
X157061416Y-69102181D01*
X157027931Y-69040858D01*
X157032915Y-68971166D01*
X157074787Y-68915233D01*
X157140251Y-68890816D01*
X157149097Y-68890500D01*
X178202397Y-68890500D01*
X178269436Y-68910185D01*
X178315191Y-68962989D01*
X178326227Y-69020991D01*
X178324648Y-69051096D01*
X179819301Y-70545748D01*
X179717670Y-70619588D01*
X179539588Y-70797670D01*
X179465748Y-70899300D01*
X177971096Y-69404648D01*
X177971095Y-69404648D01*
X177762531Y-69662206D01*
X177551310Y-69987456D01*
X177375244Y-70333005D01*
X177236262Y-70695063D01*
X177135887Y-71069669D01*
X177135886Y-71069676D01*
X177075219Y-71452712D01*
X177054922Y-71839999D01*
X177054922Y-71840000D01*
X177075219Y-72227287D01*
X177135886Y-72610323D01*
X177135887Y-72610330D01*
X177236262Y-72984936D01*
X177375244Y-73346994D01*
X177551310Y-73692543D01*
X177762531Y-74017793D01*
X177971095Y-74275350D01*
X177971096Y-74275350D01*
X179465748Y-72780698D01*
X179539588Y-72882330D01*
X179717670Y-73060412D01*
X179819300Y-73134251D01*
X178324648Y-74628903D01*
X178324649Y-74628904D01*
X178582206Y-74837468D01*
X178907456Y-75048689D01*
X179253005Y-75224755D01*
X179615063Y-75363737D01*
X179989669Y-75464112D01*
X179989676Y-75464113D01*
X180372712Y-75524780D01*
X180759999Y-75545078D01*
X180760001Y-75545078D01*
X181147287Y-75524780D01*
X181530323Y-75464113D01*
X181530330Y-75464112D01*
X181904936Y-75363737D01*
X182266994Y-75224755D01*
X182612543Y-75048689D01*
X182937783Y-74837476D01*
X182937785Y-74837475D01*
X183195349Y-74628902D01*
X181700698Y-73134251D01*
X181802330Y-73060412D01*
X181980412Y-72882330D01*
X182054251Y-72780698D01*
X183548902Y-74275349D01*
X183579011Y-74273772D01*
X183646988Y-74289921D01*
X183695444Y-74340258D01*
X183709500Y-74397602D01*
X183709500Y-122385710D01*
X183689815Y-122452749D01*
X183637011Y-122498504D01*
X183579012Y-122509540D01*
X183541847Y-122507592D01*
X182047195Y-124002244D01*
X181973356Y-123900614D01*
X181795274Y-123722532D01*
X181693642Y-123648692D01*
X183188294Y-122154040D01*
X183188294Y-122154039D01*
X182930737Y-121945475D01*
X182605487Y-121734254D01*
X182259938Y-121558188D01*
X181897880Y-121419206D01*
X181523274Y-121318831D01*
X181523267Y-121318830D01*
X181140231Y-121258163D01*
X180752945Y-121237866D01*
X180752943Y-121237866D01*
X180365656Y-121258163D01*
X179982620Y-121318830D01*
X179982613Y-121318831D01*
X179608007Y-121419206D01*
X179245949Y-121558188D01*
X178900400Y-121734254D01*
X178575150Y-121945475D01*
X178317592Y-122154039D01*
X178317592Y-122154040D01*
X179812245Y-123648692D01*
X179710614Y-123722532D01*
X179532532Y-123900614D01*
X179458692Y-124002244D01*
X177964040Y-122507592D01*
X177964039Y-122507592D01*
X177755475Y-122765150D01*
X177544254Y-123090400D01*
X177368188Y-123435949D01*
X177229206Y-123798007D01*
X177128831Y-124172613D01*
X177128830Y-124172620D01*
X177068163Y-124555656D01*
X177047866Y-124942943D01*
X177047866Y-124942944D01*
X177068163Y-125330231D01*
X177128830Y-125713267D01*
X177128831Y-125713274D01*
X177229206Y-126087880D01*
X177368188Y-126449938D01*
X177544254Y-126795487D01*
X177755475Y-127120737D01*
X177964039Y-127378294D01*
X177964040Y-127378294D01*
X179458692Y-125883642D01*
X179532532Y-125985274D01*
X179710614Y-126163356D01*
X179812244Y-126237195D01*
X178317592Y-127731847D01*
X178319016Y-127759012D01*
X178302866Y-127826989D01*
X178252529Y-127875445D01*
X178195186Y-127889500D01*
X120230177Y-127889500D01*
X120163138Y-127869815D01*
X120117383Y-127817011D01*
X120106347Y-127759012D01*
X120108294Y-127721847D01*
X118613642Y-126227195D01*
X118715274Y-126153356D01*
X118893356Y-125975274D01*
X118967195Y-125873642D01*
X120461846Y-127368293D01*
X120670419Y-127110729D01*
X120670420Y-127110727D01*
X120881633Y-126785487D01*
X121057699Y-126439938D01*
X121196681Y-126077880D01*
X121297056Y-125703274D01*
X121297057Y-125703267D01*
X121357724Y-125320231D01*
X121378022Y-124932944D01*
X121378022Y-124932943D01*
X121357724Y-124545656D01*
X121297057Y-124162620D01*
X121297056Y-124162613D01*
X121196681Y-123788007D01*
X121057699Y-123425949D01*
X120881633Y-123080400D01*
X120670412Y-122755150D01*
X120461848Y-122497593D01*
X120461847Y-122497592D01*
X118967195Y-123992244D01*
X118893356Y-123890614D01*
X118715274Y-123712532D01*
X118613642Y-123638692D01*
X120108294Y-122144040D01*
X120108294Y-122144039D01*
X119850737Y-121935475D01*
X119525487Y-121724254D01*
X119179938Y-121548188D01*
X118817880Y-121409206D01*
X118443274Y-121308831D01*
X118443267Y-121308830D01*
X118060231Y-121248163D01*
X117672945Y-121227866D01*
X117672943Y-121227866D01*
X117285656Y-121248163D01*
X116902620Y-121308830D01*
X116902613Y-121308831D01*
X116528007Y-121409206D01*
X116165949Y-121548188D01*
X115820400Y-121724254D01*
X115495150Y-121935475D01*
X115237592Y-122144039D01*
X115237592Y-122144040D01*
X116732245Y-123638692D01*
X116630614Y-123712532D01*
X116452532Y-123890614D01*
X116378692Y-123992244D01*
X114884040Y-122497592D01*
X114861172Y-122498790D01*
X114853375Y-122504177D01*
X114783544Y-122506502D01*
X114723541Y-122470704D01*
X114692417Y-122408150D01*
X114690500Y-122386428D01*
X114690500Y-120010907D01*
X114710185Y-119943868D01*
X114762989Y-119898113D01*
X114832147Y-119888169D01*
X114895703Y-119917194D01*
X114923974Y-119956410D01*
X114925423Y-119955672D01*
X114927636Y-119960015D01*
X115061277Y-120178098D01*
X115061284Y-120178107D01*
X115064533Y-120181912D01*
X115625884Y-119620560D01*
X115626740Y-119622626D01*
X115719762Y-119761844D01*
X115838156Y-119880238D01*
X115977374Y-119973260D01*
X115979437Y-119974114D01*
X115418087Y-120535465D01*
X115421897Y-120538719D01*
X115639984Y-120672363D01*
X115639987Y-120672365D01*
X115876297Y-120770247D01*
X116125011Y-120829957D01*
X116125010Y-120829957D01*
X116380000Y-120850024D01*
X116634989Y-120829957D01*
X116883702Y-120770247D01*
X117120012Y-120672365D01*
X117120015Y-120672363D01*
X117338095Y-120538724D01*
X117338110Y-120538713D01*
X117341911Y-120535466D01*
X117341911Y-120535464D01*
X116780562Y-119974114D01*
X116782626Y-119973260D01*
X116921844Y-119880238D01*
X117040238Y-119761844D01*
X117133260Y-119622626D01*
X117134114Y-119620561D01*
X117695464Y-120181911D01*
X117695466Y-120181911D01*
X117698713Y-120178110D01*
X117698724Y-120178095D01*
X117832363Y-119960015D01*
X117832365Y-119960012D01*
X117930247Y-119723702D01*
X117989957Y-119474989D01*
X118010024Y-119220000D01*
X119829975Y-119220000D01*
X119850042Y-119474989D01*
X119909752Y-119723702D01*
X120007634Y-119960012D01*
X120007636Y-119960015D01*
X120141277Y-120178098D01*
X120141284Y-120178107D01*
X120144533Y-120181912D01*
X120705884Y-119620560D01*
X120706740Y-119622626D01*
X120799762Y-119761844D01*
X120918156Y-119880238D01*
X121057374Y-119973260D01*
X121059437Y-119974114D01*
X120498087Y-120535465D01*
X120501897Y-120538719D01*
X120719984Y-120672363D01*
X120719987Y-120672365D01*
X120956297Y-120770247D01*
X121205011Y-120829957D01*
X121205010Y-120829957D01*
X121460000Y-120850024D01*
X121714989Y-120829957D01*
X121963702Y-120770247D01*
X122200012Y-120672365D01*
X122200015Y-120672363D01*
X122418095Y-120538724D01*
X122418110Y-120538713D01*
X122421911Y-120535466D01*
X122421911Y-120535464D01*
X121860562Y-119974114D01*
X121862626Y-119973260D01*
X122001844Y-119880238D01*
X122120238Y-119761844D01*
X122213260Y-119622626D01*
X122214114Y-119620561D01*
X122775464Y-120181911D01*
X122775466Y-120181911D01*
X122778713Y-120178110D01*
X122778724Y-120178095D01*
X122912363Y-119960015D01*
X122912365Y-119960012D01*
X123010247Y-119723702D01*
X123069957Y-119474989D01*
X123090024Y-119220000D01*
X123069957Y-118965010D01*
X123010247Y-118716297D01*
X122912365Y-118479987D01*
X122912363Y-118479984D01*
X122778719Y-118261897D01*
X122775465Y-118258087D01*
X122214114Y-118819437D01*
X122213260Y-118817374D01*
X122120238Y-118678156D01*
X122001844Y-118559762D01*
X121862626Y-118466740D01*
X121860561Y-118465884D01*
X122421912Y-117904533D01*
X122418107Y-117901284D01*
X122418098Y-117901277D01*
X122200015Y-117767636D01*
X122200012Y-117767634D01*
X121963702Y-117669752D01*
X121714988Y-117610042D01*
X121714989Y-117610042D01*
X121460000Y-117589975D01*
X121205010Y-117610042D01*
X120956297Y-117669752D01*
X120719987Y-117767634D01*
X120719984Y-117767636D01*
X120501893Y-117901282D01*
X120498086Y-117904532D01*
X121059438Y-118465884D01*
X121057374Y-118466740D01*
X120918156Y-118559762D01*
X120799762Y-118678156D01*
X120706740Y-118817374D01*
X120705884Y-118819438D01*
X120144532Y-118258086D01*
X120141282Y-118261893D01*
X120007636Y-118479984D01*
X120007634Y-118479987D01*
X119909752Y-118716297D01*
X119850042Y-118965010D01*
X119829975Y-119220000D01*
X118010024Y-119220000D01*
X117989957Y-118965010D01*
X117930247Y-118716297D01*
X117832365Y-118479987D01*
X117832363Y-118479984D01*
X117698719Y-118261897D01*
X117695465Y-118258087D01*
X117134114Y-118819437D01*
X117133260Y-118817374D01*
X117040238Y-118678156D01*
X116921844Y-118559762D01*
X116782626Y-118466740D01*
X116780561Y-118465884D01*
X117341912Y-117904533D01*
X117338107Y-117901284D01*
X117338098Y-117901277D01*
X117120015Y-117767636D01*
X117120012Y-117767634D01*
X116883702Y-117669752D01*
X116634988Y-117610042D01*
X116634989Y-117610042D01*
X116380000Y-117589975D01*
X116125010Y-117610042D01*
X115876297Y-117669752D01*
X115639987Y-117767634D01*
X115639984Y-117767636D01*
X115421893Y-117901282D01*
X115418086Y-117904532D01*
X115979438Y-118465884D01*
X115977374Y-118466740D01*
X115838156Y-118559762D01*
X115719762Y-118678156D01*
X115626740Y-118817374D01*
X115625884Y-118819438D01*
X115064532Y-118258086D01*
X115061282Y-118261893D01*
X114927636Y-118479984D01*
X114925423Y-118484328D01*
X114923557Y-118483377D01*
X114885211Y-118530954D01*
X114818915Y-118553013D01*
X114751217Y-118535728D01*
X114703611Y-118484587D01*
X114690500Y-118429092D01*
X114690500Y-116680000D01*
X117389783Y-116680000D01*
X117408623Y-116919382D01*
X117464674Y-117152853D01*
X117464678Y-117152865D01*
X117556565Y-117374702D01*
X117661230Y-117545500D01*
X117682028Y-117579439D01*
X117837973Y-117762027D01*
X118020561Y-117917972D01*
X118060876Y-117942677D01*
X118225297Y-118043434D01*
X118322047Y-118083508D01*
X118447137Y-118135323D01*
X118680621Y-118191377D01*
X118920000Y-118210217D01*
X119159379Y-118191377D01*
X119392863Y-118135323D01*
X119614704Y-118043433D01*
X119819439Y-117917972D01*
X120002027Y-117762027D01*
X120157972Y-117579439D01*
X120283433Y-117374704D01*
X120375323Y-117152863D01*
X120431377Y-116919379D01*
X120450217Y-116680000D01*
X120431377Y-116440621D01*
X120375323Y-116207137D01*
X120323508Y-116082047D01*
X120283434Y-115985297D01*
X120157973Y-115780563D01*
X120157972Y-115780561D01*
X120002027Y-115597973D01*
X119819439Y-115442028D01*
X119819436Y-115442026D01*
X119614702Y-115316565D01*
X119392865Y-115224678D01*
X119392867Y-115224678D01*
X119392863Y-115224677D01*
X119392859Y-115224676D01*
X119392853Y-115224674D01*
X119159382Y-115168623D01*
X118920000Y-115149783D01*
X118680617Y-115168623D01*
X118447146Y-115224674D01*
X118447134Y-115224678D01*
X118225297Y-115316565D01*
X118020563Y-115442026D01*
X117837973Y-115597973D01*
X117682026Y-115780563D01*
X117556565Y-115985297D01*
X117464678Y-116207134D01*
X117464674Y-116207146D01*
X117408623Y-116440617D01*
X117389783Y-116680000D01*
X114690500Y-116680000D01*
X114690500Y-114930907D01*
X114710185Y-114863868D01*
X114762989Y-114818113D01*
X114832147Y-114808169D01*
X114895703Y-114837194D01*
X114923974Y-114876410D01*
X114925423Y-114875672D01*
X114927636Y-114880015D01*
X115061277Y-115098098D01*
X115061284Y-115098107D01*
X115064533Y-115101912D01*
X115625884Y-114540560D01*
X115626740Y-114542626D01*
X115719762Y-114681844D01*
X115838156Y-114800238D01*
X115977374Y-114893260D01*
X115979437Y-114894114D01*
X115418087Y-115455465D01*
X115421897Y-115458719D01*
X115639984Y-115592363D01*
X115639987Y-115592365D01*
X115876297Y-115690247D01*
X116125011Y-115749957D01*
X116125010Y-115749957D01*
X116380000Y-115770024D01*
X116634989Y-115749957D01*
X116883702Y-115690247D01*
X117120012Y-115592365D01*
X117120015Y-115592363D01*
X117338095Y-115458724D01*
X117338110Y-115458713D01*
X117341911Y-115455466D01*
X117341911Y-115455464D01*
X116780562Y-114894114D01*
X116782626Y-114893260D01*
X116921844Y-114800238D01*
X117040238Y-114681844D01*
X117133260Y-114542626D01*
X117134114Y-114540561D01*
X117695464Y-115101911D01*
X117695466Y-115101911D01*
X117698713Y-115098110D01*
X117698724Y-115098095D01*
X117832363Y-114880015D01*
X117832365Y-114880012D01*
X117930247Y-114643702D01*
X117989957Y-114394989D01*
X118010024Y-114140000D01*
X119829975Y-114140000D01*
X119850042Y-114394989D01*
X119909752Y-114643702D01*
X120007634Y-114880012D01*
X120007636Y-114880015D01*
X120141277Y-115098098D01*
X120141284Y-115098107D01*
X120144533Y-115101912D01*
X120705884Y-114540560D01*
X120706740Y-114542626D01*
X120799762Y-114681844D01*
X120918156Y-114800238D01*
X121057374Y-114893260D01*
X121059437Y-114894114D01*
X120498087Y-115455465D01*
X120501897Y-115458719D01*
X120719984Y-115592363D01*
X120719987Y-115592365D01*
X120956297Y-115690247D01*
X121205011Y-115749957D01*
X121205010Y-115749957D01*
X121460000Y-115770024D01*
X121714989Y-115749957D01*
X121963702Y-115690247D01*
X122200012Y-115592365D01*
X122200015Y-115592363D01*
X122418095Y-115458724D01*
X122418110Y-115458713D01*
X122421911Y-115455466D01*
X122421911Y-115455464D01*
X121860562Y-114894114D01*
X121862626Y-114893260D01*
X122001844Y-114800238D01*
X122120238Y-114681844D01*
X122213260Y-114542626D01*
X122214114Y-114540561D01*
X122775464Y-115101911D01*
X122775466Y-115101911D01*
X122778713Y-115098110D01*
X122778724Y-115098095D01*
X122912363Y-114880015D01*
X122912365Y-114880012D01*
X123010247Y-114643702D01*
X123069957Y-114394989D01*
X123074846Y-114332870D01*
X128179500Y-114332870D01*
X128179501Y-114332876D01*
X128185908Y-114392483D01*
X128236202Y-114527328D01*
X128236206Y-114527335D01*
X128322452Y-114642544D01*
X128322455Y-114642547D01*
X128437664Y-114728793D01*
X128437671Y-114728797D01*
X128437674Y-114728798D01*
X128569598Y-114778002D01*
X128625531Y-114819873D01*
X128649949Y-114885337D01*
X128635098Y-114953610D01*
X128613947Y-114981865D01*
X128491886Y-115103926D01*
X128356400Y-115297420D01*
X128356399Y-115297422D01*
X128256570Y-115511507D01*
X128256567Y-115511513D01*
X128199364Y-115724999D01*
X128199364Y-115725000D01*
X129096988Y-115725000D01*
X129064075Y-115782007D01*
X129030000Y-115909174D01*
X129030000Y-116040826D01*
X129064075Y-116167993D01*
X129096988Y-116225000D01*
X128199364Y-116225000D01*
X128256567Y-116438486D01*
X128256570Y-116438492D01*
X128356399Y-116652578D01*
X128491894Y-116846082D01*
X128658917Y-117013105D01*
X128852421Y-117148600D01*
X129066507Y-117248429D01*
X129066516Y-117248433D01*
X129280000Y-117305634D01*
X129280000Y-116408012D01*
X129337007Y-116440925D01*
X129464174Y-116475000D01*
X129595826Y-116475000D01*
X129722993Y-116440925D01*
X129780000Y-116408012D01*
X129780000Y-117305633D01*
X129993483Y-117248433D01*
X129993492Y-117248429D01*
X130207578Y-117148600D01*
X130401082Y-117013105D01*
X130568105Y-116846082D01*
X130703600Y-116652578D01*
X130803429Y-116438492D01*
X130803432Y-116438486D01*
X130860636Y-116225000D01*
X129963012Y-116225000D01*
X129995925Y-116167993D01*
X130030000Y-116040826D01*
X130030000Y-115909174D01*
X129995925Y-115782007D01*
X129963012Y-115725000D01*
X130860636Y-115725000D01*
X130860635Y-115724999D01*
X130803432Y-115511513D01*
X130803429Y-115511507D01*
X130703600Y-115297422D01*
X130703599Y-115297420D01*
X130568113Y-115103926D01*
X130568108Y-115103920D01*
X130446053Y-114981865D01*
X130412568Y-114920542D01*
X130417552Y-114850850D01*
X130459424Y-114794917D01*
X130490400Y-114778002D01*
X130622331Y-114728796D01*
X130737546Y-114642546D01*
X130823796Y-114527331D01*
X130874091Y-114392483D01*
X130880500Y-114332873D01*
X130880499Y-112537128D01*
X130874091Y-112477517D01*
X130872387Y-112472949D01*
X130823797Y-112342671D01*
X130823793Y-112342664D01*
X130754427Y-112250003D01*
X133779435Y-112250003D01*
X133799630Y-112429249D01*
X133799631Y-112429254D01*
X133859211Y-112599523D01*
X133924016Y-112702658D01*
X133955184Y-112752262D01*
X134082738Y-112879816D01*
X134235478Y-112975789D01*
X134344776Y-113014034D01*
X134405745Y-113035368D01*
X134405750Y-113035369D01*
X134584996Y-113055565D01*
X134585000Y-113055565D01*
X134585004Y-113055565D01*
X134764249Y-113035369D01*
X134764252Y-113035368D01*
X134764255Y-113035368D01*
X134934522Y-112975789D01*
X135087262Y-112879816D01*
X135214816Y-112752262D01*
X135310789Y-112599522D01*
X135370368Y-112429255D01*
X135370732Y-112426025D01*
X135390565Y-112250003D01*
X135390565Y-112249996D01*
X135370369Y-112070750D01*
X135370368Y-112070745D01*
X135329738Y-111954631D01*
X135310789Y-111900478D01*
X135214816Y-111747738D01*
X135087262Y-111620184D01*
X135082123Y-111616955D01*
X134934523Y-111524211D01*
X134764254Y-111464631D01*
X134764249Y-111464630D01*
X134585004Y-111444435D01*
X134584996Y-111444435D01*
X134405750Y-111464630D01*
X134405745Y-111464631D01*
X134235476Y-111524211D01*
X134082737Y-111620184D01*
X133955184Y-111747737D01*
X133859211Y-111900476D01*
X133799631Y-112070745D01*
X133799630Y-112070750D01*
X133779435Y-112249996D01*
X133779435Y-112250003D01*
X130754427Y-112250003D01*
X130737547Y-112227455D01*
X130737544Y-112227452D01*
X130622335Y-112141206D01*
X130622328Y-112141202D01*
X130487482Y-112090908D01*
X130487483Y-112090908D01*
X130427883Y-112084501D01*
X130427881Y-112084500D01*
X130427873Y-112084500D01*
X130427864Y-112084500D01*
X128632129Y-112084500D01*
X128632123Y-112084501D01*
X128572516Y-112090908D01*
X128437671Y-112141202D01*
X128437664Y-112141206D01*
X128322455Y-112227452D01*
X128322452Y-112227455D01*
X128236206Y-112342664D01*
X128236202Y-112342671D01*
X128185908Y-112477517D01*
X128179501Y-112537116D01*
X128179501Y-112537123D01*
X128179500Y-112537135D01*
X128179500Y-114332870D01*
X123074846Y-114332870D01*
X123090024Y-114140000D01*
X123069957Y-113885010D01*
X123010247Y-113636297D01*
X122912365Y-113399987D01*
X122912363Y-113399984D01*
X122778719Y-113181897D01*
X122775465Y-113178087D01*
X122214114Y-113739437D01*
X122213260Y-113737374D01*
X122120238Y-113598156D01*
X122001844Y-113479762D01*
X121862626Y-113386740D01*
X121860561Y-113385884D01*
X122421912Y-112824533D01*
X122418107Y-112821284D01*
X122418098Y-112821277D01*
X122200015Y-112687636D01*
X122200012Y-112687634D01*
X121963702Y-112589752D01*
X121714988Y-112530042D01*
X121714989Y-112530042D01*
X121460000Y-112509975D01*
X121205010Y-112530042D01*
X120956297Y-112589752D01*
X120719987Y-112687634D01*
X120719984Y-112687636D01*
X120501893Y-112821282D01*
X120498086Y-112824532D01*
X121059438Y-113385884D01*
X121057374Y-113386740D01*
X120918156Y-113479762D01*
X120799762Y-113598156D01*
X120706740Y-113737374D01*
X120705884Y-113739438D01*
X120144532Y-113178086D01*
X120141282Y-113181893D01*
X120007636Y-113399984D01*
X120007634Y-113399987D01*
X119909752Y-113636297D01*
X119850042Y-113885010D01*
X119829975Y-114140000D01*
X118010024Y-114140000D01*
X117989957Y-113885010D01*
X117930247Y-113636297D01*
X117832365Y-113399987D01*
X117832363Y-113399984D01*
X117698719Y-113181897D01*
X117695465Y-113178087D01*
X117134114Y-113739437D01*
X117133260Y-113737374D01*
X117040238Y-113598156D01*
X116921844Y-113479762D01*
X116782626Y-113386740D01*
X116780561Y-113385884D01*
X117341912Y-112824533D01*
X117338107Y-112821284D01*
X117338098Y-112821277D01*
X117120015Y-112687636D01*
X117120012Y-112687634D01*
X116883702Y-112589752D01*
X116634988Y-112530042D01*
X116634989Y-112530042D01*
X116380000Y-112509975D01*
X116125010Y-112530042D01*
X115876297Y-112589752D01*
X115639987Y-112687634D01*
X115639984Y-112687636D01*
X115421893Y-112821282D01*
X115418086Y-112824532D01*
X115979438Y-113385884D01*
X115977374Y-113386740D01*
X115838156Y-113479762D01*
X115719762Y-113598156D01*
X115626740Y-113737374D01*
X115625884Y-113739438D01*
X115064532Y-113178086D01*
X115061282Y-113181893D01*
X114927636Y-113399984D01*
X114925423Y-113404328D01*
X114923557Y-113403377D01*
X114885211Y-113450954D01*
X114818915Y-113473013D01*
X114751217Y-113455728D01*
X114703611Y-113404587D01*
X114690500Y-113349092D01*
X114690500Y-109000003D01*
X117154435Y-109000003D01*
X117174630Y-109179249D01*
X117174631Y-109179254D01*
X117234211Y-109349523D01*
X117330184Y-109502262D01*
X117457738Y-109629816D01*
X117610478Y-109725789D01*
X117780745Y-109785368D01*
X117780750Y-109785369D01*
X117959996Y-109805565D01*
X117960000Y-109805565D01*
X117960004Y-109805565D01*
X118139249Y-109785369D01*
X118139252Y-109785368D01*
X118139255Y-109785368D01*
X118309522Y-109725789D01*
X118462262Y-109629816D01*
X118462267Y-109629810D01*
X118465097Y-109627555D01*
X118467275Y-109626665D01*
X118468158Y-109626111D01*
X118468255Y-109626265D01*
X118529783Y-109601145D01*
X118542412Y-109600500D01*
X119103331Y-109600500D01*
X119103347Y-109600501D01*
X119110943Y-109600501D01*
X119269054Y-109600501D01*
X119269057Y-109600501D01*
X119421785Y-109559577D01*
X119490334Y-109520000D01*
X119558716Y-109480520D01*
X119670520Y-109368716D01*
X119670520Y-109368714D01*
X119680724Y-109358511D01*
X119680728Y-109358506D01*
X120258535Y-108780698D01*
X120319856Y-108747215D01*
X120332311Y-108745163D01*
X120419255Y-108735368D01*
X120589522Y-108675789D01*
X120742262Y-108579816D01*
X120869816Y-108452262D01*
X120965789Y-108299522D01*
X121025368Y-108129255D01*
X121045565Y-107950000D01*
X121042419Y-107922082D01*
X121025369Y-107770750D01*
X121025368Y-107770745D01*
X120965788Y-107600476D01*
X120869815Y-107447737D01*
X120742262Y-107320184D01*
X120589523Y-107224211D01*
X120419254Y-107164631D01*
X120419249Y-107164630D01*
X120240004Y-107144435D01*
X120239996Y-107144435D01*
X120060750Y-107164630D01*
X120060745Y-107164631D01*
X119890476Y-107224211D01*
X119737737Y-107320184D01*
X119610184Y-107447737D01*
X119514210Y-107600478D01*
X119454630Y-107770750D01*
X119444837Y-107857668D01*
X119417770Y-107922082D01*
X119409298Y-107931465D01*
X118977584Y-108363181D01*
X118916261Y-108396666D01*
X118889903Y-108399500D01*
X118542412Y-108399500D01*
X118475373Y-108379815D01*
X118465097Y-108372445D01*
X118462263Y-108370185D01*
X118462262Y-108370184D01*
X118349806Y-108299523D01*
X118309523Y-108274211D01*
X118139254Y-108214631D01*
X118139249Y-108214630D01*
X117960004Y-108194435D01*
X117959996Y-108194435D01*
X117780750Y-108214630D01*
X117780745Y-108214631D01*
X117610476Y-108274211D01*
X117457737Y-108370184D01*
X117330184Y-108497737D01*
X117234211Y-108650476D01*
X117174631Y-108820745D01*
X117174630Y-108820750D01*
X117154435Y-108999996D01*
X117154435Y-109000003D01*
X114690500Y-109000003D01*
X114690500Y-103672503D01*
X133896935Y-103672503D01*
X133917130Y-103851749D01*
X133917131Y-103851754D01*
X133976711Y-104022023D01*
X134072684Y-104174762D01*
X134200238Y-104302316D01*
X134352978Y-104398289D01*
X134523245Y-104457868D01*
X134523250Y-104457869D01*
X134702496Y-104478065D01*
X134702500Y-104478065D01*
X134702504Y-104478065D01*
X134881749Y-104457869D01*
X134881752Y-104457868D01*
X134881755Y-104457868D01*
X135052022Y-104398289D01*
X135204762Y-104302316D01*
X135332316Y-104174762D01*
X135428289Y-104022022D01*
X135487868Y-103851755D01*
X135489469Y-103837546D01*
X135508065Y-103672503D01*
X135508065Y-103672496D01*
X135487869Y-103493250D01*
X135487868Y-103493245D01*
X135428289Y-103322978D01*
X135419473Y-103308948D01*
X135400472Y-103241711D01*
X135420839Y-103174876D01*
X135436785Y-103155293D01*
X135454075Y-103138003D01*
X135519816Y-103072262D01*
X135615789Y-102919522D01*
X135675368Y-102749255D01*
X135686404Y-102651308D01*
X135695565Y-102570003D01*
X135695565Y-102569996D01*
X135675369Y-102390750D01*
X135675368Y-102390745D01*
X135672595Y-102382819D01*
X135615789Y-102220478D01*
X135610723Y-102212416D01*
X135519815Y-102067737D01*
X135392262Y-101940184D01*
X135239523Y-101844211D01*
X135069254Y-101784631D01*
X135069249Y-101784630D01*
X134890004Y-101764435D01*
X134889996Y-101764435D01*
X134710750Y-101784630D01*
X134710745Y-101784631D01*
X134540476Y-101844211D01*
X134387737Y-101940184D01*
X134260184Y-102067737D01*
X134164211Y-102220476D01*
X134104631Y-102390745D01*
X134104630Y-102390750D01*
X134084435Y-102569996D01*
X134084435Y-102570003D01*
X134104630Y-102749249D01*
X134104631Y-102749254D01*
X134164211Y-102919523D01*
X134173027Y-102933553D01*
X134192027Y-103000790D01*
X134171659Y-103067625D01*
X134155715Y-103087205D01*
X134072685Y-103170236D01*
X134072684Y-103170237D01*
X133976711Y-103322976D01*
X133917131Y-103493245D01*
X133917130Y-103493250D01*
X133896935Y-103672496D01*
X133896935Y-103672503D01*
X114690500Y-103672503D01*
X114690500Y-97342218D01*
X114710185Y-97275179D01*
X114762989Y-97229424D01*
X114832147Y-97219480D01*
X114895703Y-97248505D01*
X114920228Y-97277429D01*
X114951280Y-97328102D01*
X114951284Y-97328107D01*
X114954533Y-97331912D01*
X115515884Y-96770560D01*
X115516740Y-96772626D01*
X115609762Y-96911844D01*
X115728156Y-97030238D01*
X115867374Y-97123260D01*
X115869437Y-97124114D01*
X115308087Y-97685465D01*
X115311897Y-97688719D01*
X115529984Y-97822363D01*
X115529987Y-97822365D01*
X115766297Y-97920247D01*
X116015011Y-97979957D01*
X116015010Y-97979957D01*
X116270000Y-98000024D01*
X116524989Y-97979957D01*
X116773702Y-97920247D01*
X117010012Y-97822365D01*
X117010015Y-97822363D01*
X117228095Y-97688724D01*
X117228110Y-97688713D01*
X117231911Y-97685466D01*
X117231911Y-97685464D01*
X116670562Y-97124114D01*
X116672626Y-97123260D01*
X116811844Y-97030238D01*
X116930238Y-96911844D01*
X117023260Y-96772626D01*
X117024114Y-96770561D01*
X117585464Y-97331911D01*
X117585466Y-97331911D01*
X117588713Y-97328110D01*
X117588724Y-97328095D01*
X117722363Y-97110015D01*
X117722365Y-97110012D01*
X117820247Y-96873702D01*
X117879957Y-96624989D01*
X117900024Y-96370000D01*
X119719975Y-96370000D01*
X119740042Y-96624989D01*
X119799752Y-96873702D01*
X119897634Y-97110012D01*
X119897636Y-97110015D01*
X120031277Y-97328098D01*
X120031284Y-97328107D01*
X120034533Y-97331912D01*
X120595884Y-96770560D01*
X120596740Y-96772626D01*
X120689762Y-96911844D01*
X120808156Y-97030238D01*
X120947374Y-97123260D01*
X120949437Y-97124114D01*
X120388087Y-97685465D01*
X120391897Y-97688719D01*
X120609984Y-97822363D01*
X120609987Y-97822365D01*
X120846297Y-97920247D01*
X121095011Y-97979957D01*
X121095010Y-97979957D01*
X121350000Y-98000024D01*
X121604989Y-97979957D01*
X121853702Y-97920247D01*
X122090012Y-97822365D01*
X122090015Y-97822363D01*
X122308095Y-97688724D01*
X122308110Y-97688713D01*
X122311911Y-97685466D01*
X122311911Y-97685464D01*
X121750562Y-97124114D01*
X121752626Y-97123260D01*
X121891844Y-97030238D01*
X122010238Y-96911844D01*
X122103260Y-96772626D01*
X122104114Y-96770561D01*
X122665464Y-97331911D01*
X122665466Y-97331911D01*
X122668713Y-97328110D01*
X122668724Y-97328095D01*
X122802363Y-97110015D01*
X122802365Y-97110012D01*
X122827221Y-97050003D01*
X129574435Y-97050003D01*
X129594630Y-97229249D01*
X129594631Y-97229254D01*
X129654211Y-97399523D01*
X129673954Y-97430943D01*
X129750184Y-97552262D01*
X129877738Y-97679816D01*
X129949151Y-97724688D01*
X130012457Y-97764466D01*
X130030478Y-97775789D01*
X130146949Y-97816544D01*
X130200745Y-97835368D01*
X130200750Y-97835369D01*
X130379996Y-97855565D01*
X130380000Y-97855565D01*
X130380004Y-97855565D01*
X130559249Y-97835369D01*
X130559252Y-97835368D01*
X130559255Y-97835368D01*
X130729522Y-97775789D01*
X130882262Y-97679816D01*
X131009816Y-97552262D01*
X131105789Y-97399522D01*
X131165368Y-97229255D01*
X131166411Y-97220000D01*
X131185565Y-97050003D01*
X131185565Y-97049996D01*
X131165369Y-96870750D01*
X131165368Y-96870745D01*
X131164168Y-96867317D01*
X131105789Y-96700478D01*
X131009816Y-96547738D01*
X130882262Y-96420184D01*
X130802395Y-96370000D01*
X130729523Y-96324211D01*
X130559254Y-96264631D01*
X130559249Y-96264630D01*
X130380004Y-96244435D01*
X130379996Y-96244435D01*
X130200750Y-96264630D01*
X130200745Y-96264631D01*
X130030476Y-96324211D01*
X129877737Y-96420184D01*
X129750184Y-96547737D01*
X129654211Y-96700476D01*
X129594631Y-96870745D01*
X129594630Y-96870750D01*
X129574435Y-97049996D01*
X129574435Y-97050003D01*
X122827221Y-97050003D01*
X122900247Y-96873702D01*
X122959957Y-96624989D01*
X122980024Y-96370000D01*
X122959957Y-96115010D01*
X122900247Y-95866297D01*
X122802365Y-95629987D01*
X122802363Y-95629984D01*
X122668719Y-95411897D01*
X122665465Y-95408087D01*
X122104114Y-95969437D01*
X122103260Y-95967374D01*
X122010238Y-95828156D01*
X121891844Y-95709762D01*
X121752626Y-95616740D01*
X121750561Y-95615884D01*
X122311912Y-95054533D01*
X122308107Y-95051284D01*
X122308098Y-95051277D01*
X122090015Y-94917636D01*
X122090012Y-94917634D01*
X121853702Y-94819752D01*
X121604988Y-94760042D01*
X121604989Y-94760042D01*
X121350000Y-94739975D01*
X121095010Y-94760042D01*
X120846297Y-94819752D01*
X120609987Y-94917634D01*
X120609984Y-94917636D01*
X120391893Y-95051282D01*
X120388086Y-95054532D01*
X120949438Y-95615884D01*
X120947374Y-95616740D01*
X120808156Y-95709762D01*
X120689762Y-95828156D01*
X120596740Y-95967374D01*
X120595884Y-95969438D01*
X120034532Y-95408086D01*
X120031282Y-95411893D01*
X119897636Y-95629984D01*
X119897634Y-95629987D01*
X119799752Y-95866297D01*
X119740042Y-96115010D01*
X119719975Y-96370000D01*
X117900024Y-96370000D01*
X117879957Y-96115010D01*
X117820247Y-95866297D01*
X117722365Y-95629987D01*
X117722363Y-95629984D01*
X117588719Y-95411897D01*
X117585465Y-95408087D01*
X117024114Y-95969437D01*
X117023260Y-95967374D01*
X116930238Y-95828156D01*
X116811844Y-95709762D01*
X116672626Y-95616740D01*
X116670561Y-95615884D01*
X117231912Y-95054533D01*
X117228107Y-95051284D01*
X117228098Y-95051277D01*
X117010015Y-94917636D01*
X117010012Y-94917634D01*
X116773702Y-94819752D01*
X116524988Y-94760042D01*
X116524989Y-94760042D01*
X116270000Y-94739975D01*
X116015010Y-94760042D01*
X115766297Y-94819752D01*
X115529987Y-94917634D01*
X115529984Y-94917636D01*
X115311893Y-95051282D01*
X115308086Y-95054532D01*
X115869438Y-95615884D01*
X115867374Y-95616740D01*
X115728156Y-95709762D01*
X115609762Y-95828156D01*
X115516740Y-95967374D01*
X115515884Y-95969438D01*
X114954532Y-95408086D01*
X114951282Y-95411893D01*
X114920227Y-95462572D01*
X114868415Y-95509447D01*
X114799486Y-95520870D01*
X114735323Y-95493212D01*
X114696298Y-95435257D01*
X114690500Y-95397782D01*
X114690500Y-93830000D01*
X117279783Y-93830000D01*
X117298623Y-94069382D01*
X117354674Y-94302853D01*
X117354676Y-94302859D01*
X117354677Y-94302863D01*
X117359781Y-94315185D01*
X117446565Y-94524702D01*
X117571915Y-94729255D01*
X117572028Y-94729439D01*
X117727973Y-94912027D01*
X117910561Y-95067972D01*
X117910563Y-95067973D01*
X118115297Y-95193434D01*
X118174439Y-95217931D01*
X118337137Y-95285323D01*
X118570621Y-95341377D01*
X118810000Y-95360217D01*
X119049379Y-95341377D01*
X119282863Y-95285323D01*
X119504704Y-95193433D01*
X119709439Y-95067972D01*
X119892027Y-94912027D01*
X120047972Y-94729439D01*
X120173433Y-94524704D01*
X120265323Y-94302863D01*
X120321377Y-94069379D01*
X120340217Y-93830000D01*
X120321377Y-93590621D01*
X120265323Y-93357137D01*
X120182729Y-93157738D01*
X120173434Y-93135297D01*
X120047973Y-92930563D01*
X120047972Y-92930561D01*
X119892027Y-92747973D01*
X119709439Y-92592028D01*
X119709436Y-92592026D01*
X119504702Y-92466565D01*
X119282865Y-92374678D01*
X119282867Y-92374678D01*
X119282863Y-92374677D01*
X119282859Y-92374676D01*
X119282853Y-92374674D01*
X119049382Y-92318623D01*
X118810000Y-92299783D01*
X118570617Y-92318623D01*
X118337146Y-92374674D01*
X118337134Y-92374678D01*
X118115297Y-92466565D01*
X117910563Y-92592026D01*
X117727973Y-92747973D01*
X117572026Y-92930563D01*
X117446565Y-93135297D01*
X117354678Y-93357134D01*
X117354674Y-93357146D01*
X117298623Y-93590617D01*
X117279783Y-93830000D01*
X114690500Y-93830000D01*
X114690500Y-92262218D01*
X114710185Y-92195179D01*
X114762989Y-92149424D01*
X114832147Y-92139480D01*
X114895703Y-92168505D01*
X114920228Y-92197429D01*
X114951280Y-92248102D01*
X114951284Y-92248107D01*
X114954533Y-92251912D01*
X115515884Y-91690560D01*
X115516740Y-91692626D01*
X115609762Y-91831844D01*
X115728156Y-91950238D01*
X115867374Y-92043260D01*
X115869437Y-92044114D01*
X115308087Y-92605465D01*
X115311897Y-92608719D01*
X115529984Y-92742363D01*
X115529987Y-92742365D01*
X115766297Y-92840247D01*
X116015011Y-92899957D01*
X116015010Y-92899957D01*
X116270000Y-92920024D01*
X116524989Y-92899957D01*
X116773702Y-92840247D01*
X117010012Y-92742365D01*
X117010015Y-92742363D01*
X117228095Y-92608724D01*
X117228110Y-92608713D01*
X117231911Y-92605466D01*
X117231911Y-92605464D01*
X116670562Y-92044114D01*
X116672626Y-92043260D01*
X116811844Y-91950238D01*
X116930238Y-91831844D01*
X117023260Y-91692626D01*
X117024114Y-91690561D01*
X117585464Y-92251911D01*
X117585466Y-92251911D01*
X117588713Y-92248110D01*
X117588724Y-92248095D01*
X117722363Y-92030015D01*
X117722365Y-92030012D01*
X117820247Y-91793702D01*
X117879957Y-91544989D01*
X117900024Y-91290000D01*
X119719975Y-91290000D01*
X119740042Y-91544989D01*
X119799752Y-91793702D01*
X119897634Y-92030012D01*
X119897636Y-92030015D01*
X120031277Y-92248098D01*
X120031284Y-92248107D01*
X120034533Y-92251912D01*
X120595884Y-91690560D01*
X120596740Y-91692626D01*
X120689762Y-91831844D01*
X120808156Y-91950238D01*
X120947374Y-92043260D01*
X120949437Y-92044114D01*
X120388087Y-92605465D01*
X120391897Y-92608719D01*
X120609984Y-92742363D01*
X120609987Y-92742365D01*
X120846297Y-92840247D01*
X121095011Y-92899957D01*
X121095010Y-92899957D01*
X121350000Y-92920024D01*
X121604989Y-92899957D01*
X121853702Y-92840247D01*
X122090012Y-92742365D01*
X122090015Y-92742363D01*
X122308095Y-92608724D01*
X122308110Y-92608713D01*
X122311911Y-92605466D01*
X122311911Y-92605464D01*
X121750562Y-92044114D01*
X121752626Y-92043260D01*
X121891844Y-91950238D01*
X122010238Y-91831844D01*
X122103260Y-91692626D01*
X122104114Y-91690561D01*
X122665464Y-92251911D01*
X122665466Y-92251911D01*
X122668713Y-92248110D01*
X122668724Y-92248095D01*
X122802363Y-92030015D01*
X122802365Y-92030012D01*
X122900247Y-91793702D01*
X122959957Y-91544989D01*
X122980024Y-91290000D01*
X122959957Y-91035010D01*
X122900247Y-90786297D01*
X122802365Y-90549987D01*
X122802363Y-90549984D01*
X122668719Y-90331897D01*
X122665465Y-90328087D01*
X122104114Y-90889437D01*
X122103260Y-90887374D01*
X122010238Y-90748156D01*
X121891844Y-90629762D01*
X121752626Y-90536740D01*
X121750561Y-90535884D01*
X122311912Y-89974533D01*
X122308107Y-89971284D01*
X122308098Y-89971277D01*
X122090015Y-89837636D01*
X122090012Y-89837634D01*
X121853702Y-89739752D01*
X121604988Y-89680042D01*
X121604989Y-89680042D01*
X121350000Y-89659975D01*
X121095010Y-89680042D01*
X120846297Y-89739752D01*
X120609987Y-89837634D01*
X120609984Y-89837636D01*
X120391893Y-89971282D01*
X120388086Y-89974532D01*
X120949438Y-90535884D01*
X120947374Y-90536740D01*
X120808156Y-90629762D01*
X120689762Y-90748156D01*
X120596740Y-90887374D01*
X120595884Y-90889438D01*
X120034532Y-90328086D01*
X120031282Y-90331893D01*
X119897636Y-90549984D01*
X119897634Y-90549987D01*
X119799752Y-90786297D01*
X119740042Y-91035010D01*
X119719975Y-91290000D01*
X117900024Y-91290000D01*
X117879957Y-91035010D01*
X117820247Y-90786297D01*
X117722365Y-90549987D01*
X117722363Y-90549984D01*
X117588719Y-90331897D01*
X117585465Y-90328087D01*
X117024114Y-90889437D01*
X117023260Y-90887374D01*
X116930238Y-90748156D01*
X116811844Y-90629762D01*
X116672626Y-90536740D01*
X116670561Y-90535884D01*
X117231912Y-89974533D01*
X117228107Y-89971284D01*
X117228098Y-89971277D01*
X117010015Y-89837636D01*
X117010012Y-89837634D01*
X116773702Y-89739752D01*
X116524988Y-89680042D01*
X116524989Y-89680042D01*
X116270000Y-89659975D01*
X116015010Y-89680042D01*
X115766297Y-89739752D01*
X115529987Y-89837634D01*
X115529984Y-89837636D01*
X115311893Y-89971282D01*
X115308086Y-89974532D01*
X115869438Y-90535884D01*
X115867374Y-90536740D01*
X115728156Y-90629762D01*
X115609762Y-90748156D01*
X115516740Y-90887374D01*
X115515884Y-90889438D01*
X114954532Y-90328086D01*
X114951282Y-90331893D01*
X114920227Y-90382572D01*
X114868415Y-90429447D01*
X114799486Y-90440870D01*
X114735323Y-90413212D01*
X114696298Y-90355257D01*
X114690500Y-90317782D01*
X114690500Y-82645824D01*
X134949435Y-82645824D01*
X134969630Y-82825070D01*
X134969631Y-82825075D01*
X135029211Y-82995344D01*
X135056476Y-83038735D01*
X135125184Y-83148083D01*
X135252738Y-83275637D01*
X135303392Y-83307465D01*
X135402918Y-83370002D01*
X135405478Y-83371610D01*
X135476204Y-83396358D01*
X135575745Y-83431189D01*
X135575750Y-83431190D01*
X135754996Y-83451386D01*
X135755000Y-83451386D01*
X135755004Y-83451386D01*
X135934249Y-83431190D01*
X135934252Y-83431189D01*
X135934255Y-83431189D01*
X136104522Y-83371610D01*
X136257262Y-83275637D01*
X136384816Y-83148083D01*
X136480789Y-82995343D01*
X136540368Y-82825076D01*
X136549705Y-82742209D01*
X136560565Y-82645824D01*
X136560565Y-82645817D01*
X136540369Y-82466571D01*
X136540368Y-82466566D01*
X136491766Y-82327669D01*
X136480789Y-82296299D01*
X136470431Y-82279815D01*
X136399914Y-82167587D01*
X136384816Y-82143559D01*
X136257262Y-82016005D01*
X136231031Y-81999523D01*
X136104523Y-81920032D01*
X135934254Y-81860452D01*
X135934249Y-81860451D01*
X135755004Y-81840256D01*
X135754996Y-81840256D01*
X135575750Y-81860451D01*
X135575745Y-81860452D01*
X135405476Y-81920032D01*
X135252737Y-82016005D01*
X135125184Y-82143558D01*
X135029211Y-82296297D01*
X134969631Y-82466566D01*
X134969630Y-82466571D01*
X134949435Y-82645817D01*
X134949435Y-82645824D01*
X114690500Y-82645824D01*
X114690500Y-74389458D01*
X114710185Y-74322419D01*
X114762989Y-74276664D01*
X114832147Y-74266720D01*
X114854049Y-74276722D01*
X114884040Y-74278294D01*
X116378692Y-72783642D01*
X116452532Y-72885274D01*
X116630614Y-73063356D01*
X116732244Y-73137195D01*
X115237592Y-74631847D01*
X115237593Y-74631848D01*
X115495150Y-74840412D01*
X115820400Y-75051633D01*
X116165949Y-75227699D01*
X116528007Y-75366681D01*
X116902613Y-75467056D01*
X116902620Y-75467057D01*
X117285656Y-75527724D01*
X117672943Y-75548022D01*
X117672945Y-75548022D01*
X118060231Y-75527724D01*
X118443267Y-75467057D01*
X118443274Y-75467056D01*
X118817880Y-75366681D01*
X119179938Y-75227699D01*
X119525487Y-75051633D01*
X119850727Y-74840420D01*
X119850729Y-74840419D01*
X120108293Y-74631846D01*
X118613642Y-73137195D01*
X118715274Y-73063356D01*
X118893356Y-72885274D01*
X118967195Y-72783642D01*
X120461846Y-74278293D01*
X120670419Y-74020729D01*
X120670420Y-74020727D01*
X120881633Y-73695487D01*
X121057699Y-73349938D01*
X121196681Y-72987880D01*
X121297056Y-72613274D01*
X121297057Y-72613267D01*
X121357724Y-72230231D01*
X121378022Y-71842944D01*
X121378022Y-71842943D01*
X121357724Y-71455656D01*
X121297057Y-71072620D01*
X121297056Y-71072613D01*
X121196681Y-70698007D01*
X121057699Y-70335949D01*
X120881633Y-69990400D01*
X120670412Y-69665150D01*
X120461848Y-69407593D01*
X120461847Y-69407592D01*
X118967195Y-70902244D01*
X118893356Y-70800614D01*
X118715274Y-70622532D01*
X118613642Y-70548692D01*
X120108294Y-69054040D01*
X120106562Y-69020990D01*
X120122711Y-68953013D01*
X120173047Y-68904556D01*
X120230392Y-68890500D01*
X140070902Y-68890500D01*
X140137941Y-68910185D01*
G37*
%TD.AperFunction*%
%TA.AperFunction,Conductor*%
G36*
X183541846Y-127378293D02*
G01*
X183579010Y-127376346D01*
X183646988Y-127392495D01*
X183695444Y-127442832D01*
X183709500Y-127500176D01*
X183709500Y-127765500D01*
X183689815Y-127832539D01*
X183637011Y-127878294D01*
X183585500Y-127889500D01*
X183310701Y-127889500D01*
X183243662Y-127869815D01*
X183197907Y-127817011D01*
X183186871Y-127759012D01*
X183188294Y-127731847D01*
X181693642Y-126237195D01*
X181795274Y-126163356D01*
X181973356Y-125985274D01*
X182047195Y-125883642D01*
X183541846Y-127378293D01*
G37*
%TD.AperFunction*%
%TA.AperFunction,Conductor*%
G36*
X138100072Y-97074518D02*
G01*
X138156006Y-97116389D01*
X138159144Y-97120957D01*
X138160184Y-97122262D01*
X138287738Y-97249816D01*
X138328103Y-97275179D01*
X138434794Y-97342218D01*
X138440478Y-97345789D01*
X138610745Y-97405368D01*
X138679384Y-97413101D01*
X138743796Y-97440166D01*
X138783352Y-97497760D01*
X138789500Y-97536321D01*
X138789500Y-105433857D01*
X138769815Y-105500896D01*
X138767137Y-105504629D01*
X138669211Y-105660476D01*
X138609631Y-105830745D01*
X138609630Y-105830750D01*
X138589435Y-106009996D01*
X138589435Y-106010003D01*
X138609630Y-106189249D01*
X138609631Y-106189254D01*
X138669211Y-106359523D01*
X138713495Y-106430000D01*
X138765184Y-106512262D01*
X138892738Y-106639816D01*
X138983080Y-106696582D01*
X139024067Y-106722336D01*
X139045478Y-106735789D01*
X139158520Y-106775344D01*
X139215745Y-106795368D01*
X139215750Y-106795369D01*
X139394996Y-106815565D01*
X139395000Y-106815565D01*
X139395004Y-106815565D01*
X139574249Y-106795369D01*
X139574250Y-106795368D01*
X139574255Y-106795368D01*
X139665908Y-106763296D01*
X139735684Y-106759734D01*
X139772833Y-106775344D01*
X139804702Y-106795369D01*
X139841213Y-106818310D01*
X140011480Y-106877889D01*
X140011485Y-106877890D01*
X140190731Y-106898086D01*
X140190735Y-106898086D01*
X140190739Y-106898086D01*
X140369984Y-106877890D01*
X140369987Y-106877889D01*
X140369990Y-106877889D01*
X140540257Y-106818310D01*
X140692997Y-106722337D01*
X140820551Y-106594783D01*
X140860507Y-106531192D01*
X140912840Y-106484903D01*
X140981894Y-106474254D01*
X141045742Y-106502629D01*
X141084114Y-106561019D01*
X141089500Y-106597166D01*
X141089500Y-111356187D01*
X141069815Y-111423226D01*
X141017011Y-111468981D01*
X141006455Y-111473229D01*
X140869984Y-111520982D01*
X140717244Y-111616955D01*
X140589691Y-111744508D01*
X140493718Y-111897247D01*
X140434138Y-112067516D01*
X140434137Y-112067521D01*
X140413942Y-112246767D01*
X140413942Y-112246774D01*
X140434137Y-112426020D01*
X140434138Y-112426025D01*
X140493718Y-112596294D01*
X140589691Y-112749033D01*
X140594032Y-112754476D01*
X140592295Y-112755861D01*
X140620699Y-112807879D01*
X140616576Y-112875188D01*
X140614631Y-112880746D01*
X140594435Y-113059996D01*
X140594435Y-113060004D01*
X140614650Y-113239426D01*
X140602595Y-113308248D01*
X140555246Y-113359627D01*
X140505314Y-113376529D01*
X140347965Y-113394257D01*
X140347961Y-113394258D01*
X140177692Y-113453838D01*
X140024953Y-113549811D01*
X139897400Y-113677364D01*
X139801427Y-113830103D01*
X139741847Y-114000372D01*
X139741846Y-114000377D01*
X139721651Y-114179623D01*
X139721651Y-114179630D01*
X139741846Y-114358876D01*
X139741849Y-114358889D01*
X139796392Y-114514762D01*
X139799954Y-114584541D01*
X139784347Y-114621686D01*
X139779559Y-114629306D01*
X139719983Y-114799562D01*
X139719980Y-114799575D01*
X139699785Y-114978821D01*
X139699785Y-114978828D01*
X139719980Y-115158074D01*
X139719981Y-115158079D01*
X139779561Y-115328348D01*
X139871709Y-115475000D01*
X139875534Y-115481087D01*
X140003088Y-115608641D01*
X140155828Y-115704614D01*
X140214088Y-115725000D01*
X140326095Y-115764193D01*
X140326100Y-115764194D01*
X140505346Y-115784390D01*
X140505350Y-115784390D01*
X140505354Y-115784390D01*
X140684599Y-115764194D01*
X140684602Y-115764193D01*
X140684605Y-115764193D01*
X140854872Y-115704614D01*
X141007612Y-115608641D01*
X141007617Y-115608635D01*
X141010447Y-115606380D01*
X141012625Y-115605490D01*
X141013508Y-115604936D01*
X141013605Y-115605090D01*
X141075133Y-115579970D01*
X141087762Y-115579325D01*
X141304506Y-115579325D01*
X141304522Y-115579326D01*
X141312118Y-115579326D01*
X141470229Y-115579326D01*
X141470232Y-115579326D01*
X141622960Y-115538402D01*
X141673079Y-115509464D01*
X141759891Y-115459345D01*
X141871695Y-115347541D01*
X141871695Y-115347539D01*
X141881903Y-115337332D01*
X141881904Y-115337329D01*
X144607821Y-112611413D01*
X144669142Y-112577930D01*
X144738834Y-112582914D01*
X144794767Y-112624786D01*
X144819184Y-112690250D01*
X144819500Y-112699096D01*
X144819500Y-115575638D01*
X144799815Y-115642677D01*
X144783181Y-115663319D01*
X142813319Y-117633181D01*
X142751996Y-117666666D01*
X142725638Y-117669500D01*
X138284500Y-117669500D01*
X138217461Y-117649815D01*
X138171706Y-117597011D01*
X138160500Y-117545500D01*
X138160500Y-112731307D01*
X138159699Y-112727278D01*
X138159699Y-112727277D01*
X138134287Y-112599523D01*
X138125895Y-112557334D01*
X138090941Y-112472949D01*
X138072843Y-112429255D01*
X138058016Y-112393459D01*
X138058014Y-112393455D01*
X138058013Y-112393453D01*
X137978619Y-112274632D01*
X137959464Y-112245964D01*
X137959462Y-112245961D01*
X137816819Y-112103318D01*
X137783334Y-112041995D01*
X137780500Y-112015637D01*
X137780500Y-110361073D01*
X137800185Y-110294034D01*
X137852989Y-110248279D01*
X137922147Y-110238335D01*
X137945455Y-110244032D01*
X138120737Y-110305366D01*
X138120743Y-110305367D01*
X138120745Y-110305368D01*
X138120746Y-110305368D01*
X138120750Y-110305369D01*
X138299996Y-110325565D01*
X138300000Y-110325565D01*
X138300004Y-110325565D01*
X138479249Y-110305369D01*
X138479252Y-110305368D01*
X138479255Y-110305368D01*
X138649522Y-110245789D01*
X138802262Y-110149816D01*
X138929816Y-110022262D01*
X139025789Y-109869522D01*
X139085368Y-109699255D01*
X139105565Y-109520000D01*
X139103566Y-109502262D01*
X139085369Y-109340750D01*
X139085368Y-109340745D01*
X139025788Y-109170476D01*
X138929815Y-109017737D01*
X138802262Y-108890184D01*
X138649523Y-108794211D01*
X138479254Y-108734631D01*
X138479249Y-108734630D01*
X138300004Y-108714435D01*
X138299996Y-108714435D01*
X138120750Y-108734630D01*
X138120742Y-108734632D01*
X137945454Y-108795968D01*
X137875675Y-108799529D01*
X137815048Y-108764800D01*
X137782821Y-108702807D01*
X137780500Y-108678926D01*
X137780500Y-99081307D01*
X137774070Y-99048985D01*
X137764426Y-99000500D01*
X137745895Y-98907334D01*
X137680339Y-98749071D01*
X137678695Y-98744474D01*
X137579465Y-98595966D01*
X137518867Y-98535368D01*
X137454035Y-98470536D01*
X137172191Y-98188692D01*
X136746819Y-97763319D01*
X136713334Y-97701996D01*
X136710500Y-97675638D01*
X136710500Y-97374228D01*
X136730185Y-97307189D01*
X136782989Y-97261434D01*
X136852147Y-97251490D01*
X136900473Y-97269235D01*
X136990475Y-97325788D01*
X137160745Y-97385368D01*
X137160750Y-97385369D01*
X137339996Y-97405565D01*
X137340000Y-97405565D01*
X137340004Y-97405565D01*
X137519249Y-97385369D01*
X137519252Y-97385368D01*
X137519255Y-97385368D01*
X137689522Y-97325789D01*
X137842262Y-97229816D01*
X137969061Y-97103016D01*
X138030380Y-97069534D01*
X138100072Y-97074518D01*
G37*
%TD.AperFunction*%
%TA.AperFunction,Conductor*%
G36*
X141054951Y-101435695D02*
G01*
X141087178Y-101497688D01*
X141089500Y-101521570D01*
X141089500Y-105587875D01*
X141069815Y-105654914D01*
X141017011Y-105700669D01*
X140947853Y-105710613D01*
X140884297Y-105681588D01*
X140860506Y-105653847D01*
X140820548Y-105590255D01*
X140818285Y-105587417D01*
X140817394Y-105585236D01*
X140816846Y-105584363D01*
X140816999Y-105584266D01*
X140791879Y-105522730D01*
X140791235Y-105510108D01*
X140791235Y-101539159D01*
X140810920Y-101472120D01*
X140863724Y-101426365D01*
X140874279Y-101422118D01*
X140907417Y-101410522D01*
X140924544Y-101404528D01*
X140994323Y-101400966D01*
X141054951Y-101435695D01*
G37*
%TD.AperFunction*%
%TA.AperFunction,Conductor*%
G36*
X144618834Y-95222915D02*
G01*
X144674767Y-95264787D01*
X144699184Y-95330251D01*
X144699500Y-95339097D01*
X144699500Y-98569902D01*
X144679815Y-98636941D01*
X144663181Y-98657583D01*
X144026295Y-99294468D01*
X143964972Y-99327953D01*
X143895280Y-99322969D01*
X143839347Y-99281097D01*
X143821572Y-99247741D01*
X143785789Y-99145478D01*
X143745469Y-99081309D01*
X143689816Y-98992738D01*
X143562262Y-98865184D01*
X143495415Y-98823181D01*
X143409523Y-98769211D01*
X143239254Y-98709631D01*
X143239250Y-98709630D01*
X143150616Y-98699644D01*
X143086202Y-98672577D01*
X143046647Y-98614982D01*
X143040500Y-98576424D01*
X143040500Y-96750097D01*
X143060185Y-96683058D01*
X143076819Y-96662416D01*
X144487819Y-95251416D01*
X144549142Y-95217931D01*
X144618834Y-95222915D01*
G37*
%TD.AperFunction*%
%TA.AperFunction,Conductor*%
G36*
X145989507Y-73322194D02*
G01*
X146006148Y-73332888D01*
X146006393Y-73332523D01*
X146011458Y-73335907D01*
X146011462Y-73335910D01*
X146185273Y-73428814D01*
X146373868Y-73486024D01*
X146428484Y-73491403D01*
X146493272Y-73517563D01*
X146533631Y-73574598D01*
X146536748Y-73644398D01*
X146504012Y-73702487D01*
X145750536Y-74455964D01*
X145750534Y-74455966D01*
X145260536Y-74945962D01*
X145256652Y-74951777D01*
X145256647Y-74951785D01*
X145161988Y-75093450D01*
X145161987Y-75093452D01*
X145151533Y-75118691D01*
X145151533Y-75118692D01*
X145094106Y-75257331D01*
X145094103Y-75257341D01*
X145067811Y-75389523D01*
X145059500Y-75431304D01*
X145059500Y-79908696D01*
X145094103Y-80082659D01*
X145094106Y-80082669D01*
X145108633Y-80117738D01*
X145108634Y-80117741D01*
X145161984Y-80246542D01*
X145161985Y-80246543D01*
X145161987Y-80246547D01*
X145208044Y-80315475D01*
X145208045Y-80315478D01*
X145260532Y-80394031D01*
X145260538Y-80394039D01*
X146140536Y-81274036D01*
X146423181Y-81556681D01*
X146456666Y-81618004D01*
X146459500Y-81644362D01*
X146459500Y-82260903D01*
X146439815Y-82327942D01*
X146387011Y-82373697D01*
X146317853Y-82383641D01*
X146254297Y-82354616D01*
X146247819Y-82348584D01*
X145147590Y-81248355D01*
X145147588Y-81248352D01*
X145028717Y-81129481D01*
X145028712Y-81129477D01*
X144898898Y-81054530D01*
X144891785Y-81050423D01*
X144739057Y-81009499D01*
X144580943Y-81009499D01*
X144573347Y-81009499D01*
X144573331Y-81009500D01*
X142820942Y-81009500D01*
X142668215Y-81050422D01*
X142663361Y-81053225D01*
X142661102Y-81054530D01*
X142606499Y-81086055D01*
X142538599Y-81102527D01*
X142472572Y-81079674D01*
X142429382Y-81024752D01*
X142420500Y-80978667D01*
X142420500Y-75010096D01*
X142440185Y-74943057D01*
X142456814Y-74922420D01*
X143846421Y-73532812D01*
X143907742Y-73499329D01*
X143946251Y-73497092D01*
X144030000Y-73505341D01*
X144226132Y-73486024D01*
X144414727Y-73428814D01*
X144588538Y-73335910D01*
X144588544Y-73335904D01*
X144593607Y-73332523D01*
X144594703Y-73334164D01*
X144650639Y-73310405D01*
X144719507Y-73322194D01*
X144736148Y-73332888D01*
X144736393Y-73332523D01*
X144741458Y-73335907D01*
X144741462Y-73335910D01*
X144915273Y-73428814D01*
X145103868Y-73486024D01*
X145300000Y-73505341D01*
X145496132Y-73486024D01*
X145684727Y-73428814D01*
X145858538Y-73335910D01*
X145858544Y-73335904D01*
X145863607Y-73332523D01*
X145864703Y-73334164D01*
X145920639Y-73310405D01*
X145989507Y-73322194D01*
G37*
%TD.AperFunction*%
%TA.AperFunction,Conductor*%
G36*
X155816942Y-70680185D02*
G01*
X155837584Y-70696819D01*
X157283181Y-72142416D01*
X157316666Y-72203739D01*
X157319500Y-72230097D01*
X157319500Y-73843849D01*
X157299815Y-73910888D01*
X157247011Y-73956643D01*
X157177853Y-73966587D01*
X157114297Y-73937562D01*
X157076523Y-73878784D01*
X157073883Y-73868040D01*
X157045896Y-73727341D01*
X157045893Y-73727332D01*
X156978016Y-73563459D01*
X156978009Y-73563446D01*
X156879464Y-73415965D01*
X156879461Y-73415961D01*
X156754038Y-73290538D01*
X156754034Y-73290535D01*
X156606553Y-73191990D01*
X156606540Y-73191983D01*
X156442667Y-73124106D01*
X156442658Y-73124103D01*
X156268694Y-73089500D01*
X156268691Y-73089500D01*
X151406242Y-73089500D01*
X151339203Y-73069815D01*
X151293448Y-73017011D01*
X151283504Y-72947853D01*
X151296884Y-72907046D01*
X151304259Y-72893249D01*
X151308814Y-72884727D01*
X151366024Y-72696132D01*
X151385341Y-72500000D01*
X151366024Y-72303868D01*
X151308814Y-72115273D01*
X151307677Y-72113146D01*
X151307418Y-72111904D01*
X151306483Y-72109645D01*
X151306911Y-72109467D01*
X151293435Y-72044746D01*
X151317771Y-71980379D01*
X151323796Y-71972331D01*
X151374091Y-71837483D01*
X151380500Y-71777873D01*
X151380499Y-70784499D01*
X151400183Y-70717461D01*
X151452987Y-70671706D01*
X151504499Y-70660500D01*
X155749903Y-70660500D01*
X155816942Y-70680185D01*
G37*
%TD.AperFunction*%
%TA.AperFunction,Conductor*%
G36*
X147559930Y-71015095D02*
G01*
X147513852Y-71094905D01*
X147490000Y-71183922D01*
X147490000Y-71276078D01*
X147513852Y-71365095D01*
X147559930Y-71444905D01*
X147595025Y-71480000D01*
X146814975Y-71480000D01*
X146850070Y-71444905D01*
X146896148Y-71365095D01*
X146920000Y-71276078D01*
X146920000Y-71183922D01*
X146896148Y-71094905D01*
X146850070Y-71015095D01*
X146814975Y-70980000D01*
X147595025Y-70980000D01*
X147559930Y-71015095D01*
G37*
%TD.AperFunction*%
%TA.AperFunction,Conductor*%
G36*
X115182534Y-68910185D02*
G01*
X115228289Y-68962989D01*
X115239325Y-69020990D01*
X115237592Y-69054040D01*
X116732245Y-70548692D01*
X116630614Y-70622532D01*
X116452532Y-70800614D01*
X116378692Y-70902244D01*
X114884040Y-69407592D01*
X114861172Y-69408790D01*
X114853375Y-69414177D01*
X114783544Y-69416502D01*
X114723541Y-69380704D01*
X114692417Y-69318150D01*
X114690500Y-69296428D01*
X114690500Y-69014500D01*
X114710185Y-68947461D01*
X114762989Y-68901706D01*
X114814500Y-68890500D01*
X115115495Y-68890500D01*
X115182534Y-68910185D01*
G37*
%TD.AperFunction*%
%TA.AperFunction,Conductor*%
G36*
X183652539Y-68910185D02*
G01*
X183698294Y-68962989D01*
X183709500Y-69014500D01*
X183709500Y-69282396D01*
X183689815Y-69349435D01*
X183637011Y-69395190D01*
X183579012Y-69406226D01*
X183548903Y-69404648D01*
X182054251Y-70899300D01*
X181980412Y-70797670D01*
X181802330Y-70619588D01*
X181700698Y-70545748D01*
X183195350Y-69051096D01*
X183193773Y-69020989D01*
X183209922Y-68953012D01*
X183260259Y-68904556D01*
X183317603Y-68890500D01*
X183585500Y-68890500D01*
X183652539Y-68910185D01*
G37*
%TD.AperFunction*%
%TD*%
M02*
